M48
; DRILL file {KiCad 9.0.7} date 2026-07-30T15:49:25-0500
; FORMAT={-:-/ absolute / metric / decimal}
; #@! TF.CreationDate,2026-07-30T15:49:25-05:00
; #@! TF.GenerationSoftware,Kicad,Pcbnew,9.0.7
; #@! TF.FileFunction,Plated,1,2,PTH
FMAT,2
METRIC
; #@! TA.AperFunction,Plated,PTH,ViaDrill
T1C0.300
; #@! TA.AperFunction,Plated,PTH,ViaDrill
T2C0.500
; #@! TA.AperFunction,Plated,PTH,ViaDrill
T3C0.600
; #@! TA.AperFunction,Plated,PTH,ComponentDrill
T4C1.000
%
G90
G05
T1
X70.0Y-75.0
X72.057Y-71.057
X72.665Y-73.968
X73.0Y-64.0
X73.862Y-62.0
X73.895Y-72.862
X74.0Y-68.0
X74.0Y-70.0
X74.0Y-78.0
X74.141Y-74.279
X74.925Y-69.28
X74.925Y-69.28
X74.925Y-69.28
X74.925Y-69.28
X76.0Y-70.0
X76.138Y-62.0
X77.0Y-28.0
X77.425Y-27.102
X77.862Y-62.0
X78.0Y-52.0
X78.0Y-63.0
X78.5Y-73.0
X79.0Y-68.75
X80.0Y-31.0
X80.087Y-26.0
X80.488Y-27.896
X80.55Y-80.926
X81.0Y-63.0
X81.0Y-65.0
X81.225Y-30.077
X82.0Y-27.912
X82.124Y-82.5
X83.324Y-79.0
X83.525Y-74.612
X83.75Y-76.0
X84.25Y-78.525
X85.0Y-70.0
X87.0Y-75.0
X87.0Y-76.0
X87.0Y-77.0
X87.525Y-71.612
X88.0Y-75.0
X88.0Y-76.0
X88.0Y-76.0
X88.0Y-76.0
X88.0Y-77.0
X88.1Y-79.75
X89.0Y-75.0
X89.0Y-76.0
X89.0Y-77.0
X91.966Y-77.35
X92.75Y-76.85
X92.75Y-83.5
X95.0Y-72.75
X95.224Y-75.224
X96.0Y-38.0
X96.0Y-66.0
X96.75Y-28.5
X98.0Y-23.3
X99.0Y-54.0
X99.0Y-70.0
X99.0Y-86.0
X100.0Y-50.0
X102.889Y-50.429
X104.25Y-28.5
X104.5Y-23.3
X106.0Y-52.0
X106.0Y-68.0
X106.0Y-75.0
T2
X73.175Y-75.046
X76.0Y-26.0
X76.0Y-28.0
X76.0Y-29.0
X76.0Y-29.875
X76.0Y-31.0
X76.0Y-33.247
X77.0Y-78.0
X79.0Y-78.0
X80.0Y-65.0
X82.862Y-64.0
X83.525Y-72.888
X84.0Y-28.0
X84.25Y-80.525
X84.609Y-63.7
X85.438Y-34.0
X86.25Y-80.525
X86.438Y-28.0
X88.0Y-31.0
X92.25Y-74.525
X92.525Y-72.75
X96.0Y-36.0
X98.5Y-38.538
T3
X69.0Y-64.0
X70.0Y-57.0
X74.0Y-37.0
X74.0Y-45.0
X74.0Y-50.062
X74.0Y-54.925
X82.0Y-44.962
X82.0Y-49.987
X82.0Y-54.887
X82.0Y-59.987
T4
X71.42Y-82.25
X73.25Y-28.46
X73.25Y-31.0
X73.46Y-39.962
X73.96Y-82.25
X76.0Y-39.962
X76.5Y-82.25
X79.0Y-33.0
X80.0Y-39.962
X80.71Y-84.75
X81.0Y-77.0
X82.54Y-39.962
X83.0Y-68.25
X83.25Y-84.75
X85.79Y-84.75
X87.0Y-64.5
X89.525Y-69.75
X90.25Y-84.525
X92.065Y-69.75
X93.0Y-36.0
X93.0Y-38.54
X93.0Y-50.0
X93.0Y-54.0
X93.0Y-62.0
X93.0Y-66.0
X94.25Y-79.5
X94.46Y-42.0
X95.46Y-29.75
X95.71Y-25.0
X97.0Y-42.0
X97.0Y-46.0
X97.0Y-50.0
X97.0Y-54.0
X97.0Y-60.0
X97.0Y-64.0
X97.0Y-68.0
X97.0Y-72.0
X97.0Y-76.0
X97.0Y-84.0
X97.75Y-80.0
X98.0Y-29.75
X98.25Y-25.0
X100.54Y-29.75
X100.79Y-25.0
X101.5Y-36.34
X101.5Y-38.88
X101.5Y-41.42
X101.5Y-43.96
X101.5Y-46.5
X101.5Y-49.04
X101.5Y-51.58
X101.5Y-54.12
X101.5Y-56.66
X101.5Y-59.2
X101.5Y-61.74
X101.5Y-64.28
X101.5Y-66.82
X101.5Y-69.36
X101.5Y-71.9
X101.5Y-74.44
X101.5Y-76.98
X101.5Y-79.52
X101.5Y-82.06
X101.5Y-84.6
X104.04Y-36.34
X104.04Y-38.88
X104.04Y-41.42
X104.04Y-43.96
X104.04Y-46.5
X104.04Y-49.04
X104.04Y-51.58
X104.04Y-54.12
X104.04Y-56.66
X104.04Y-59.2
X104.04Y-61.74
X104.04Y-64.28
X104.04Y-66.82
X104.04Y-69.36
X104.04Y-71.9
X104.04Y-74.44
X104.04Y-76.98
X104.04Y-79.52
X104.04Y-82.06
X104.04Y-84.6
M30
