%TF.GenerationSoftware,KiCad,Pcbnew,9.0.7*%
%TF.CreationDate,2026-07-30T15:48:47-05:00*%
%TF.ProjectId,Project_Satellite,50726f6a-6563-4745-9f53-6174656c6c69,rev?*%
%TF.SameCoordinates,Original*%
%TF.FileFunction,Copper,L1,Top*%
%TF.FilePolarity,Positive*%
%FSLAX46Y46*%
G04 Gerber Fmt 4.6, Leading zero omitted, Abs format (unit mm)*
G04 Created by KiCad (PCBNEW 9.0.7) date 2026-07-30 15:48:47*
%MOMM*%
%LPD*%
G01*
G04 APERTURE LIST*
G04 Aperture macros list*
%AMRoundRect*
0 Rectangle with rounded corners*
0 $1 Rounding radius*
0 $2 $3 $4 $5 $6 $7 $8 $9 X,Y pos of 4 corners*
0 Add a 4 corners polygon primitive as box body*
4,1,4,$2,$3,$4,$5,$6,$7,$8,$9,$2,$3,0*
0 Add four circle primitives for the rounded corners*
1,1,$1+$1,$2,$3*
1,1,$1+$1,$4,$5*
1,1,$1+$1,$6,$7*
1,1,$1+$1,$8,$9*
0 Add four rect primitives between the rounded corners*
20,1,$1+$1,$2,$3,$4,$5,0*
20,1,$1+$1,$4,$5,$6,$7,0*
20,1,$1+$1,$6,$7,$8,$9,0*
20,1,$1+$1,$8,$9,$2,$3,0*%
G04 Aperture macros list end*
%TA.AperFunction,SMDPad,CuDef*%
%ADD10RoundRect,0.237500X0.300000X0.237500X-0.300000X0.237500X-0.300000X-0.237500X0.300000X-0.237500X0*%
%TD*%
%TA.AperFunction,SMDPad,CuDef*%
%ADD11RoundRect,0.237500X-0.300000X-0.237500X0.300000X-0.237500X0.300000X0.237500X-0.300000X0.237500X0*%
%TD*%
%TA.AperFunction,SMDPad,CuDef*%
%ADD12RoundRect,0.250000X-0.925000X-1.500000X0.925000X-1.500000X0.925000X1.500000X-0.925000X1.500000X0*%
%TD*%
%TA.AperFunction,SMDPad,CuDef*%
%ADD13RoundRect,0.237500X0.237500X-0.300000X0.237500X0.300000X-0.237500X0.300000X-0.237500X-0.300000X0*%
%TD*%
%TA.AperFunction,ComponentPad*%
%ADD14R,1.700000X1.700000*%
%TD*%
%TA.AperFunction,ComponentPad*%
%ADD15C,1.700000*%
%TD*%
%TA.AperFunction,SMDPad,CuDef*%
%ADD16RoundRect,0.250000X-0.625000X0.400000X-0.625000X-0.400000X0.625000X-0.400000X0.625000X0.400000X0*%
%TD*%
%TA.AperFunction,SMDPad,CuDef*%
%ADD17R,0.850000X0.280000*%
%TD*%
%TA.AperFunction,SMDPad,CuDef*%
%ADD18R,0.280000X0.850000*%
%TD*%
%TA.AperFunction,SMDPad,CuDef*%
%ADD19R,3.450001X3.450001*%
%TD*%
%TA.AperFunction,SMDPad,CuDef*%
%ADD20RoundRect,0.250000X1.500000X-0.925000X1.500000X0.925000X-1.500000X0.925000X-1.500000X-0.925000X0*%
%TD*%
%TA.AperFunction,SMDPad,CuDef*%
%ADD21RoundRect,0.250000X0.475000X-0.337500X0.475000X0.337500X-0.475000X0.337500X-0.475000X-0.337500X0*%
%TD*%
%TA.AperFunction,SMDPad,CuDef*%
%ADD22RoundRect,0.237500X0.237500X-0.250000X0.237500X0.250000X-0.237500X0.250000X-0.237500X-0.250000X0*%
%TD*%
%TA.AperFunction,SMDPad,CuDef*%
%ADD23RoundRect,0.250000X-0.400000X-0.625000X0.400000X-0.625000X0.400000X0.625000X-0.400000X0.625000X0*%
%TD*%
%TA.AperFunction,SMDPad,CuDef*%
%ADD24RoundRect,0.250000X-0.475000X0.337500X-0.475000X-0.337500X0.475000X-0.337500X0.475000X0.337500X0*%
%TD*%
%TA.AperFunction,SMDPad,CuDef*%
%ADD25RoundRect,0.250000X0.650000X-0.412500X0.650000X0.412500X-0.650000X0.412500X-0.650000X-0.412500X0*%
%TD*%
%TA.AperFunction,SMDPad,CuDef*%
%ADD26RoundRect,0.102500X0.102500X-0.682500X0.102500X0.682500X-0.102500X0.682500X-0.102500X-0.682500X0*%
%TD*%
%TA.AperFunction,SMDPad,CuDef*%
%ADD27R,3.810000X3.710000*%
%TD*%
%TA.AperFunction,SMDPad,CuDef*%
%ADD28C,0.700000*%
%TD*%
%TA.AperFunction,SMDPad,CuDef*%
%ADD29RoundRect,0.250000X0.412500X0.650000X-0.412500X0.650000X-0.412500X-0.650000X0.412500X-0.650000X0*%
%TD*%
%TA.AperFunction,SMDPad,CuDef*%
%ADD30RoundRect,0.250000X-0.337500X-0.475000X0.337500X-0.475000X0.337500X0.475000X-0.337500X0.475000X0*%
%TD*%
%TA.AperFunction,SMDPad,CuDef*%
%ADD31RoundRect,0.050000X-0.285000X-0.100000X0.285000X-0.100000X0.285000X0.100000X-0.285000X0.100000X0*%
%TD*%
%TA.AperFunction,ViaPad*%
%ADD32C,0.600000*%
%TD*%
%TA.AperFunction,ViaPad*%
%ADD33C,1.000000*%
%TD*%
%TA.AperFunction,Conductor*%
%ADD34C,0.200000*%
%TD*%
%TA.AperFunction,Conductor*%
%ADD35C,0.750000*%
%TD*%
%TA.AperFunction,Conductor*%
%ADD36C,0.450000*%
%TD*%
%TA.AperFunction,Conductor*%
%ADD37C,0.300000*%
%TD*%
%TA.AperFunction,Conductor*%
%ADD38C,0.350000*%
%TD*%
%TA.AperFunction,Conductor*%
%ADD39C,0.500000*%
%TD*%
%TA.AperFunction,Conductor*%
%ADD40C,0.400000*%
%TD*%
%TA.AperFunction,Conductor*%
%ADD41C,0.356000*%
%TD*%
%TA.AperFunction,Conductor*%
%ADD42C,0.325000*%
%TD*%
%TA.AperFunction,Conductor*%
%ADD43C,0.600000*%
%TD*%
G04 APERTURE END LIST*
D10*
%TO.P,C29,2*%
%TO.N,+15V*%
X82862500Y-64000000D03*
%TO.P,C29,1*%
%TO.N,GND*%
X84587500Y-64000000D03*
%TD*%
D11*
%TO.P,C33,2*%
%TO.N,Net-(U8-OUTPR)*%
X71000000Y-62000000D03*
%TO.P,C33,1*%
%TO.N,Net-(U8-BSPR)*%
X69275000Y-62000000D03*
%TD*%
D12*
%TO.P,L1,1,1*%
%TO.N,Net-(U3-SW)*%
X82975000Y-33000000D03*
%TO.P,L1,2,2*%
%TO.N,+5V*%
X89025000Y-33000000D03*
%TD*%
D13*
%TO.P,C20,1*%
%TO.N,Net-(U5-LOL)*%
X75000000Y-76862500D03*
%TO.P,C20,2*%
%TO.N,Net-(U8-LINP)*%
X75000000Y-75137500D03*
%TD*%
%TO.P,C18,1*%
%TO.N,Net-(U5-IN1_R)*%
X86525001Y-71612500D03*
%TO.P,C18,2*%
%TO.N,Net-(J26-Pin_2)*%
X86525001Y-69887500D03*
%TD*%
D14*
%TO.P,J19,1,Pin_1*%
%TO.N,Net-(J19-Pin_1)*%
X97000000Y-50000000D03*
%TD*%
%TO.P,TP1,1,1*%
%TO.N,Net-(U5-MCLK)*%
X94250000Y-79500000D03*
%TD*%
%TO.P,J13,1,Pin_1*%
%TO.N,Net-(J13-Pin_1)*%
X97000000Y-64000000D03*
%TD*%
%TO.P,J27,1,Pin_1*%
%TO.N,Net-(J27-Pin_1)*%
X95460000Y-29750000D03*
D15*
%TO.P,J27,2,Pin_2*%
%TO.N,Net-(J27-Pin_2)*%
X98000000Y-29750000D03*
%TO.P,J27,3,Pin_3*%
%TO.N,Net-(J27-Pin_3)*%
X100540000Y-29750000D03*
%TD*%
D16*
%TO.P,R7,1*%
%TO.N,Net-(J12-Pin_1)*%
X79000000Y-75000000D03*
%TO.P,R7,2*%
%TO.N,+3.3V*%
X79000000Y-78100000D03*
%TD*%
D17*
%TO.P,U5,1,MCLK*%
%TO.N,Net-(U5-MCLK)*%
X90474999Y-77749999D03*
%TO.P,U5,2,BCLK*%
%TO.N,Net-(U4-GPIO18{slash}GPIO_GEN1)*%
X90474999Y-77250000D03*
%TO.P,U5,3,WCLK*%
%TO.N,Net-(U4-GPIO19)*%
X90474999Y-76750001D03*
%TO.P,U5,4,DIN/MFP1*%
%TO.N,Net-(U4-GPIO20)*%
X90474999Y-76250000D03*
%TO.P,U5,5,DOUT/MFP2*%
%TO.N,Net-(U4-GPIO21)*%
X90474999Y-75750000D03*
%TO.P,U5,6,OVIDD*%
%TO.N,+3.3V*%
X90474999Y-75249999D03*
%TO.P,U5,7,OVISS*%
%TO.N,GND*%
X90474999Y-74750000D03*
%TO.P,U5,8,SCLK/MFP3*%
%TO.N,unconnected-(U5-SCLK{slash}MFP3-Pad8)*%
X90474999Y-74250001D03*
D18*
%TO.P,U5,9,SCL/SSZ*%
%TO.N,Net-(J6-Pin_2)*%
X89750441Y-73525001D03*
%TO.P,U5,10,SDA/MOSI*%
%TO.N,Net-(J6-Pin_1)*%
X89250315Y-73525001D03*
%TO.P,U5,11,MISO/MFP4*%
%TO.N,unconnected-(U5-MISO{slash}MFP4-Pad11)*%
X88750189Y-73525001D03*
%TO.P,U5,12,SPI_SELECT*%
%TO.N,GND*%
X88250063Y-73525001D03*
%TO.P,U5,13,IN1_L*%
%TO.N,Net-(U5-IN1_L)*%
X87749937Y-73525001D03*
%TO.P,U5,14,IN1_R*%
%TO.N,Net-(U5-IN1_R)*%
X87249811Y-73525001D03*
%TO.P,U5,15,IN2_L*%
%TO.N,unconnected-(U5-IN2_L-Pad15)*%
X86749685Y-73525001D03*
%TO.P,U5,16,IN2_R*%
%TO.N,unconnected-(U5-IN2_R-Pad16)*%
X86249559Y-73525001D03*
D17*
%TO.P,U5,17,AVSS*%
%TO.N,GND*%
X85525001Y-74250001D03*
%TO.P,U5,18,REF*%
%TO.N,Net-(U5-REF)*%
X85525001Y-74750000D03*
%TO.P,U5,19,MICBIAS*%
%TO.N,/MICBIAS*%
X85525001Y-75249999D03*
%TO.P,U5,20,IN3_L*%
%TO.N,unconnected-(U5-IN3_L-Pad20)*%
X85525001Y-75750000D03*
%TO.P,U5,21,IN3_R*%
%TO.N,unconnected-(U5-IN3_R-Pad21)*%
X85525001Y-76250000D03*
%TO.P,U5,22,LOL*%
%TO.N,Net-(U5-LOL)*%
X85525001Y-76750001D03*
%TO.P,U5,23,LOR*%
%TO.N,Net-(U5-LOR)*%
X85525001Y-77250000D03*
%TO.P,U5,24,AVDD*%
%TO.N,Net-(U5-AVDD)*%
X85525001Y-77749999D03*
D18*
%TO.P,U5,25,HPL*%
%TO.N,unconnected-(U5-HPL-Pad25)*%
X86249559Y-78474999D03*
%TO.P,U5,26,LDOIN*%
%TO.N,+3.3V*%
X86749685Y-78474999D03*
%TO.P,U5,27,HPR*%
%TO.N,unconnected-(U5-HPR-Pad27)*%
X87249811Y-78474999D03*
%TO.P,U5,28,DVSS*%
%TO.N,GND*%
X87749937Y-78474999D03*
%TO.P,U5,29,DVDD*%
%TO.N,Net-(U5-DVDD)*%
X88250063Y-78474999D03*
%TO.P,U5,30,LDO_SELECT*%
%TO.N,+3.3V*%
X88750189Y-78474999D03*
%TO.P,U5,31,\u002ARESET*%
%TO.N,Net-(J7-Pin_1)*%
X89250315Y-78474999D03*
%TO.P,U5,32,GPIO/MFP5*%
%TO.N,unconnected-(U5-GPIO{slash}MFP5-Pad32)*%
X89750441Y-78474999D03*
D19*
%TO.P,U5,33,EPAD*%
%TO.N,GND*%
X88000000Y-76000000D03*
%TD*%
D14*
%TO.P,J3,1,Pin_1*%
%TO.N,Net-(J3-Pin_1)*%
X97000000Y-68000000D03*
%TD*%
D13*
%TO.P,C22,1*%
%TO.N,Net-(U5-LOR)*%
X72000000Y-76725000D03*
%TO.P,C22,2*%
%TO.N,Net-(U8-RINP)*%
X72000000Y-75000000D03*
%TD*%
D14*
%TO.P,U4,1,3V3_1*%
%TO.N,+3V3*%
X101500000Y-36340000D03*
D15*
%TO.P,U4,2,5V_2*%
%TO.N,+5V*%
X104040000Y-36340000D03*
%TO.P,U4,3,GPIO2/SDA1*%
%TO.N,Net-(J5-Pin_2)*%
X101500000Y-38880000D03*
%TO.P,U4,4,5V_4*%
%TO.N,+5V*%
X104040000Y-38880000D03*
%TO.P,U4,5,GPIO3/SCL*%
%TO.N,Net-(J5-Pin_1)*%
X101500000Y-41420000D03*
%TO.P,U4,6,GND_6*%
%TO.N,GND*%
X104040000Y-41420000D03*
%TO.P,U4,7,GPIO4/GPIO_GCLK*%
%TO.N,Net-(J2-Pin_1)*%
X101500000Y-43960000D03*
%TO.P,U4,8,GPIO14/TXD0*%
%TO.N,unconnected-(U4-GPIO14{slash}TXD0-Pad8)*%
X104040000Y-43960000D03*
%TO.P,U4,9,GND_9*%
%TO.N,GND*%
X101500000Y-46500000D03*
%TO.P,U4,10,GPIO15/RXD0*%
%TO.N,unconnected-(U4-GPIO15{slash}RXD0-Pad10)*%
X104040000Y-46500000D03*
%TO.P,U4,11,GPIO17/GPIO_GEN0*%
%TO.N,Net-(J19-Pin_1)*%
X101500000Y-49040000D03*
%TO.P,U4,12,GPIO18/GPIO_GEN1*%
%TO.N,Net-(U4-GPIO18{slash}GPIO_GEN1)*%
X104040000Y-49040000D03*
%TO.P,U4,13,GPIO27/GPIO_GEN2*%
%TO.N,Net-(J24-Pin_1)*%
X101500000Y-51580000D03*
%TO.P,U4,14,GND_14*%
%TO.N,GND*%
X104040000Y-51580000D03*
%TO.P,U4,15,GPIO22/GPIO_GEN3*%
%TO.N,Net-(J20-Pin_1)*%
X101500000Y-54120000D03*
%TO.P,U4,16,GPIO23/GPIO_GEN4*%
%TO.N,Net-(J21-Pin_1)*%
X104040000Y-54120000D03*
%TO.P,U4,17,3V3_17*%
%TO.N,+3.3V*%
X101500000Y-56660000D03*
%TO.P,U4,18,GPIO24/GPIO_GEN5*%
%TO.N,Net-(J22-Pin_1)*%
X104040000Y-56660000D03*
%TO.P,U4,19,GPIO10/SPI_MOSI*%
%TO.N,unconnected-(U4-GPIO10{slash}SPI_MOSI-Pad19)*%
X101500000Y-59200000D03*
%TO.P,U4,20,GND_20*%
%TO.N,GND*%
X104040000Y-59200000D03*
%TO.P,U4,21,GPIO9/SPI_MISO*%
%TO.N,unconnected-(U4-GPIO9{slash}SPI_MISO-Pad21)*%
X101500000Y-61740000D03*
%TO.P,U4,22,GPIO25/GPIO_GEN6*%
%TO.N,unconnected-(U4-GPIO25{slash}GPIO_GEN6-Pad22)*%
X104040000Y-61740000D03*
%TO.P,U4,23,GPIO11/SPI_SCLK*%
%TO.N,unconnected-(U4-GPIO11{slash}SPI_SCLK-Pad23)*%
X101500000Y-64280000D03*
%TO.P,U4,24,GPIO8/SPI_~{CE0}*%
%TO.N,Net-(J14-Pin_1)*%
X104040000Y-64280000D03*
%TO.P,U4,25,GND_25*%
%TO.N,GND*%
X101500000Y-66820000D03*
%TO.P,U4,26,GPIO7/SPI_~{CE1}*%
%TO.N,Net-(J13-Pin_1)*%
X104040000Y-66820000D03*
%TO.P,U4,27,ID_SD*%
%TO.N,unconnected-(U4-ID_SD-Pad27)*%
X101500000Y-69360000D03*
%TO.P,U4,28,ID_SC*%
%TO.N,unconnected-(U4-ID_SC-Pad28)*%
X104040000Y-69360000D03*
%TO.P,U4,29,GPIO5*%
%TO.N,Net-(J3-Pin_1)*%
X101500000Y-71900000D03*
%TO.P,U4,30,GND_30*%
%TO.N,GND*%
X104040000Y-71900000D03*
%TO.P,U4,31,GPIO6*%
%TO.N,Net-(J4-Pin_1)*%
X101500000Y-74440000D03*
%TO.P,U4,32,GPIO12*%
%TO.N,Net-(J16-Pin_1)*%
X104040000Y-74440000D03*
%TO.P,U4,33,GPIO13*%
%TO.N,Net-(J17-Pin_1)*%
X101500000Y-76980000D03*
%TO.P,U4,34,GND_34*%
%TO.N,GND*%
X104040000Y-76980000D03*
%TO.P,U4,35,GPIO19*%
%TO.N,Net-(U4-GPIO19)*%
X101500000Y-79520000D03*
%TO.P,U4,36,GPIO16*%
%TO.N,Net-(J18-Pin_1)*%
X104040000Y-79520000D03*
%TO.P,U4,37,GPIO26*%
%TO.N,Net-(J23-Pin_1)*%
X101500000Y-82060000D03*
%TO.P,U4,38,GPIO20*%
%TO.N,Net-(U4-GPIO20)*%
X104040000Y-82060000D03*
%TO.P,U4,39,GND_39*%
%TO.N,GND*%
X101500000Y-84600000D03*
%TO.P,U4,40,GPIO21*%
%TO.N,Net-(U4-GPIO21)*%
X104040000Y-84600000D03*
%TD*%
D20*
%TO.P,L4,1,1*%
%TO.N,Net-(U8-OUTPL)*%
X82000000Y-49987500D03*
%TO.P,L4,2,2*%
%TO.N,Net-(J8-Pin_2)*%
X82000000Y-43937500D03*
%TD*%
D14*
%TO.P,J1,1,Pin_1*%
%TO.N,GND*%
X73250000Y-28460000D03*
D15*
%TO.P,J1,2,Pin_2*%
%TO.N,+15V*%
X73250000Y-31000000D03*
%TD*%
D21*
%TO.P,C12,1*%
%TO.N,GND*%
X98500000Y-38537500D03*
%TO.P,C12,2*%
%TO.N,+3V3*%
X98500000Y-36462500D03*
%TD*%
D22*
%TO.P,R2,1*%
%TO.N,Net-(U3-FB)*%
X82000000Y-27912500D03*
%TO.P,R2,2*%
X82000000Y-26087500D03*
%TD*%
D14*
%TO.P,J18,1,Pin_1*%
%TO.N,Net-(J18-Pin_1)*%
X97750000Y-80000000D03*
%TD*%
D23*
%TO.P,R5,1*%
%TO.N,+3.3V*%
X88250315Y-81525001D03*
%TO.P,R5,2*%
%TO.N,Net-(J7-Pin_1)*%
X91350315Y-81525001D03*
%TD*%
D24*
%TO.P,C1,1*%
%TO.N,+15V*%
X76000000Y-31172500D03*
%TO.P,C1,2*%
%TO.N,GND*%
X76000000Y-33247500D03*
%TD*%
D14*
%TO.P,J6,1,Pin_1*%
%TO.N,Net-(J6-Pin_1)*%
X89525001Y-69750000D03*
D15*
%TO.P,J6,2,Pin_2*%
%TO.N,Net-(J6-Pin_2)*%
X92065001Y-69750000D03*
%TD*%
D14*
%TO.P,J5,1,Pin_1*%
%TO.N,Net-(J5-Pin_1)*%
X97000000Y-42000000D03*
D15*
%TO.P,J5,2,Pin_2*%
%TO.N,Net-(J5-Pin_2)*%
X94460000Y-42000000D03*
%TD*%
D25*
%TO.P,C8,1*%
%TO.N,+15V*%
X76250000Y-29272500D03*
%TO.P,C8,2*%
%TO.N,GND*%
X76250000Y-26147500D03*
%TD*%
D20*
%TO.P,L5,1,1*%
%TO.N,Net-(U8-OUTPR)*%
X74000000Y-59987500D03*
%TO.P,L5,2,2*%
%TO.N,Net-(J9-Pin_2)*%
X74000000Y-53937500D03*
%TD*%
D13*
%TO.P,C19,1*%
%TO.N,GND*%
X77000000Y-77862500D03*
%TO.P,C19,2*%
%TO.N,Net-(U8-LINN)*%
X77000000Y-76137500D03*
%TD*%
D14*
%TO.P,J9,1,Pin_1*%
%TO.N,Net-(J9-Pin_1)*%
X76000000Y-39962500D03*
D15*
%TO.P,J9,2,Pin_2*%
%TO.N,Net-(J9-Pin_2)*%
X73460000Y-39962500D03*
%TD*%
D14*
%TO.P,J26,1,Pin_1*%
%TO.N,/MICBIAS*%
X80710000Y-84750000D03*
D15*
%TO.P,J26,2,Pin_2*%
%TO.N,Net-(J26-Pin_2)*%
X83250000Y-84750000D03*
%TO.P,J26,3,Pin_3*%
%TO.N,GND*%
X85790000Y-84750000D03*
%TD*%
D14*
%TO.P,J24,1,Pin_1*%
%TO.N,Net-(J24-Pin_1)*%
X93000000Y-50000000D03*
%TD*%
%TO.P,J4,1,Pin_1*%
%TO.N,Net-(J4-Pin_1)*%
X97000000Y-72000000D03*
%TD*%
D13*
%TO.P,C13,1*%
%TO.N,+3.3V*%
X92525001Y-74475000D03*
%TO.P,C13,2*%
%TO.N,GND*%
X92525001Y-72750000D03*
%TD*%
D14*
%TO.P,J7,1,Pin_1*%
%TO.N,Net-(J7-Pin_1)*%
X90250315Y-84525001D03*
%TD*%
D11*
%TO.P,C34,1*%
%TO.N,Net-(U3-SS)*%
X79137500Y-30000000D03*
%TO.P,C34,2*%
%TO.N,GND*%
X80862500Y-30000000D03*
%TD*%
D26*
%TO.P,U8,1,MODSEL*%
%TO.N,GND*%
X70050000Y-73000000D03*
%TO.P,U8,2,SDZ*%
%TO.N,Net-(J10-Pin_1)*%
X70700000Y-73000000D03*
%TO.P,U8,3,FAULTZ*%
%TO.N,Net-(J11-Pin_1)*%
X71350000Y-73000000D03*
%TO.P,U8,4,RINP*%
%TO.N,Net-(U8-RINP)*%
X72000000Y-73000000D03*
%TO.P,U8,5,RINN*%
%TO.N,Net-(U8-RINN)*%
X72650000Y-73000000D03*
%TO.P,U8,6,PLIMIT*%
%TO.N,Net-(U8-GVDD)*%
X73300000Y-73000000D03*
%TO.P,U8,7,GVDD*%
X73950000Y-73000000D03*
%TO.P,U8,8,GAIN/SLV*%
%TO.N,Net-(U8-GAIN{slash}SLV)*%
X74600000Y-73000000D03*
%TO.P,U8,9,GND*%
%TO.N,GND*%
X75250000Y-73000000D03*
%TO.P,U8,10,LINP*%
%TO.N,Net-(U8-LINP)*%
X75900000Y-73000000D03*
%TO.P,U8,11,LINN*%
%TO.N,Net-(U8-LINN)*%
X76550000Y-73000000D03*
%TO.P,U8,12,MUTE*%
%TO.N,Net-(J12-Pin_1)*%
X77200000Y-73000000D03*
%TO.P,U8,13,AM2*%
%TO.N,GND*%
X77850000Y-73000000D03*
%TO.P,U8,14,AM1*%
X78500000Y-73000000D03*
%TO.P,U8,15,AM0*%
X79150000Y-73000000D03*
%TO.P,U8,16,SYNC*%
%TO.N,unconnected-(U8-SYNC-Pad16)*%
X79800000Y-73000000D03*
%TO.P,U8,17,AVCC*%
%TO.N,+15V*%
X79800000Y-65560000D03*
%TO.P,U8,18,PVCC*%
X79150000Y-65560000D03*
%TO.P,U8,19,PVCC*%
X78500000Y-65560000D03*
%TO.P,U8,20,BSNL*%
%TO.N,Net-(U8-BSNL)*%
X77850000Y-65560000D03*
%TO.P,U8,21,OUTNL*%
%TO.N,Net-(U8-OUTNL)*%
X77200000Y-65560000D03*
%TO.P,U8,22,GND*%
%TO.N,GND*%
X76550000Y-65560000D03*
%TO.P,U8,23,OUTPL*%
%TO.N,Net-(U8-OUTPL)*%
X75900000Y-65560000D03*
%TO.P,U8,24,BSPL*%
%TO.N,Net-(U8-BSPL)*%
X75250000Y-65560000D03*
%TO.P,U8,25,GND*%
%TO.N,GND*%
X74600000Y-65560000D03*
%TO.P,U8,26,BSNR*%
%TO.N,Net-(U8-BSNR)*%
X73950000Y-65560000D03*
%TO.P,U8,27,OUTNR*%
%TO.N,Net-(U8-OUTNR)*%
X73300000Y-65560000D03*
%TO.P,U8,28,GND*%
%TO.N,GND*%
X72650000Y-65560000D03*
%TO.P,U8,29,OUTPR*%
%TO.N,Net-(U8-OUTPR)*%
X72000000Y-65560000D03*
%TO.P,U8,30,BSPR*%
%TO.N,Net-(U8-BSPR)*%
X71350000Y-65560000D03*
%TO.P,U8,31,PVCC*%
%TO.N,+15V*%
X70700000Y-65560000D03*
%TO.P,U8,32,PVCC*%
X70050000Y-65560000D03*
D27*
%TO.P,U8,33,POWERPAD*%
%TO.N,GND*%
X74925000Y-69280000D03*
%TD*%
D28*
%TO.P,U6,1,Out*%
%TO.N,Net-(J27-Pin_2)*%
X106575000Y-28750000D03*
%TO.P,U6,2,VDD*%
%TO.N,Net-(J27-Pin_1)*%
X105425000Y-28750000D03*
%TO.P,U6,3,GND*%
%TO.N,Net-(J27-Pin_3)*%
X105425000Y-31410000D03*
%TO.P,U6,4,GND*%
X106575000Y-31410000D03*
%TD*%
D14*
%TO.P,J28,1,Pin_1*%
%TO.N,Net-(J28-Pin_1)*%
X95710000Y-25000000D03*
D15*
%TO.P,J28,2,Pin_2*%
%TO.N,Net-(J28-Pin_2)*%
X98250000Y-25000000D03*
%TO.P,J28,3,Pin_3*%
%TO.N,Net-(J28-Pin_3)*%
X100790000Y-25000000D03*
%TD*%
D14*
%TO.P,J25,1,Pin_1*%
%TO.N,/MICBIAS*%
X71420000Y-82250000D03*
D15*
%TO.P,J25,2,Pin_2*%
%TO.N,Net-(J25-Pin_2)*%
X73960000Y-82250000D03*
%TO.P,J25,3,Pin_3*%
%TO.N,GND*%
X76500000Y-82250000D03*
%TD*%
D14*
%TO.P,J16,1,Pin_1*%
%TO.N,Net-(J16-Pin_1)*%
X97000000Y-60000000D03*
%TD*%
D29*
%TO.P,C9,1*%
%TO.N,+5V*%
X89562500Y-28000000D03*
%TO.P,C9,2*%
%TO.N,GND*%
X86437500Y-28000000D03*
%TD*%
D14*
%TO.P,J2,1,Pin_1*%
%TO.N,Net-(J2-Pin_1)*%
X97000000Y-46000000D03*
%TD*%
%TO.P,J21,1,Pin_1*%
%TO.N,Net-(J21-Pin_1)*%
X97000000Y-54000000D03*
%TD*%
%TO.P,J23,1,Pin_1*%
%TO.N,Net-(J23-Pin_1)*%
X97000000Y-84000000D03*
%TD*%
%TO.P,J20,1,Pin_1*%
%TO.N,Net-(J20-Pin_1)*%
X93000000Y-54000000D03*
%TD*%
D13*
%TO.P,C16,1*%
%TO.N,Net-(U5-REF)*%
X83525001Y-74612500D03*
%TO.P,C16,2*%
%TO.N,GND*%
X83525001Y-72887500D03*
%TD*%
D14*
%TO.P,J17,1,Pin_1*%
%TO.N,Net-(J17-Pin_1)*%
X97000000Y-76000000D03*
%TD*%
D20*
%TO.P,L3,1,1*%
%TO.N,Net-(U8-OUTNR)*%
X74000000Y-50062500D03*
%TO.P,L3,2,2*%
%TO.N,Net-(J9-Pin_1)*%
X74000000Y-44012500D03*
%TD*%
D14*
%TO.P,J22,1,Pin_1*%
%TO.N,Net-(J22-Pin_1)*%
X93000000Y-62000000D03*
%TD*%
D30*
%TO.P,C23,1*%
%TO.N,GND*%
X84212815Y-80525001D03*
%TO.P,C23,2*%
%TO.N,+3.3V*%
X86287815Y-80525001D03*
%TD*%
D14*
%TO.P,J14,1,Pin_1*%
%TO.N,Net-(J14-Pin_1)*%
X93000000Y-66000000D03*
%TD*%
D28*
%TO.P,U7,1,Out*%
%TO.N,Net-(J28-Pin_2)*%
X106825000Y-23760000D03*
%TO.P,U7,2,VDD*%
%TO.N,Net-(J28-Pin_1)*%
X105675000Y-23760000D03*
%TO.P,U7,3,GND*%
%TO.N,Net-(J28-Pin_3)*%
X105675000Y-26420000D03*
%TO.P,U7,4,GND*%
X106825000Y-26420000D03*
%TD*%
D14*
%TO.P,J8,1,Pin_1*%
%TO.N,Net-(J8-Pin_1)*%
X80000000Y-39962500D03*
D15*
%TO.P,J8,2,Pin_2*%
%TO.N,Net-(J8-Pin_2)*%
X82540000Y-39962500D03*
%TD*%
D31*
%TO.P,U3,1,RT*%
%TO.N,unconnected-(U3-RT-Pad1)*%
X78260000Y-27000000D03*
%TO.P,U3,2,EN*%
%TO.N,Net-(J15-Pin_1)*%
X78260000Y-27500000D03*
%TO.P,U3,3,VIN*%
%TO.N,+15V*%
X78260000Y-28000000D03*
%TO.P,U3,4,GND*%
%TO.N,GND*%
X78260000Y-28500000D03*
%TO.P,U3,5,SW*%
%TO.N,Net-(U3-SW)*%
X79740000Y-28500000D03*
%TO.P,U3,6,BST*%
%TO.N,Net-(U3-BST)*%
X79740000Y-28000000D03*
%TO.P,U3,7,SS*%
%TO.N,Net-(U3-SS)*%
X79740000Y-27500000D03*
%TO.P,U3,8,FB*%
%TO.N,Net-(U3-FB)*%
X79740000Y-27000000D03*
%TD*%
D14*
%TO.P,J11,1,Pin_1*%
%TO.N,Net-(J11-Pin_1)*%
X83000000Y-68250000D03*
%TD*%
%TO.P,J10,1,Pin_1*%
%TO.N,Net-(J10-Pin_1)*%
X87000000Y-64500000D03*
%TD*%
%TO.P,J15,1,Pin_1*%
%TO.N,Net-(J15-Pin_1)*%
X79000000Y-33000000D03*
%TD*%
%TO.P,D1,1,K*%
%TO.N,Net-(D1-K)*%
X93000000Y-38540000D03*
D15*
%TO.P,D1,2,A*%
%TO.N,GND*%
X93000000Y-36000000D03*
%TD*%
D14*
%TO.P,J12,1,Pin_1*%
%TO.N,Net-(J12-Pin_1)*%
X81000000Y-77000000D03*
%TD*%
D20*
%TO.P,L2,1,1*%
%TO.N,Net-(U8-OUTNL)*%
X82000000Y-59987500D03*
%TO.P,L2,2,2*%
%TO.N,Net-(J8-Pin_1)*%
X82000000Y-53937500D03*
%TD*%
D32*
%TO.N,GND*%
X74925000Y-69280000D03*
X74925000Y-69280000D03*
X74925000Y-69280000D03*
X76000000Y-70000000D03*
X74000000Y-70000000D03*
X74000000Y-68000000D03*
X74925000Y-69280000D03*
X87000000Y-77000000D03*
X88000000Y-77000000D03*
X89000000Y-77000000D03*
X89000000Y-76000000D03*
X89000000Y-75000000D03*
X88000000Y-75000000D03*
X87000000Y-75000000D03*
X87000000Y-76000000D03*
X88000000Y-76000000D03*
X88000000Y-76000000D03*
X88000000Y-76000000D03*
D33*
%TO.N,+15V*%
X70000000Y-57000000D03*
X69000000Y-64000000D03*
X74000000Y-37000000D03*
D32*
%TO.N,Net-(U8-OUTPL)*%
X78000000Y-52000000D03*
D33*
X82000000Y-49987500D03*
%TO.N,Net-(U8-OUTNR)*%
X74000000Y-50062500D03*
%TO.N,Net-(U8-OUTNL)*%
X82000000Y-59987500D03*
D32*
%TO.N,Net-(U8-BSNL)*%
X81000000Y-63000000D03*
D33*
%TO.N,GND*%
X84609232Y-63700000D03*
%TO.N,+15V*%
X82862500Y-64000000D03*
D32*
%TO.N,Net-(U8-OUTNL)*%
X78000000Y-63000000D03*
%TO.N,Net-(U8-OUTPL)*%
X77862500Y-62000000D03*
%TO.N,Net-(U8-BSPL)*%
X76137500Y-62000000D03*
%TO.N,Net-(U8-BSNR)*%
X73862500Y-62000000D03*
%TO.N,Net-(U8-OUTNR)*%
X73000000Y-64000000D03*
%TO.N,Net-(U3-SW)*%
X80000000Y-31000000D03*
%TO.N,Net-(U3-BST)*%
X80488370Y-27896492D03*
D33*
%TO.N,GND*%
X77000000Y-78000000D03*
X98500000Y-38537500D03*
X92525001Y-72750000D03*
D32*
X81225000Y-30076572D03*
X106000000Y-68000000D03*
D33*
X86437500Y-28000000D03*
X83525001Y-72887500D03*
X84250315Y-80525001D03*
D32*
X102889000Y-50429000D03*
X106000000Y-52000000D03*
X74000000Y-78000000D03*
X78500000Y-73000000D03*
D33*
X73175000Y-75046105D03*
D32*
X99000000Y-70000000D03*
X100000000Y-50000000D03*
X106000000Y-75000000D03*
D33*
X76000000Y-33247500D03*
D32*
X99000000Y-86000000D03*
D33*
X76000000Y-26000000D03*
D32*
%TO.N,+15V*%
X81000000Y-65000000D03*
D33*
X76000000Y-29000000D03*
X76000000Y-29875000D03*
X76000000Y-31000000D03*
X80000000Y-65000000D03*
D32*
X77000000Y-28000000D03*
D33*
X76000000Y-28000000D03*
%TO.N,+5V*%
X88000000Y-31000000D03*
X85437500Y-34000000D03*
X96000000Y-36000000D03*
X84000000Y-28000000D03*
D32*
%TO.N,+3.3V*%
X82124001Y-82500000D03*
X80549737Y-80925736D03*
D33*
X79000000Y-78000000D03*
X92250315Y-74525001D03*
X86250315Y-80525001D03*
D32*
X92750000Y-83500000D03*
%TO.N,Net-(U5-REF)*%
X83525001Y-74612500D03*
%TO.N,Net-(U5-IN1_L)*%
X87525001Y-71612500D03*
%TO.N,Net-(J26-Pin_2)*%
X85000000Y-70000000D03*
%TO.N,Net-(U8-RINN)*%
X72665354Y-73967969D03*
%TO.N,Net-(U5-AVDD)*%
X84250315Y-78525001D03*
%TO.N,Net-(U5-DVDD)*%
X88100189Y-79750000D03*
%TO.N,Net-(U8-GVDD)*%
X73895000Y-72862500D03*
D33*
%TO.N,Net-(J8-Pin_1)*%
X82000000Y-54887500D03*
%TO.N,Net-(J8-Pin_2)*%
X82000000Y-44962500D03*
%TO.N,Net-(J9-Pin_1)*%
X74000000Y-45000000D03*
%TO.N,Net-(J9-Pin_2)*%
X74000000Y-54925000D03*
D32*
%TO.N,Net-(D1-K)*%
X96000000Y-38000000D03*
%TO.N,Net-(J10-Pin_1)*%
X79000000Y-68750000D03*
X70000000Y-75000000D03*
%TO.N,Net-(J11-Pin_1)*%
X72056765Y-71056765D03*
%TO.N,Net-(J15-Pin_1)*%
X77425000Y-27102372D03*
%TO.N,Net-(U3-FB)*%
X82000000Y-27912500D03*
X80087500Y-26000000D03*
%TO.N,Net-(U8-GAIN{slash}SLV)*%
X74141229Y-74278777D03*
%TO.N,Net-(U4-GPIO19)*%
X92750000Y-76850000D03*
%TO.N,Net-(J14-Pin_1)*%
X96000000Y-66000000D03*
%TO.N,Net-(J16-Pin_1)*%
X95000000Y-72750000D03*
%TO.N,Net-(U4-GPIO18{slash}GPIO_GEN1)*%
X91965533Y-77350001D03*
%TO.N,Net-(J21-Pin_1)*%
X99000000Y-54000000D03*
%TO.N,Net-(U4-GPIO21)*%
X95224265Y-75224265D03*
%TO.N,/MICBIAS*%
X83750000Y-76000000D03*
X83324001Y-79000000D03*
%TO.N,Net-(J27-Pin_1)*%
X96750000Y-28500000D03*
X104250000Y-28500000D03*
%TO.N,Net-(J28-Pin_1)*%
X104500000Y-23300000D03*
X98000000Y-23300000D03*
%TD*%
D34*
%TO.N,GND*%
X76000000Y-70000000D02*
X75000000Y-70000000D01*
D35*
%TO.N,+15V*%
X69000000Y-66000000D02*
X69000000Y-64000000D01*
D36*
%TO.N,Net-(U8-OUTPR)*%
X72012500Y-59987500D02*
X74000000Y-59987500D01*
D35*
%TO.N,+15V*%
X87000000Y-40000000D02*
X84000000Y-37000000D01*
X84000000Y-37000000D02*
X74000000Y-37000000D01*
X82862500Y-63525000D02*
X87000000Y-59387500D01*
X87000000Y-59387500D02*
X87000000Y-40000000D01*
D36*
%TO.N,Net-(U8-OUTPL)*%
X77862500Y-52137500D02*
X78000000Y-52000000D01*
X77862500Y-62000000D02*
X77862500Y-52137500D01*
%TO.N,Net-(U8-OUTPR)*%
X71000000Y-62000000D02*
X71000000Y-61000000D01*
X71000000Y-61000000D02*
X72012500Y-59987500D01*
D35*
%TO.N,+15V*%
X82862500Y-64000000D02*
X82862500Y-63525000D01*
X81000000Y-65000000D02*
X81862500Y-65000000D01*
X81862500Y-65000000D02*
X82862500Y-64000000D01*
D36*
%TO.N,Net-(U8-BSNL)*%
X78312501Y-64000000D02*
X77850000Y-64462501D01*
X81000000Y-63000000D02*
X80000000Y-64000000D01*
X80000000Y-64000000D02*
X78312501Y-64000000D01*
X77850000Y-64462501D02*
X77850000Y-64775001D01*
D34*
%TO.N,Net-(J10-Pin_1)*%
X79000000Y-68750000D02*
X79750000Y-68750000D01*
X79750000Y-68750000D02*
X83500000Y-65000000D01*
X83500000Y-65000000D02*
X86500000Y-65000000D01*
X86500000Y-65000000D02*
X87000000Y-64500000D01*
%TO.N,Net-(U8-BSNL)*%
X77850000Y-65560000D02*
X77850000Y-64775001D01*
D36*
%TO.N,Net-(U8-OUTNL)*%
X77200000Y-63800000D02*
X78000000Y-63000000D01*
X77200000Y-65560000D02*
X77200000Y-63800000D01*
%TO.N,Net-(U8-OUTPL)*%
X75900000Y-65560000D02*
X75900000Y-63962500D01*
X75900000Y-63962500D02*
X77862500Y-62000000D01*
%TO.N,Net-(U8-BSPL)*%
X75250000Y-65560000D02*
X75250000Y-62887500D01*
X75250000Y-62887500D02*
X76137500Y-62000000D01*
%TO.N,Net-(U8-BSNR)*%
X73950000Y-65560000D02*
X73950000Y-62087500D01*
D34*
X73950000Y-62087500D02*
X73862500Y-62000000D01*
D36*
%TO.N,Net-(U8-OUTNR)*%
X73300000Y-64300000D02*
X73000000Y-64000000D01*
X73300000Y-65560000D02*
X73300000Y-64300000D01*
%TO.N,Net-(U8-OUTPR)*%
X72000000Y-65560000D02*
X72000000Y-63000000D01*
X72000000Y-63000000D02*
X71000000Y-62000000D01*
%TO.N,Net-(U8-BSPR)*%
X71350000Y-65560000D02*
X71350000Y-64075000D01*
X71350000Y-64075000D02*
X69275000Y-62000000D01*
D34*
%TO.N,Net-(U3-SW)*%
X80000000Y-31000000D02*
X81500000Y-32500000D01*
X80000000Y-28760000D02*
X80000000Y-31000000D01*
X81500000Y-32500000D02*
X82475000Y-32500000D01*
X79740000Y-28500000D02*
X80000000Y-28760000D01*
X82475000Y-32500000D02*
X82975000Y-33000000D01*
%TO.N,Net-(U3-BST)*%
X79740000Y-28000000D02*
X80384862Y-28000000D01*
X80384862Y-28000000D02*
X80488370Y-27896492D01*
%TO.N,GND*%
X76284999Y-70000000D02*
X76000000Y-70000000D01*
D37*
X78260000Y-28500000D02*
X78250000Y-28500000D01*
D36*
X70050000Y-73000000D02*
X70050000Y-71700000D01*
D38*
X106000000Y-52000000D02*
X104429000Y-50429000D01*
D39*
X100100000Y-86000000D02*
X99000000Y-86000000D01*
D34*
X88250063Y-75524749D02*
X88354339Y-75420473D01*
D37*
X79150000Y-73000000D02*
X76000000Y-69850000D01*
X77850000Y-72205000D02*
X74925000Y-69280000D01*
D36*
X75250000Y-73000000D02*
X75250000Y-70250000D01*
D40*
X71500000Y-70250000D02*
X73750000Y-70250000D01*
D36*
X72650000Y-66650000D02*
X74000000Y-68000000D01*
D39*
X73175000Y-75046105D02*
X74000000Y-75871105D01*
D40*
X70050000Y-71700000D02*
X71500000Y-70250000D01*
X77750000Y-29000000D02*
X77750000Y-31497500D01*
D34*
X87749937Y-77025379D02*
X87956889Y-77232331D01*
D38*
X102814000Y-70674000D02*
X99674000Y-70674000D01*
D36*
X76550000Y-65560000D02*
X76550000Y-67450000D01*
D34*
X73750000Y-70250000D02*
X74000000Y-70000000D01*
X75250000Y-70250000D02*
X75000000Y-70000000D01*
X77850000Y-73000000D02*
X77850000Y-72205000D01*
D38*
X99674000Y-70674000D02*
X99000000Y-70000000D01*
D41*
X100266000Y-50266000D02*
X100000000Y-50000000D01*
D38*
X104040000Y-71900000D02*
X102814000Y-70674000D01*
D37*
X78250000Y-28500000D02*
X77750000Y-29000000D01*
X89807998Y-74750000D02*
X89250315Y-75307683D01*
D34*
X105580000Y-51580000D02*
X106000000Y-52000000D01*
X78500000Y-73000000D02*
X78500000Y-72215001D01*
D38*
X105866000Y-68134000D02*
X106000000Y-68000000D01*
D39*
X101500000Y-84600000D02*
X100100000Y-86000000D01*
D37*
X88250063Y-73525001D02*
X88250063Y-75524749D01*
D36*
X72650000Y-65560000D02*
X72650000Y-66650000D01*
D34*
X89250315Y-75307683D02*
X89250315Y-75525001D01*
X87956889Y-77232331D02*
X87956889Y-77232644D01*
X80862500Y-30000000D02*
X81148428Y-30000000D01*
X87250315Y-75250315D02*
X87250315Y-75525001D01*
D39*
X74000000Y-75871105D02*
X74000000Y-78000000D01*
D36*
X74600000Y-65560000D02*
X74600000Y-67600000D01*
D38*
X104429000Y-50429000D02*
X102889000Y-50429000D01*
D37*
X78500000Y-72215001D02*
X76284999Y-70000000D01*
D34*
X86250001Y-74250001D02*
X87250315Y-75250315D01*
D38*
X102726000Y-50266000D02*
X102889000Y-50429000D01*
D34*
X81148428Y-30000000D02*
X81225000Y-30076572D01*
D38*
X102814000Y-68134000D02*
X105866000Y-68134000D01*
D40*
X77850000Y-73000000D02*
X78500000Y-73000000D01*
D37*
X87749937Y-78474999D02*
X87749937Y-77025379D01*
D38*
X104040000Y-71900000D02*
X106000000Y-73860000D01*
X104040000Y-51580000D02*
X102889000Y-50429000D01*
X100992174Y-50266000D02*
X102726000Y-50266000D01*
D42*
X104040000Y-51580000D02*
X105580000Y-51580000D01*
D38*
X100992174Y-50266000D02*
X100266000Y-50266000D01*
D37*
X90474999Y-74750000D02*
X89807998Y-74750000D01*
D38*
X101500000Y-66820000D02*
X102814000Y-68134000D01*
X106000000Y-73860000D02*
X106000000Y-75000000D01*
D40*
X77750000Y-31497500D02*
X76000000Y-33247500D01*
D34*
X85525001Y-74250001D02*
X86250001Y-74250001D01*
D35*
%TO.N,+15V*%
X79440000Y-65560000D02*
X80000000Y-65000000D01*
D37*
X77000000Y-28000000D02*
X76000000Y-28000000D01*
D35*
X69610000Y-66000000D02*
X70050000Y-65560000D01*
D34*
X79800000Y-65200000D02*
X80000000Y-65000000D01*
D36*
X70700000Y-65560000D02*
X70050000Y-65560000D01*
D37*
X78260000Y-28000000D02*
X77000000Y-28000000D01*
D36*
X78500000Y-65560000D02*
X79440000Y-65560000D01*
D34*
X79800000Y-65560000D02*
X79800000Y-65200000D01*
D35*
X76000000Y-31000000D02*
X76000000Y-29875000D01*
X80000000Y-65000000D02*
X81000000Y-65000000D01*
X79150000Y-65560000D02*
X79800000Y-65560000D01*
X76000000Y-29875000D02*
X76000000Y-29000000D01*
X79150000Y-65560000D02*
X79440000Y-65560000D01*
X69000000Y-66000000D02*
X69610000Y-66000000D01*
%TO.N,+5V*%
X90000000Y-33000000D02*
X91000000Y-32000000D01*
D34*
X89025000Y-33000000D02*
X90000000Y-33000000D01*
D43*
%TO.N,+3.3V*%
X82124001Y-82500000D02*
X85250000Y-82500000D01*
D37*
X86749685Y-78474999D02*
X86749685Y-79175688D01*
D34*
X88750189Y-81025127D02*
X88250315Y-81525001D01*
D40*
X91525317Y-75249999D02*
X92250315Y-74525001D01*
D39*
X86749685Y-79175688D02*
X86287815Y-79637558D01*
D43*
X86287815Y-79637558D02*
X86287815Y-80525001D01*
X101500000Y-56660000D02*
X99590000Y-56660000D01*
D37*
X90474999Y-75249999D02*
X91525317Y-75249999D01*
D43*
X86287815Y-81462185D02*
X86287815Y-80525001D01*
D34*
X91000000Y-73274686D02*
X91000000Y-73000000D01*
D43*
X85250000Y-82500000D02*
X86287815Y-81462185D01*
D37*
X88750189Y-78474999D02*
X88750189Y-81025127D01*
D43*
X92250315Y-74525001D02*
X91000000Y-73274686D01*
D34*
%TO.N,Net-(U5-REF)*%
X83525001Y-74612500D02*
X83662501Y-74750000D01*
X83662501Y-74750000D02*
X85525001Y-74750000D01*
%TO.N,Net-(U5-IN1_L)*%
X87749937Y-71837436D02*
X87525001Y-71612500D01*
X87749937Y-73525001D02*
X87749937Y-71837436D01*
%TO.N,Net-(U5-IN1_R)*%
X87249811Y-72337310D02*
X86525001Y-71612500D01*
X87249811Y-73525001D02*
X87249811Y-72337310D01*
%TO.N,Net-(J26-Pin_2)*%
X86412501Y-70000000D02*
X86525001Y-69887500D01*
X85000000Y-70000000D02*
X86412501Y-70000000D01*
%TO.N,Net-(U8-LINN)*%
X76199000Y-75336500D02*
X77000000Y-76137500D01*
X76199000Y-74135999D02*
X76199000Y-75336500D01*
X76550000Y-73000000D02*
X76550000Y-73784999D01*
X76550000Y-73784999D02*
X76199000Y-74135999D01*
%TO.N,Net-(U5-LOL)*%
X83551999Y-76750001D02*
X80802000Y-79500000D01*
X75000000Y-76862500D02*
X75000000Y-79000000D01*
X85525001Y-76750001D02*
X83551999Y-76750001D01*
X80802000Y-79500000D02*
X75500000Y-79500000D01*
X75000000Y-79000000D02*
X75500000Y-79500000D01*
%TO.N,Net-(U8-LINP)*%
X75900000Y-73784999D02*
X75000000Y-74684999D01*
X75900000Y-73000000D02*
X75900000Y-73784999D01*
X75000000Y-74684999D02*
X75000000Y-75137500D01*
%TO.N,Net-(U8-RINN)*%
X72650000Y-73000000D02*
X72650000Y-73952615D01*
X72650000Y-73952615D02*
X72665354Y-73967969D01*
%TO.N,Net-(U8-RINP)*%
X72000000Y-73000000D02*
X72000000Y-75000000D01*
%TO.N,Net-(U5-LOR)*%
X83750000Y-77250000D02*
X81000000Y-80000000D01*
X81000000Y-80000000D02*
X73000000Y-80000000D01*
X72000000Y-79000000D02*
X72000000Y-76725000D01*
X73000000Y-80000000D02*
X72000000Y-79000000D01*
X85525001Y-77250000D02*
X83750000Y-77250000D01*
%TO.N,Net-(U5-AVDD)*%
X85525001Y-77749999D02*
X85025317Y-77749999D01*
X85025317Y-77749999D02*
X84250315Y-78525001D01*
D37*
%TO.N,Net-(U5-DVDD)*%
X88250063Y-78474999D02*
X88250063Y-79600126D01*
D34*
X88250063Y-79600126D02*
X88100189Y-79750000D01*
%TO.N,Net-(U8-GVDD)*%
X73300000Y-73000000D02*
X73757500Y-73000000D01*
X73757500Y-73000000D02*
X73895000Y-72862500D01*
X73950000Y-72917500D02*
X73895000Y-72862500D01*
X73950000Y-73000000D02*
X73950000Y-72917500D01*
%TO.N,Net-(U3-SS)*%
X79104000Y-27753226D02*
X79357226Y-27500000D01*
X79137500Y-30000000D02*
X79104000Y-29966500D01*
X79357226Y-27500000D02*
X79740000Y-27500000D01*
X79104000Y-29966500D02*
X79104000Y-27753226D01*
%TO.N,Net-(J8-Pin_1)*%
X80937500Y-53937500D02*
X82000000Y-53937500D01*
D36*
X79000000Y-52000000D02*
X80937500Y-53937500D01*
D34*
X82000000Y-53937500D02*
X82000000Y-54887500D01*
D36*
X80000000Y-39962500D02*
X79000000Y-40962500D01*
X79000000Y-40962500D02*
X79000000Y-52000000D01*
D34*
%TO.N,Net-(J8-Pin_2)*%
X82000000Y-44962500D02*
X82000000Y-43937500D01*
X82540000Y-43397500D02*
X82000000Y-43937500D01*
D36*
X82540000Y-39962500D02*
X82540000Y-43397500D01*
D34*
%TO.N,Net-(J9-Pin_1)*%
X74000000Y-45000000D02*
X74000000Y-44012500D01*
D36*
X76000000Y-42012500D02*
X74000000Y-44012500D01*
X76000000Y-39962500D02*
X76000000Y-42012500D01*
D34*
%TO.N,Net-(J9-Pin_2)*%
X74000000Y-53937500D02*
X74000000Y-54925000D01*
D36*
X71000000Y-51000000D02*
X73937500Y-53937500D01*
D34*
X73937500Y-53937500D02*
X74000000Y-53937500D01*
D36*
X71000000Y-42422500D02*
X71000000Y-51000000D01*
X73460000Y-39962500D02*
X71000000Y-42422500D01*
D34*
%TO.N,Net-(D1-K)*%
X93000000Y-38540000D02*
X95460000Y-38540000D01*
X95460000Y-38540000D02*
X96000000Y-38000000D01*
%TO.N,Net-(J5-Pin_2)*%
X94460000Y-42000000D02*
X96460000Y-40000000D01*
X96460000Y-40000000D02*
X100380000Y-40000000D01*
X100380000Y-40000000D02*
X101500000Y-38880000D01*
%TO.N,Net-(J5-Pin_1)*%
X98000000Y-42000000D02*
X98580000Y-41420000D01*
X98580000Y-41420000D02*
X101500000Y-41420000D01*
X97000000Y-42000000D02*
X98000000Y-42000000D01*
%TO.N,Net-(J6-Pin_2)*%
X89750441Y-72064560D02*
X92065001Y-69750000D01*
X89750441Y-73525001D02*
X89750441Y-72064560D01*
%TO.N,Net-(J6-Pin_1)*%
X89250315Y-73525001D02*
X89250315Y-70024686D01*
X89250315Y-70024686D02*
X89525001Y-69750000D01*
%TO.N,Net-(J7-Pin_1)*%
X90250315Y-82999685D02*
X90250315Y-84525001D01*
X91350315Y-81899685D02*
X90250315Y-82999685D01*
X89250315Y-79425001D02*
X91350315Y-81525001D01*
X91350315Y-81525001D02*
X91350315Y-81899685D01*
X89250315Y-78474999D02*
X89250315Y-79425001D01*
%TO.N,Net-(J10-Pin_1)*%
X70700000Y-73000000D02*
X70700000Y-74300000D01*
X70700000Y-74300000D02*
X70000000Y-75000000D01*
%TO.N,Net-(J11-Pin_1)*%
X71350000Y-71763530D02*
X72056765Y-71056765D01*
X71350000Y-73000000D02*
X71350000Y-71763530D01*
%TO.N,Net-(J15-Pin_1)*%
X78260000Y-27500000D02*
X77822628Y-27500000D01*
X77822628Y-27500000D02*
X77425000Y-27102372D01*
%TO.N,Net-(U3-FB)*%
X80087500Y-26000000D02*
X81912500Y-26000000D01*
X82000000Y-26087500D02*
X82000000Y-27912500D01*
X80000000Y-26000000D02*
X80087500Y-26000000D01*
X81912500Y-26000000D02*
X82000000Y-26087500D01*
X79740000Y-27000000D02*
X80000000Y-26740000D01*
X80000000Y-26740000D02*
X80000000Y-26000000D01*
%TO.N,Net-(U8-GAIN{slash}SLV)*%
X74600000Y-73820006D02*
X74600000Y-73000000D01*
X74141229Y-74278777D02*
X74600000Y-73820006D01*
%TO.N,Net-(J12-Pin_1)*%
X79000000Y-75000000D02*
X81000000Y-77000000D01*
X77200000Y-73000000D02*
X77200000Y-73784999D01*
X78415001Y-75000000D02*
X79000000Y-75000000D01*
X77200000Y-73784999D02*
X78415001Y-75000000D01*
%TO.N,Net-(U5-MCLK)*%
X90499999Y-77749999D02*
X90474999Y-77749999D01*
X92250000Y-79500000D02*
X90499999Y-77749999D01*
X92250000Y-79500000D02*
X94250000Y-79500000D01*
%TO.N,Net-(J2-Pin_1)*%
X101500000Y-43960000D02*
X99460000Y-46000000D01*
X99460000Y-46000000D02*
X97000000Y-46000000D01*
%TO.N,Net-(U4-GPIO20)*%
X102678000Y-80698000D02*
X104040000Y-82060000D01*
X101000000Y-80698000D02*
X102678000Y-80698000D01*
X94948000Y-76250000D02*
X97547000Y-78849000D01*
X99151000Y-78849000D02*
X101000000Y-80698000D01*
X97547000Y-78849000D02*
X99151000Y-78849000D01*
X90474999Y-76250000D02*
X94948000Y-76250000D01*
%TO.N,Net-(J3-Pin_1)*%
X97000000Y-69000000D02*
X97000000Y-68000000D01*
X99900000Y-71900000D02*
X97000000Y-69000000D01*
X101500000Y-71900000D02*
X99900000Y-71900000D01*
%TO.N,Net-(J4-Pin_1)*%
X99060000Y-72000000D02*
X97000000Y-72000000D01*
X101500000Y-74440000D02*
X99060000Y-72000000D01*
%TO.N,Net-(J13-Pin_1)*%
X104040000Y-66820000D02*
X102889000Y-65669000D01*
X102889000Y-65669000D02*
X98669000Y-65669000D01*
X98669000Y-65669000D02*
X97000000Y-64000000D01*
%TO.N,Net-(U4-GPIO19)*%
X92750000Y-76850000D02*
X92650001Y-76750001D01*
X92650001Y-76750001D02*
X90474999Y-76750001D01*
%TO.N,Net-(J14-Pin_1)*%
X93000000Y-66000000D02*
X96000000Y-66000000D01*
%TO.N,Net-(J16-Pin_1)*%
X95000000Y-72750000D02*
X96750000Y-74500000D01*
X96750000Y-74500000D02*
X99932240Y-74500000D01*
X99932240Y-74500000D02*
X101023240Y-75591000D01*
X102889000Y-75591000D02*
X104040000Y-74440000D01*
X101023240Y-75591000D02*
X102889000Y-75591000D01*
%TO.N,Net-(J17-Pin_1)*%
X97000000Y-76000000D02*
X100520000Y-76000000D01*
X100520000Y-76000000D02*
X101500000Y-76980000D01*
%TO.N,Net-(U4-GPIO18{slash}GPIO_GEN1)*%
X91865532Y-77250000D02*
X91965533Y-77350001D01*
X90474999Y-77250000D02*
X91865532Y-77250000D01*
%TO.N,Net-(J19-Pin_1)*%
X98000000Y-49000000D02*
X101460000Y-49000000D01*
X97000000Y-50000000D02*
X98000000Y-49000000D01*
X101460000Y-49000000D02*
X101500000Y-49040000D01*
%TO.N,Net-(J20-Pin_1)*%
X94151000Y-52849000D02*
X100229000Y-52849000D01*
X93000000Y-54000000D02*
X94151000Y-52849000D01*
X100229000Y-52849000D02*
X101500000Y-54120000D01*
%TO.N,Net-(J21-Pin_1)*%
X97000000Y-54000000D02*
X99000000Y-54000000D01*
%TO.N,Net-(J22-Pin_1)*%
X93000000Y-62000000D02*
X99612240Y-62000000D01*
X105191000Y-59676760D02*
X105191000Y-57811000D01*
X99612240Y-62000000D02*
X101023240Y-60589000D01*
X101023240Y-60589000D02*
X104278760Y-60589000D01*
X104278760Y-60589000D02*
X105191000Y-59676760D01*
X105191000Y-57811000D02*
X104040000Y-56660000D01*
%TO.N,Net-(J23-Pin_1)*%
X97000000Y-84000000D02*
X99560000Y-84000000D01*
X99560000Y-84000000D02*
X101500000Y-82060000D01*
%TO.N,Net-(J24-Pin_1)*%
X101500000Y-51580000D02*
X94580000Y-51580000D01*
X94580000Y-51580000D02*
X93000000Y-50000000D01*
%TO.N,Net-(U4-GPIO21)*%
X94849530Y-75599000D02*
X95224265Y-75224265D01*
X92151000Y-75599000D02*
X94849530Y-75599000D01*
X90474999Y-75750000D02*
X92000000Y-75750000D01*
X92000000Y-75750000D02*
X92151000Y-75599000D01*
%TO.N,/MICBIAS*%
X80710000Y-81614001D02*
X80710000Y-84750000D01*
X80787001Y-81537001D02*
X80710000Y-81614001D01*
X83324001Y-79000000D02*
X80787001Y-81537001D01*
X77074002Y-85250000D02*
X72750000Y-85250000D01*
X71420000Y-83920000D02*
X71420000Y-82250000D01*
X84500001Y-75249999D02*
X83750000Y-76000000D01*
X85525001Y-75249999D02*
X84500001Y-75249999D01*
X72750000Y-85250000D02*
X71420000Y-83920000D01*
X80787001Y-81537001D02*
X77074002Y-85250000D01*
%TO.N,Net-(J27-Pin_3)*%
X100540000Y-29750000D02*
X102200000Y-31410000D01*
X105425000Y-31410000D02*
X106575000Y-31410000D01*
X102200000Y-31410000D02*
X105425000Y-31410000D01*
%TO.N,Net-(J27-Pin_2)*%
X104500000Y-30000000D02*
X105325000Y-30000000D01*
X102750000Y-28250000D02*
X104500000Y-30000000D01*
X99500000Y-28250000D02*
X102750000Y-28250000D01*
X98000000Y-29750000D02*
X99500000Y-28250000D01*
X105325000Y-30000000D02*
X106575000Y-28750000D01*
%TO.N,Net-(J27-Pin_1)*%
X95460000Y-29750000D02*
X95500000Y-29750000D01*
X95500000Y-29750000D02*
X96750000Y-28500000D01*
X105425000Y-28750000D02*
X104500000Y-28750000D01*
X104500000Y-28750000D02*
X104250000Y-28500000D01*
%TO.N,Net-(J28-Pin_2)*%
X106825000Y-24675000D02*
X106825000Y-23760000D01*
X99750000Y-23500000D02*
X103500000Y-23500000D01*
X105000000Y-25000000D02*
X106500000Y-25000000D01*
X103500000Y-23500000D02*
X105000000Y-25000000D01*
X98250000Y-25000000D02*
X99750000Y-23500000D01*
X106500000Y-25000000D02*
X106825000Y-24675000D01*
%TO.N,Net-(J28-Pin_1)*%
X105675000Y-23760000D02*
X104960000Y-23760000D01*
X97410000Y-23300000D02*
X98000000Y-23300000D01*
X95710000Y-25000000D02*
X97410000Y-23300000D01*
X104960000Y-23760000D02*
X104500000Y-23300000D01*
%TO.N,Net-(J28-Pin_3)*%
X100790000Y-25000000D02*
X102210000Y-26420000D01*
X105675000Y-26420000D02*
X106825000Y-26420000D01*
X102210000Y-26420000D02*
X105675000Y-26420000D01*
D43*
%TO.N,+3V3*%
X98500000Y-36462500D02*
X99537500Y-36462500D01*
X99660000Y-36340000D02*
X101500000Y-36340000D01*
D34*
X99537500Y-36462500D02*
X99660000Y-36340000D01*
%TD*%
%TA.AperFunction,Conductor*%
%TO.N,+3.3V*%
G36*
X107691336Y-55276106D02*
G01*
X107737695Y-55328381D01*
X107749500Y-55381185D01*
X107749500Y-87375500D01*
X107729815Y-87442539D01*
X107677011Y-87488294D01*
X107625500Y-87499500D01*
X78124000Y-87499500D01*
X78056961Y-87479815D01*
X78011206Y-87427011D01*
X78000000Y-87375500D01*
X78000000Y-85224598D01*
X78019685Y-85157559D01*
X78036316Y-85136920D01*
X79147821Y-84025414D01*
X79209142Y-83991931D01*
X79278834Y-83996915D01*
X79334767Y-84038787D01*
X79359184Y-84104251D01*
X79359500Y-84113097D01*
X79359500Y-85647870D01*
X79359501Y-85647876D01*
X79365908Y-85707483D01*
X79416202Y-85842328D01*
X79416206Y-85842335D01*
X79502452Y-85957544D01*
X79502455Y-85957547D01*
X79617664Y-86043793D01*
X79617671Y-86043797D01*
X79752517Y-86094091D01*
X79752516Y-86094091D01*
X79759444Y-86094835D01*
X79812127Y-86100500D01*
X81607872Y-86100499D01*
X81667483Y-86094091D01*
X81802331Y-86043796D01*
X81917546Y-85957546D01*
X82003796Y-85842331D01*
X82052810Y-85710916D01*
X82094681Y-85654984D01*
X82160145Y-85630566D01*
X82228418Y-85645417D01*
X82256673Y-85666569D01*
X82370213Y-85780109D01*
X82542179Y-85905048D01*
X82542181Y-85905049D01*
X82542184Y-85905051D01*
X82731588Y-86001557D01*
X82933757Y-86067246D01*
X83143713Y-86100500D01*
X83143714Y-86100500D01*
X83356286Y-86100500D01*
X83356287Y-86100500D01*
X83566243Y-86067246D01*
X83768412Y-86001557D01*
X83957816Y-85905051D01*
X84031445Y-85851557D01*
X84129786Y-85780109D01*
X84129788Y-85780106D01*
X84129792Y-85780104D01*
X84280104Y-85629792D01*
X84280106Y-85629788D01*
X84280109Y-85629786D01*
X84405048Y-85457820D01*
X84405047Y-85457820D01*
X84405051Y-85457816D01*
X84409514Y-85449054D01*
X84457488Y-85398259D01*
X84525308Y-85381463D01*
X84591444Y-85403999D01*
X84630486Y-85449056D01*
X84634951Y-85457820D01*
X84759890Y-85629786D01*
X84910213Y-85780109D01*
X85082179Y-85905048D01*
X85082181Y-85905049D01*
X85082184Y-85905051D01*
X85271588Y-86001557D01*
X85473757Y-86067246D01*
X85683713Y-86100500D01*
X85683714Y-86100500D01*
X85896286Y-86100500D01*
X85896287Y-86100500D01*
X86106243Y-86067246D01*
X86308412Y-86001557D01*
X86497816Y-85905051D01*
X86571445Y-85851557D01*
X86669786Y-85780109D01*
X86669788Y-85780106D01*
X86669792Y-85780104D01*
X86820104Y-85629792D01*
X86820106Y-85629788D01*
X86820109Y-85629786D01*
X86945048Y-85457820D01*
X86945047Y-85457820D01*
X86945051Y-85457816D01*
X87041557Y-85268412D01*
X87107246Y-85066243D01*
X87140500Y-84856287D01*
X87140500Y-84643713D01*
X87107246Y-84433757D01*
X87041557Y-84231588D01*
X86945051Y-84042184D01*
X86945049Y-84042181D01*
X86945048Y-84042179D01*
X86820109Y-83870213D01*
X86669786Y-83719890D01*
X86497820Y-83594951D01*
X86308414Y-83498444D01*
X86308413Y-83498443D01*
X86308412Y-83498443D01*
X86106243Y-83432754D01*
X86106241Y-83432753D01*
X86106240Y-83432753D01*
X85944957Y-83407208D01*
X85896287Y-83399500D01*
X85683713Y-83399500D01*
X85635042Y-83407208D01*
X85473760Y-83432753D01*
X85271585Y-83498444D01*
X85082179Y-83594951D01*
X84910213Y-83719890D01*
X84759890Y-83870213D01*
X84634949Y-84042182D01*
X84630484Y-84050946D01*
X84582509Y-84101742D01*
X84514688Y-84118536D01*
X84448553Y-84095998D01*
X84409516Y-84050946D01*
X84405050Y-84042182D01*
X84280109Y-83870213D01*
X84129786Y-83719890D01*
X83957820Y-83594951D01*
X83768414Y-83498444D01*
X83768413Y-83498443D01*
X83768412Y-83498443D01*
X83566243Y-83432754D01*
X83566241Y-83432753D01*
X83566240Y-83432753D01*
X83404957Y-83407208D01*
X83356287Y-83399500D01*
X83143713Y-83399500D01*
X83095042Y-83407208D01*
X82933760Y-83432753D01*
X82731585Y-83498444D01*
X82542179Y-83594951D01*
X82370215Y-83719889D01*
X82256673Y-83833431D01*
X82195350Y-83866915D01*
X82125658Y-83861931D01*
X82069725Y-83820059D01*
X82052810Y-83789082D01*
X82003797Y-83657671D01*
X82003793Y-83657664D01*
X81917547Y-83542455D01*
X81917544Y-83542452D01*
X81802335Y-83456206D01*
X81802328Y-83456202D01*
X81667482Y-83405908D01*
X81667483Y-83405908D01*
X81607883Y-83399501D01*
X81607881Y-83399500D01*
X81607873Y-83399500D01*
X81607865Y-83399500D01*
X81434500Y-83399500D01*
X81367461Y-83379815D01*
X81321706Y-83327011D01*
X81310500Y-83275500D01*
X81310500Y-81914098D01*
X81330185Y-81847059D01*
X81346819Y-81826417D01*
X82123234Y-81050002D01*
X82913136Y-80260099D01*
X82974457Y-80226616D01*
X83044149Y-80231600D01*
X83100082Y-80273472D01*
X83124499Y-80338936D01*
X83124815Y-80347782D01*
X83124815Y-81050002D01*
X83124816Y-81050020D01*
X83135315Y-81152797D01*
X83135316Y-81152800D01*
X83190500Y-81319332D01*
X83190502Y-81319337D01*
X83209722Y-81350498D01*
X83282603Y-81468657D01*
X83406659Y-81592713D01*
X83555981Y-81684815D01*
X83722518Y-81740000D01*
X83825306Y-81750501D01*
X84600323Y-81750500D01*
X84600331Y-81750499D01*
X84600334Y-81750499D01*
X84666333Y-81743757D01*
X84703112Y-81740000D01*
X84869649Y-81684815D01*
X85018971Y-81592713D01*
X85143027Y-81468657D01*
X85145067Y-81465348D01*
X85147060Y-81463556D01*
X85147508Y-81462990D01*
X85147604Y-81463066D01*
X85197009Y-81418624D01*
X85265971Y-81407396D01*
X85330055Y-81435235D01*
X85356144Y-81465340D01*
X85357996Y-81468342D01*
X85357998Y-81468345D01*
X85481969Y-81592316D01*
X85631190Y-81684357D01*
X85631195Y-81684359D01*
X85797617Y-81739506D01*
X85797624Y-81739507D01*
X85900334Y-81750000D01*
X86037814Y-81750000D01*
X86037815Y-81749999D01*
X86037815Y-80649001D01*
X86057500Y-80581962D01*
X86110304Y-80536207D01*
X86161815Y-80525001D01*
X86413815Y-80525001D01*
X86480854Y-80544686D01*
X86526609Y-80597490D01*
X86537815Y-80649001D01*
X86537815Y-81750000D01*
X86675287Y-81750000D01*
X86675301Y-81749999D01*
X86778010Y-81739507D01*
X86937310Y-81686719D01*
X87007139Y-81684317D01*
X87067181Y-81720048D01*
X87098374Y-81782568D01*
X87100315Y-81804425D01*
X87100315Y-82199972D01*
X87100316Y-82199988D01*
X87110809Y-82302698D01*
X87165956Y-82469120D01*
X87165958Y-82469125D01*
X87257999Y-82618346D01*
X87381969Y-82742316D01*
X87531190Y-82834357D01*
X87531195Y-82834359D01*
X87697617Y-82889506D01*
X87697624Y-82889507D01*
X87800334Y-82900000D01*
X88000314Y-82900000D01*
X88500315Y-82900000D01*
X88700287Y-82900000D01*
X88700301Y-82899999D01*
X88803012Y-82889506D01*
X88969434Y-82834359D01*
X88969439Y-82834357D01*
X89118660Y-82742316D01*
X89242630Y-82618346D01*
X89334671Y-82469125D01*
X89334673Y-82469120D01*
X89389820Y-82302698D01*
X89389821Y-82302691D01*
X89400314Y-82199987D01*
X89400315Y-82199974D01*
X89400315Y-81775001D01*
X88500315Y-81775001D01*
X88500315Y-82900000D01*
X88000314Y-82900000D01*
X88000315Y-82899999D01*
X88000315Y-81649001D01*
X88020000Y-81581962D01*
X88072804Y-81536207D01*
X88124315Y-81525001D01*
X88250315Y-81525001D01*
X88250315Y-81399001D01*
X88270000Y-81331962D01*
X88322804Y-81286207D01*
X88374315Y-81275001D01*
X89400314Y-81275001D01*
X89400314Y-80850029D01*
X89400313Y-80850014D01*
X89389821Y-80747306D01*
X89389083Y-80745079D01*
X89389032Y-80743619D01*
X89388404Y-80740682D01*
X89388927Y-80740569D01*
X89386679Y-80675251D01*
X89422409Y-80615208D01*
X89484928Y-80584013D01*
X89554388Y-80591571D01*
X89594469Y-80618390D01*
X90163496Y-81187417D01*
X90196981Y-81248740D01*
X90199815Y-81275098D01*
X90199815Y-82149586D01*
X90180130Y-82216625D01*
X90163496Y-82237267D01*
X89881601Y-82519163D01*
X89769796Y-82630967D01*
X89769794Y-82630970D01*
X89755396Y-82655909D01*
X89726358Y-82706206D01*
X89719676Y-82717779D01*
X89719674Y-82717781D01*
X89690740Y-82767894D01*
X89690739Y-82767895D01*
X89684158Y-82792455D01*
X89649814Y-82920628D01*
X89649814Y-82920630D01*
X89649814Y-83050501D01*
X89630129Y-83117540D01*
X89577325Y-83163295D01*
X89525815Y-83174501D01*
X89352445Y-83174501D01*
X89352438Y-83174502D01*
X89292831Y-83180909D01*
X89157986Y-83231203D01*
X89157979Y-83231207D01*
X89042770Y-83317453D01*
X89042767Y-83317456D01*
X88956521Y-83432665D01*
X88956517Y-83432672D01*
X88906223Y-83567518D01*
X88899816Y-83627117D01*
X88899816Y-83627124D01*
X88899815Y-83627136D01*
X88899815Y-85422871D01*
X88899816Y-85422877D01*
X88906223Y-85482484D01*
X88956517Y-85617329D01*
X88956521Y-85617336D01*
X89042767Y-85732545D01*
X89042770Y-85732548D01*
X89157979Y-85818794D01*
X89157986Y-85818798D01*
X89292832Y-85869092D01*
X89292831Y-85869092D01*
X89299759Y-85869836D01*
X89352442Y-85875501D01*
X91148187Y-85875500D01*
X91207798Y-85869092D01*
X91342646Y-85818797D01*
X91457861Y-85732547D01*
X91544111Y-85617332D01*
X91594406Y-85482484D01*
X91600815Y-85422874D01*
X91600814Y-83627129D01*
X91594406Y-83567518D01*
X91552889Y-83456206D01*
X91544112Y-83432672D01*
X91544108Y-83432665D01*
X91457862Y-83317456D01*
X91457859Y-83317453D01*
X91342650Y-83231207D01*
X91342643Y-83231203D01*
X91207797Y-83180909D01*
X91207794Y-83180908D01*
X91204106Y-83180512D01*
X91201439Y-83179407D01*
X91200253Y-83179127D01*
X91200298Y-83178934D01*
X91189647Y-83174521D01*
X91174036Y-83173405D01*
X91158029Y-83161422D01*
X91139557Y-83153769D01*
X91130631Y-83140912D01*
X91118103Y-83131533D01*
X91111116Y-83112800D01*
X91099713Y-83096374D01*
X91099155Y-83080730D01*
X91093687Y-83066068D01*
X91097937Y-83046532D01*
X91097225Y-83026549D01*
X91105411Y-83012173D01*
X91108540Y-82997795D01*
X91129685Y-82969548D01*
X91162418Y-82936815D01*
X91223740Y-82903333D01*
X91250096Y-82900500D01*
X91800317Y-82900500D01*
X91800323Y-82900500D01*
X91903112Y-82890000D01*
X92069649Y-82834815D01*
X92218971Y-82742713D01*
X92343027Y-82618657D01*
X92435129Y-82469335D01*
X92490314Y-82302798D01*
X92500815Y-82200010D01*
X92500814Y-80849993D01*
X92496951Y-80812181D01*
X92490314Y-80747204D01*
X92490313Y-80747201D01*
X92477173Y-80707547D01*
X92435129Y-80580667D01*
X92343027Y-80431345D01*
X92223863Y-80312181D01*
X92190378Y-80250858D01*
X92195362Y-80181166D01*
X92237234Y-80125233D01*
X92302698Y-80100816D01*
X92311544Y-80100500D01*
X92775501Y-80100500D01*
X92842540Y-80120185D01*
X92888295Y-80172989D01*
X92899501Y-80224500D01*
X92899501Y-80397876D01*
X92905908Y-80457483D01*
X92956202Y-80592328D01*
X92956206Y-80592335D01*
X93042452Y-80707544D01*
X93042455Y-80707547D01*
X93157664Y-80793793D01*
X93157671Y-80793797D01*
X93292517Y-80844091D01*
X93292516Y-80844091D01*
X93299444Y-80844835D01*
X93352127Y-80850500D01*
X95147872Y-80850499D01*
X95207483Y-80844091D01*
X95342331Y-80793796D01*
X95457546Y-80707546D01*
X95543796Y-80592331D01*
X95594091Y-80457483D01*
X95600500Y-80397873D01*
X95600499Y-78602128D01*
X95594091Y-78542517D01*
X95574462Y-78489890D01*
X95543797Y-78407671D01*
X95543793Y-78407664D01*
X95457547Y-78292455D01*
X95457544Y-78292452D01*
X95342335Y-78206206D01*
X95342328Y-78206202D01*
X95207482Y-78155908D01*
X95207483Y-78155908D01*
X95147883Y-78149501D01*
X95147881Y-78149500D01*
X95147873Y-78149500D01*
X95147864Y-78149500D01*
X93352129Y-78149500D01*
X93352123Y-78149501D01*
X93292516Y-78155908D01*
X93157671Y-78206202D01*
X93157664Y-78206206D01*
X93042455Y-78292452D01*
X93042452Y-78292455D01*
X92956206Y-78407664D01*
X92956202Y-78407671D01*
X92905908Y-78542517D01*
X92899501Y-78602116D01*
X92899501Y-78602123D01*
X92899500Y-78602135D01*
X92899500Y-78775500D01*
X92896949Y-78784185D01*
X92898238Y-78793147D01*
X92887259Y-78817187D01*
X92879815Y-78842539D01*
X92872974Y-78848466D01*
X92869213Y-78856703D01*
X92846978Y-78870992D01*
X92827011Y-78888294D01*
X92816496Y-78890581D01*
X92810435Y-78894477D01*
X92775500Y-78899500D01*
X92550097Y-78899500D01*
X92483058Y-78879815D01*
X92462416Y-78863181D01*
X91961417Y-78362182D01*
X91927932Y-78300859D01*
X91932916Y-78231167D01*
X91974788Y-78175234D01*
X92038356Y-78151523D01*
X92038315Y-78151098D01*
X92039923Y-78150939D01*
X92040252Y-78150817D01*
X92041690Y-78150765D01*
X92044369Y-78150501D01*
X92044375Y-78150501D01*
X92199030Y-78119738D01*
X92344712Y-78059395D01*
X92475822Y-77971790D01*
X92587322Y-77860290D01*
X92674927Y-77729180D01*
X92675809Y-77727048D01*
X92676571Y-77726103D01*
X92677795Y-77723814D01*
X92678229Y-77724046D01*
X92719648Y-77672646D01*
X92785941Y-77650579D01*
X92790371Y-77650500D01*
X92828844Y-77650500D01*
X92828845Y-77650499D01*
X92983497Y-77619737D01*
X93129179Y-77559394D01*
X93260289Y-77471789D01*
X93371789Y-77360289D01*
X93459394Y-77229179D01*
X93519737Y-77083497D01*
X93528797Y-77037949D01*
X93546231Y-76950308D01*
X93578616Y-76888397D01*
X93639332Y-76853823D01*
X93667848Y-76850500D01*
X94647903Y-76850500D01*
X94714942Y-76870185D01*
X94735584Y-76886819D01*
X96508760Y-78659995D01*
X96542245Y-78721318D01*
X96537261Y-78791010D01*
X96520345Y-78821987D01*
X96456206Y-78907664D01*
X96456202Y-78907671D01*
X96405908Y-79042517D01*
X96399501Y-79102116D01*
X96399500Y-79102135D01*
X96399500Y-80897870D01*
X96399501Y-80897876D01*
X96405908Y-80957483D01*
X96456202Y-81092328D01*
X96456206Y-81092335D01*
X96542452Y-81207544D01*
X96542455Y-81207547D01*
X96657664Y-81293793D01*
X96657671Y-81293797D01*
X96792517Y-81344091D01*
X96792516Y-81344091D01*
X96799444Y-81344835D01*
X96852127Y-81350500D01*
X98647872Y-81350499D01*
X98707483Y-81344091D01*
X98842331Y-81293796D01*
X98957546Y-81207546D01*
X99043796Y-81092331D01*
X99094091Y-80957483D01*
X99100500Y-80897873D01*
X99100499Y-79947095D01*
X99120183Y-79880057D01*
X99172987Y-79834302D01*
X99242146Y-79824358D01*
X99305702Y-79853383D01*
X99312180Y-79859415D01*
X100463965Y-81011200D01*
X100497450Y-81072523D01*
X100492466Y-81142215D01*
X100472526Y-81176097D01*
X100472759Y-81176266D01*
X100471011Y-81178670D01*
X100470578Y-81179408D01*
X100469896Y-81180206D01*
X100344951Y-81352179D01*
X100248444Y-81541585D01*
X100182753Y-81743760D01*
X100149500Y-81953713D01*
X100149500Y-82166286D01*
X100182754Y-82376244D01*
X100182754Y-82376247D01*
X100196491Y-82418523D01*
X100198486Y-82488364D01*
X100166241Y-82544522D01*
X99347584Y-83363181D01*
X99286261Y-83396666D01*
X99259903Y-83399500D01*
X98474499Y-83399500D01*
X98407460Y-83379815D01*
X98361705Y-83327011D01*
X98350499Y-83275500D01*
X98350499Y-83102129D01*
X98350498Y-83102123D01*
X98350497Y-83102116D01*
X98344091Y-83042517D01*
X98338135Y-83026549D01*
X98293797Y-82907671D01*
X98293793Y-82907664D01*
X98207547Y-82792455D01*
X98207544Y-82792452D01*
X98092335Y-82706206D01*
X98092328Y-82706202D01*
X97957482Y-82655908D01*
X97957483Y-82655908D01*
X97897883Y-82649501D01*
X97897881Y-82649500D01*
X97897873Y-82649500D01*
X97897864Y-82649500D01*
X96102129Y-82649500D01*
X96102123Y-82649501D01*
X96042516Y-82655908D01*
X95907671Y-82706202D01*
X95907664Y-82706206D01*
X95792455Y-82792452D01*
X95792452Y-82792455D01*
X95706206Y-82907664D01*
X95706202Y-82907671D01*
X95655908Y-83042517D01*
X95649501Y-83102116D01*
X95649501Y-83102123D01*
X95649500Y-83102135D01*
X95649500Y-84897870D01*
X95649501Y-84897876D01*
X95655908Y-84957483D01*
X95706202Y-85092328D01*
X95706206Y-85092335D01*
X95792452Y-85207544D01*
X95792455Y-85207547D01*
X95907664Y-85293793D01*
X95907671Y-85293797D01*
X96042517Y-85344091D01*
X96042516Y-85344091D01*
X96049444Y-85344835D01*
X96102127Y-85350500D01*
X97897872Y-85350499D01*
X97957483Y-85344091D01*
X98092331Y-85293796D01*
X98207546Y-85207546D01*
X98293796Y-85092331D01*
X98344091Y-84957483D01*
X98350500Y-84897873D01*
X98350500Y-84724500D01*
X98370185Y-84657461D01*
X98422989Y-84611706D01*
X98474500Y-84600500D01*
X99473331Y-84600500D01*
X99473347Y-84600501D01*
X99480943Y-84600501D01*
X99639054Y-84600501D01*
X99639057Y-84600501D01*
X99791785Y-84559577D01*
X99849798Y-84526083D01*
X99928716Y-84480520D01*
X99946888Y-84462347D01*
X99957623Y-84455326D01*
X99979282Y-84448776D01*
X99999142Y-84437932D01*
X100012082Y-84438857D01*
X100024502Y-84435102D01*
X100046263Y-84441301D01*
X100068834Y-84442916D01*
X100079219Y-84450691D01*
X100091698Y-84454246D01*
X100106654Y-84471228D01*
X100124767Y-84484788D01*
X100129300Y-84496942D01*
X100137876Y-84506680D01*
X100141276Y-84529051D01*
X100149184Y-84550252D01*
X100149500Y-84559098D01*
X100149500Y-84706292D01*
X100164616Y-84801728D01*
X100155662Y-84871021D01*
X100129824Y-84908807D01*
X99825451Y-85213181D01*
X99764128Y-85246666D01*
X99737770Y-85249500D01*
X99304604Y-85249500D01*
X99257155Y-85240062D01*
X99233497Y-85230263D01*
X99233493Y-85230262D01*
X99233488Y-85230260D01*
X99078845Y-85199500D01*
X99078842Y-85199500D01*
X98921158Y-85199500D01*
X98921155Y-85199500D01*
X98766510Y-85230261D01*
X98766498Y-85230264D01*
X98620827Y-85290602D01*
X98620814Y-85290609D01*
X98489711Y-85378210D01*
X98489707Y-85378213D01*
X98378213Y-85489707D01*
X98378210Y-85489711D01*
X98290609Y-85620814D01*
X98290602Y-85620827D01*
X98230264Y-85766498D01*
X98230261Y-85766510D01*
X98199500Y-85921153D01*
X98199500Y-86078846D01*
X98230261Y-86233489D01*
X98230264Y-86233501D01*
X98290602Y-86379172D01*
X98290609Y-86379185D01*
X98378210Y-86510288D01*
X98378213Y-86510292D01*
X98489707Y-86621786D01*
X98489711Y-86621789D01*
X98620814Y-86709390D01*
X98620827Y-86709397D01*
X98720060Y-86750500D01*
X98766503Y-86769737D01*
X98921153Y-86800499D01*
X98921156Y-86800500D01*
X98921158Y-86800500D01*
X99078844Y-86800500D01*
X99078845Y-86800499D01*
X99155152Y-86785320D01*
X99233488Y-86769739D01*
X99233489Y-86769738D01*
X99233497Y-86769737D01*
X99257155Y-86759937D01*
X99304604Y-86750500D01*
X100173920Y-86750500D01*
X100271462Y-86731096D01*
X100318913Y-86721658D01*
X100455495Y-86665084D01*
X100520291Y-86621789D01*
X100520294Y-86621786D01*
X100520296Y-86621786D01*
X100549547Y-86602240D01*
X100578416Y-86582952D01*
X101191194Y-85970172D01*
X101252515Y-85936689D01*
X101298265Y-85935382D01*
X101393713Y-85950500D01*
X101393715Y-85950500D01*
X101606286Y-85950500D01*
X101606287Y-85950500D01*
X101816243Y-85917246D01*
X102018412Y-85851557D01*
X102207816Y-85755051D01*
X102329602Y-85666569D01*
X102379786Y-85630109D01*
X102379788Y-85630106D01*
X102379792Y-85630104D01*
X102530104Y-85479792D01*
X102530106Y-85479788D01*
X102530109Y-85479786D01*
X102655048Y-85307820D01*
X102655047Y-85307820D01*
X102655051Y-85307816D01*
X102659514Y-85299054D01*
X102707488Y-85248259D01*
X102775308Y-85231463D01*
X102841444Y-85253999D01*
X102880486Y-85299056D01*
X102884951Y-85307820D01*
X103009890Y-85479786D01*
X103160213Y-85630109D01*
X103332179Y-85755048D01*
X103332181Y-85755049D01*
X103332184Y-85755051D01*
X103521588Y-85851557D01*
X103723757Y-85917246D01*
X103933713Y-85950500D01*
X103933714Y-85950500D01*
X104146286Y-85950500D01*
X104146287Y-85950500D01*
X104356243Y-85917246D01*
X104558412Y-85851557D01*
X104747816Y-85755051D01*
X104869602Y-85666569D01*
X104919786Y-85630109D01*
X104919788Y-85630106D01*
X104919792Y-85630104D01*
X105070104Y-85479792D01*
X105070106Y-85479788D01*
X105070109Y-85479786D01*
X105195048Y-85307820D01*
X105195047Y-85307820D01*
X105195051Y-85307816D01*
X105291557Y-85118412D01*
X105357246Y-84916243D01*
X105390500Y-84706287D01*
X105390500Y-84493713D01*
X105357246Y-84283757D01*
X105291557Y-84081588D01*
X105195051Y-83892184D01*
X105195049Y-83892181D01*
X105195048Y-83892179D01*
X105070109Y-83720213D01*
X104919786Y-83569890D01*
X104747820Y-83444951D01*
X104747115Y-83444591D01*
X104739054Y-83440485D01*
X104688259Y-83392512D01*
X104671463Y-83324692D01*
X104693999Y-83258556D01*
X104739054Y-83219515D01*
X104747816Y-83215051D01*
X104790212Y-83184249D01*
X104919786Y-83090109D01*
X104919788Y-83090106D01*
X104919792Y-83090104D01*
X105070104Y-82939792D01*
X105070106Y-82939788D01*
X105070109Y-82939786D01*
X105195048Y-82767820D01*
X105195047Y-82767820D01*
X105195051Y-82767816D01*
X105291557Y-82578412D01*
X105357246Y-82376243D01*
X105390500Y-82166287D01*
X105390500Y-81953713D01*
X105357246Y-81743757D01*
X105291557Y-81541588D01*
X105195051Y-81352184D01*
X105195049Y-81352181D01*
X105195048Y-81352179D01*
X105070109Y-81180213D01*
X104919786Y-81029890D01*
X104747820Y-80904951D01*
X104747115Y-80904591D01*
X104739054Y-80900485D01*
X104688259Y-80852512D01*
X104671463Y-80784692D01*
X104693999Y-80718556D01*
X104739054Y-80679515D01*
X104747816Y-80675051D01*
X104825804Y-80618390D01*
X104919786Y-80550109D01*
X104919788Y-80550106D01*
X104919792Y-80550104D01*
X105070104Y-80399792D01*
X105070106Y-80399788D01*
X105070109Y-80399786D01*
X105195048Y-80227820D01*
X105195047Y-80227820D01*
X105195051Y-80227816D01*
X105291557Y-80038412D01*
X105357246Y-79836243D01*
X105390500Y-79626287D01*
X105390500Y-79413713D01*
X105357246Y-79203757D01*
X105291557Y-79001588D01*
X105195051Y-78812184D01*
X105195049Y-78812181D01*
X105195048Y-78812179D01*
X105070109Y-78640213D01*
X104919786Y-78489890D01*
X104747820Y-78364951D01*
X104741449Y-78361705D01*
X104739054Y-78360485D01*
X104688259Y-78312512D01*
X104671463Y-78244692D01*
X104693999Y-78178556D01*
X104739054Y-78139515D01*
X104747816Y-78135051D01*
X104798068Y-78098541D01*
X104919786Y-78010109D01*
X104919788Y-78010106D01*
X104919792Y-78010104D01*
X105070104Y-77859792D01*
X105070106Y-77859788D01*
X105070109Y-77859786D01*
X105195048Y-77687820D01*
X105195047Y-77687820D01*
X105195051Y-77687816D01*
X105291557Y-77498412D01*
X105357246Y-77296243D01*
X105390500Y-77086287D01*
X105390500Y-76873713D01*
X105357246Y-76663757D01*
X105291557Y-76461588D01*
X105195051Y-76272184D01*
X105195049Y-76272181D01*
X105195048Y-76272179D01*
X105070109Y-76100213D01*
X104919786Y-75949890D01*
X104747820Y-75824951D01*
X104747115Y-75824591D01*
X104739054Y-75820485D01*
X104688259Y-75772512D01*
X104671463Y-75704692D01*
X104693999Y-75638556D01*
X104739054Y-75599515D01*
X104747816Y-75595051D01*
X104781535Y-75570553D01*
X104919786Y-75470109D01*
X104919788Y-75470106D01*
X104919792Y-75470104D01*
X105070104Y-75319792D01*
X105070116Y-75319774D01*
X105070603Y-75319206D01*
X105070853Y-75319042D01*
X105073549Y-75316347D01*
X105074114Y-75316912D01*
X105129107Y-75281008D01*
X105198974Y-75280502D01*
X105258024Y-75317851D01*
X105279462Y-75352276D01*
X105290604Y-75379175D01*
X105290609Y-75379185D01*
X105378210Y-75510288D01*
X105378213Y-75510292D01*
X105489707Y-75621786D01*
X105489711Y-75621789D01*
X105620814Y-75709390D01*
X105620827Y-75709397D01*
X105758693Y-75766502D01*
X105766503Y-75769737D01*
X105921153Y-75800499D01*
X105921156Y-75800500D01*
X105921158Y-75800500D01*
X106078844Y-75800500D01*
X106078845Y-75800499D01*
X106233497Y-75769737D01*
X106379179Y-75709394D01*
X106510289Y-75621789D01*
X106621789Y-75510289D01*
X106709394Y-75379179D01*
X106711222Y-75374767D01*
X106723067Y-75346166D01*
X106769737Y-75233497D01*
X106800500Y-75078842D01*
X106800500Y-74921158D01*
X106800500Y-74921155D01*
X106800499Y-74921153D01*
X106769738Y-74766510D01*
X106769737Y-74766503D01*
X106744761Y-74706204D01*
X106709397Y-74620827D01*
X106709390Y-74620814D01*
X106696398Y-74601370D01*
X106675520Y-74534692D01*
X106675500Y-74532479D01*
X106675500Y-73793468D01*
X106674014Y-73785998D01*
X106671727Y-73774500D01*
X106649541Y-73662964D01*
X106612897Y-73574500D01*
X106598620Y-73540031D01*
X106588688Y-73525167D01*
X106524698Y-73429398D01*
X106524697Y-73429397D01*
X106524695Y-73429394D01*
X106430606Y-73335305D01*
X105395673Y-72300372D01*
X105362188Y-72239049D01*
X105360881Y-72193293D01*
X105390500Y-72006286D01*
X105390500Y-71793713D01*
X105376615Y-71706050D01*
X105357246Y-71583757D01*
X105291557Y-71381588D01*
X105195051Y-71192184D01*
X105195049Y-71192181D01*
X105195048Y-71192179D01*
X105070109Y-71020213D01*
X104919786Y-70869890D01*
X104747820Y-70744951D01*
X104747115Y-70744591D01*
X104739054Y-70740485D01*
X104688259Y-70692512D01*
X104671463Y-70624692D01*
X104693999Y-70558556D01*
X104739054Y-70519515D01*
X104747816Y-70515051D01*
X104769789Y-70499086D01*
X104919786Y-70390109D01*
X104919788Y-70390106D01*
X104919792Y-70390104D01*
X105070104Y-70239792D01*
X105070106Y-70239788D01*
X105070109Y-70239786D01*
X105195048Y-70067820D01*
X105195047Y-70067820D01*
X105195051Y-70067816D01*
X105291557Y-69878412D01*
X105357246Y-69676243D01*
X105390500Y-69466287D01*
X105390500Y-69253713D01*
X105357246Y-69043757D01*
X105333870Y-68971816D01*
X105331876Y-68901977D01*
X105367956Y-68842144D01*
X105430657Y-68811316D01*
X105451802Y-68809500D01*
X105932532Y-68809500D01*
X105950371Y-68805951D01*
X105965797Y-68802882D01*
X105989989Y-68800500D01*
X106078844Y-68800500D01*
X106078845Y-68800499D01*
X106233497Y-68769737D01*
X106379179Y-68709394D01*
X106510289Y-68621789D01*
X106621789Y-68510289D01*
X106709394Y-68379179D01*
X106769737Y-68233497D01*
X106800500Y-68078842D01*
X106800500Y-67921158D01*
X106800500Y-67921155D01*
X106800499Y-67921153D01*
X106769738Y-67766510D01*
X106769737Y-67766503D01*
X106742081Y-67699734D01*
X106709397Y-67620827D01*
X106709390Y-67620814D01*
X106621789Y-67489711D01*
X106621786Y-67489707D01*
X106510292Y-67378213D01*
X106510288Y-67378210D01*
X106379185Y-67290609D01*
X106379172Y-67290602D01*
X106233501Y-67230264D01*
X106233489Y-67230261D01*
X106078845Y-67199500D01*
X106078842Y-67199500D01*
X105921158Y-67199500D01*
X105921155Y-67199500D01*
X105766510Y-67230261D01*
X105766498Y-67230264D01*
X105620827Y-67290602D01*
X105620816Y-67290608D01*
X105517410Y-67359702D01*
X105450733Y-67380579D01*
X105383353Y-67362094D01*
X105336663Y-67310115D01*
X105325487Y-67241145D01*
X105330585Y-67218294D01*
X105357246Y-67136243D01*
X105390500Y-66926287D01*
X105390500Y-66713713D01*
X105357246Y-66503757D01*
X105291557Y-66301588D01*
X105195051Y-66112184D01*
X105195049Y-66112181D01*
X105195048Y-66112179D01*
X105070109Y-65940213D01*
X104919786Y-65789890D01*
X104747820Y-65664951D01*
X104747115Y-65664591D01*
X104739054Y-65660485D01*
X104688259Y-65612512D01*
X104671463Y-65544692D01*
X104693999Y-65478556D01*
X104739054Y-65439515D01*
X104747816Y-65435051D01*
X104798974Y-65397883D01*
X104919786Y-65310109D01*
X104919788Y-65310106D01*
X104919792Y-65310104D01*
X105070104Y-65159792D01*
X105070106Y-65159788D01*
X105070109Y-65159786D01*
X105195048Y-64987820D01*
X105195047Y-64987820D01*
X105195051Y-64987816D01*
X105291557Y-64798412D01*
X105357246Y-64596243D01*
X105390500Y-64386287D01*
X105390500Y-64173713D01*
X105357246Y-63963757D01*
X105291557Y-63761588D01*
X105195051Y-63572184D01*
X105195049Y-63572181D01*
X105195048Y-63572179D01*
X105070109Y-63400213D01*
X104919786Y-63249890D01*
X104747820Y-63124951D01*
X104747115Y-63124591D01*
X104739054Y-63120485D01*
X104688259Y-63072512D01*
X104671463Y-63004692D01*
X104693999Y-62938556D01*
X104739054Y-62899515D01*
X104747816Y-62895051D01*
X104860244Y-62813368D01*
X104919786Y-62770109D01*
X104919788Y-62770106D01*
X104919792Y-62770104D01*
X105070104Y-62619792D01*
X105070106Y-62619788D01*
X105070109Y-62619786D01*
X105195048Y-62447820D01*
X105195050Y-62447817D01*
X105195051Y-62447816D01*
X105291557Y-62258412D01*
X105357246Y-62056243D01*
X105390500Y-61846287D01*
X105390500Y-61633713D01*
X105357246Y-61423757D01*
X105291557Y-61221588D01*
X105195051Y-61032184D01*
X105195049Y-61032181D01*
X105195048Y-61032179D01*
X105070109Y-60860213D01*
X105051126Y-60841230D01*
X105017641Y-60779907D01*
X105022625Y-60710215D01*
X105051126Y-60665868D01*
X105067494Y-60649500D01*
X105559713Y-60157281D01*
X105559716Y-60157280D01*
X105671520Y-60045476D01*
X105721639Y-59958664D01*
X105750577Y-59908545D01*
X105791500Y-59755817D01*
X105791500Y-59597703D01*
X105791500Y-57900060D01*
X105791501Y-57900047D01*
X105791501Y-57731945D01*
X105791501Y-57731943D01*
X105750577Y-57579215D01*
X105721639Y-57529095D01*
X105671520Y-57442284D01*
X105559716Y-57330480D01*
X105559715Y-57330479D01*
X105555385Y-57326149D01*
X105555374Y-57326139D01*
X105373757Y-57144522D01*
X105340272Y-57083199D01*
X105343507Y-57018523D01*
X105357246Y-56976243D01*
X105390500Y-56766287D01*
X105390500Y-56553713D01*
X105357246Y-56343757D01*
X105291557Y-56141588D01*
X105195051Y-55952184D01*
X105195049Y-55952181D01*
X105195048Y-55952179D01*
X105070109Y-55780213D01*
X104919790Y-55629894D01*
X104919785Y-55629890D01*
X104759732Y-55513605D01*
X104717066Y-55458275D01*
X104711087Y-55388662D01*
X104743693Y-55326867D01*
X104804531Y-55292510D01*
X104831176Y-55289296D01*
X107624080Y-55257194D01*
X107691336Y-55276106D01*
G37*
%TD.AperFunction*%
%TA.AperFunction,Conductor*%
G36*
X80641944Y-80620185D02*
G01*
X80687699Y-80672989D01*
X80697643Y-80742147D01*
X80668618Y-80805703D01*
X80662592Y-80812174D01*
X80517284Y-80957482D01*
X80418287Y-81056479D01*
X80418284Y-81056482D01*
X80366814Y-81107951D01*
X78211681Y-83263084D01*
X78150358Y-83296569D01*
X78080666Y-83291585D01*
X78024733Y-83249713D01*
X78000316Y-83184249D01*
X78000000Y-83175403D01*
X78000000Y-80724500D01*
X78019685Y-80657461D01*
X78072489Y-80611706D01*
X78124000Y-80600500D01*
X80574905Y-80600500D01*
X80641944Y-80620185D01*
G37*
%TD.AperFunction*%
%TA.AperFunction,Conductor*%
G36*
X78162995Y-76120379D02*
G01*
X78222203Y-76139999D01*
X78324991Y-76150500D01*
X79249902Y-76150499D01*
X79316941Y-76170183D01*
X79337583Y-76186818D01*
X79613181Y-76462416D01*
X79646666Y-76523739D01*
X79649500Y-76550097D01*
X79649500Y-76826000D01*
X79629815Y-76893039D01*
X79577011Y-76938794D01*
X79525500Y-76950000D01*
X79250000Y-76950000D01*
X79250000Y-77976000D01*
X79230315Y-78043039D01*
X79177511Y-78088794D01*
X79126000Y-78100000D01*
X78874000Y-78100000D01*
X78806961Y-78080315D01*
X78761206Y-78027511D01*
X78750000Y-77976000D01*
X78750000Y-76950000D01*
X78325028Y-76950000D01*
X78325012Y-76950001D01*
X78222302Y-76960494D01*
X78163004Y-76980144D01*
X78093176Y-76982546D01*
X78033134Y-76946814D01*
X78001941Y-76884294D01*
X78000000Y-76862438D01*
X78000000Y-76238087D01*
X78019685Y-76171048D01*
X78072489Y-76125293D01*
X78141647Y-76115349D01*
X78162995Y-76120379D01*
G37*
%TD.AperFunction*%
%TA.AperFunction,Conductor*%
G36*
X100707768Y-55356377D02*
G01*
X100754127Y-55408652D01*
X100764865Y-55477691D01*
X100738953Y-55536197D01*
X100738282Y-55544728D01*
X101370591Y-56177037D01*
X101307007Y-56194075D01*
X101192993Y-56259901D01*
X101099901Y-56352993D01*
X101034075Y-56467007D01*
X101017037Y-56530591D01*
X100384728Y-55898282D01*
X100384727Y-55898282D01*
X100345380Y-55952439D01*
X100248904Y-56141782D01*
X100183242Y-56343869D01*
X100183242Y-56343872D01*
X100150000Y-56553753D01*
X100150000Y-56766246D01*
X100183242Y-56976127D01*
X100183242Y-56976130D01*
X100248904Y-57178217D01*
X100345375Y-57367550D01*
X100384728Y-57421716D01*
X101017037Y-56789408D01*
X101034075Y-56852993D01*
X101099901Y-56967007D01*
X101192993Y-57060099D01*
X101307007Y-57125925D01*
X101370590Y-57142962D01*
X100738282Y-57775269D01*
X100738282Y-57775270D01*
X100792452Y-57814626D01*
X100792451Y-57814626D01*
X100801495Y-57819234D01*
X100852292Y-57867208D01*
X100869087Y-57935029D01*
X100846550Y-58001164D01*
X100801499Y-58040202D01*
X100792182Y-58044949D01*
X100620213Y-58169890D01*
X100469890Y-58320213D01*
X100344951Y-58492179D01*
X100248444Y-58681585D01*
X100182753Y-58883760D01*
X100149500Y-59093713D01*
X100149500Y-59306286D01*
X100176020Y-59473731D01*
X100182754Y-59516243D01*
X100223900Y-59642878D01*
X100248444Y-59718414D01*
X100344951Y-59907820D01*
X100469890Y-60079786D01*
X100488873Y-60098769D01*
X100522358Y-60160092D01*
X100517374Y-60229784D01*
X100488873Y-60274131D01*
X99399824Y-61363181D01*
X99338501Y-61396666D01*
X99312143Y-61399500D01*
X98311571Y-61399500D01*
X98244532Y-61379815D01*
X98198777Y-61327011D01*
X98188833Y-61257853D01*
X98212305Y-61201189D01*
X98293793Y-61092335D01*
X98293792Y-61092335D01*
X98293796Y-61092331D01*
X98344091Y-60957483D01*
X98350500Y-60897873D01*
X98350499Y-59102128D01*
X98344091Y-59042517D01*
X98332892Y-59012492D01*
X98293797Y-58907671D01*
X98293793Y-58907664D01*
X98207547Y-58792455D01*
X98207544Y-58792452D01*
X98092335Y-58706206D01*
X98092328Y-58706202D01*
X97957482Y-58655908D01*
X97957483Y-58655908D01*
X97897883Y-58649501D01*
X97897881Y-58649500D01*
X97897873Y-58649500D01*
X97897864Y-58649500D01*
X96102129Y-58649500D01*
X96102123Y-58649501D01*
X96042516Y-58655908D01*
X95907671Y-58706202D01*
X95907664Y-58706206D01*
X95792455Y-58792452D01*
X95792452Y-58792455D01*
X95706206Y-58907664D01*
X95706202Y-58907671D01*
X95655908Y-59042517D01*
X95649501Y-59102116D01*
X95649501Y-59102123D01*
X95649500Y-59102135D01*
X95649500Y-60897870D01*
X95649501Y-60897876D01*
X95655908Y-60957483D01*
X95706202Y-61092328D01*
X95706206Y-61092335D01*
X95787695Y-61201189D01*
X95812113Y-61266653D01*
X95797262Y-61334926D01*
X95747857Y-61384332D01*
X95688429Y-61399500D01*
X94474499Y-61399500D01*
X94407460Y-61379815D01*
X94361705Y-61327011D01*
X94350499Y-61275500D01*
X94350499Y-61102129D01*
X94350498Y-61102123D01*
X94350497Y-61102116D01*
X94344091Y-61042517D01*
X94340235Y-61032179D01*
X94293797Y-60907671D01*
X94293793Y-60907664D01*
X94207547Y-60792455D01*
X94207544Y-60792452D01*
X94092335Y-60706206D01*
X94092328Y-60706202D01*
X93957482Y-60655908D01*
X93957483Y-60655908D01*
X93897883Y-60649501D01*
X93897881Y-60649500D01*
X93897873Y-60649500D01*
X93897864Y-60649500D01*
X92102129Y-60649500D01*
X92102123Y-60649501D01*
X92042516Y-60655908D01*
X91907671Y-60706202D01*
X91907664Y-60706206D01*
X91792455Y-60792452D01*
X91792452Y-60792455D01*
X91706206Y-60907664D01*
X91706202Y-60907671D01*
X91655908Y-61042517D01*
X91649501Y-61102116D01*
X91649501Y-61102123D01*
X91649500Y-61102135D01*
X91649500Y-62897870D01*
X91649501Y-62897876D01*
X91655908Y-62957483D01*
X91706202Y-63092328D01*
X91706206Y-63092335D01*
X91792452Y-63207544D01*
X91792455Y-63207547D01*
X91907664Y-63293793D01*
X91907671Y-63293797D01*
X92042517Y-63344091D01*
X92042516Y-63344091D01*
X92049444Y-63344835D01*
X92102127Y-63350500D01*
X93897872Y-63350499D01*
X93957483Y-63344091D01*
X94092331Y-63293796D01*
X94207546Y-63207546D01*
X94293796Y-63092331D01*
X94344091Y-62957483D01*
X94350500Y-62897873D01*
X94350500Y-62724500D01*
X94370185Y-62657461D01*
X94422989Y-62611706D01*
X94474500Y-62600500D01*
X95688429Y-62600500D01*
X95755468Y-62620185D01*
X95801223Y-62672989D01*
X95811167Y-62742147D01*
X95787695Y-62798811D01*
X95706206Y-62907664D01*
X95706202Y-62907671D01*
X95655908Y-63042517D01*
X95649501Y-63102116D01*
X95649501Y-63102123D01*
X95649500Y-63102135D01*
X95649500Y-64897870D01*
X95649501Y-64897876D01*
X95655908Y-64957483D01*
X95706202Y-65092328D01*
X95710454Y-65100114D01*
X95708262Y-65101310D01*
X95728048Y-65154361D01*
X95713195Y-65222634D01*
X95668928Y-65269070D01*
X95660701Y-65274087D01*
X95620821Y-65290606D01*
X95489711Y-65378211D01*
X95489306Y-65378615D01*
X95484798Y-65381365D01*
X95453432Y-65389778D01*
X95422447Y-65399480D01*
X95420234Y-65399500D01*
X94474499Y-65399500D01*
X94407460Y-65379815D01*
X94361705Y-65327011D01*
X94350499Y-65275500D01*
X94350499Y-65102129D01*
X94350498Y-65102123D01*
X94350497Y-65102116D01*
X94344091Y-65042517D01*
X94323690Y-64987820D01*
X94293797Y-64907671D01*
X94293793Y-64907664D01*
X94207547Y-64792455D01*
X94207544Y-64792452D01*
X94092335Y-64706206D01*
X94092328Y-64706202D01*
X93957482Y-64655908D01*
X93957483Y-64655908D01*
X93897883Y-64649501D01*
X93897881Y-64649500D01*
X93897873Y-64649500D01*
X93897864Y-64649500D01*
X92102129Y-64649500D01*
X92102123Y-64649501D01*
X92042516Y-64655908D01*
X91907671Y-64706202D01*
X91907664Y-64706206D01*
X91792455Y-64792452D01*
X91792452Y-64792455D01*
X91706206Y-64907664D01*
X91706202Y-64907671D01*
X91655908Y-65042517D01*
X91650553Y-65092331D01*
X91649501Y-65102123D01*
X91649500Y-65102135D01*
X91649500Y-66897870D01*
X91649501Y-66897876D01*
X91655908Y-66957483D01*
X91706202Y-67092328D01*
X91706206Y-67092335D01*
X91792452Y-67207544D01*
X91792455Y-67207547D01*
X91907664Y-67293793D01*
X91907671Y-67293797D01*
X92042517Y-67344091D01*
X92042516Y-67344091D01*
X92049444Y-67344835D01*
X92102127Y-67350500D01*
X93897872Y-67350499D01*
X93957483Y-67344091D01*
X94092331Y-67293796D01*
X94207546Y-67207546D01*
X94293796Y-67092331D01*
X94344091Y-66957483D01*
X94350500Y-66897873D01*
X94350500Y-66724500D01*
X94370185Y-66657461D01*
X94422989Y-66611706D01*
X94474500Y-66600500D01*
X95420234Y-66600500D01*
X95436624Y-66605103D01*
X95452356Y-66604733D01*
X95480140Y-66617325D01*
X95484798Y-66618634D01*
X95489304Y-66621382D01*
X95489711Y-66621789D01*
X95620821Y-66709394D01*
X95660711Y-66725917D01*
X95668928Y-66730928D01*
X95686212Y-66749951D01*
X95706220Y-66766074D01*
X95709317Y-66775379D01*
X95715914Y-66782640D01*
X95720170Y-66807986D01*
X95728285Y-66832368D01*
X95725859Y-66841870D01*
X95727484Y-66851545D01*
X95717360Y-66875169D01*
X95711006Y-66900067D01*
X95707442Y-66905401D01*
X95706202Y-66907671D01*
X95655908Y-67042517D01*
X95649501Y-67102116D01*
X95649501Y-67102123D01*
X95649500Y-67102135D01*
X95649500Y-68897870D01*
X95649501Y-68897876D01*
X95655908Y-68957483D01*
X95706202Y-69092328D01*
X95706206Y-69092335D01*
X95792452Y-69207544D01*
X95792455Y-69207547D01*
X95907664Y-69293793D01*
X95907671Y-69293797D01*
X95946878Y-69308420D01*
X96042517Y-69344091D01*
X96102127Y-69350500D01*
X96449900Y-69350499D01*
X96479342Y-69359143D01*
X96509326Y-69365666D01*
X96514341Y-69369420D01*
X96516939Y-69370183D01*
X96537566Y-69386806D01*
X96537581Y-69386817D01*
X96631284Y-69480520D01*
X96631286Y-69480521D01*
X97588584Y-70437819D01*
X97622069Y-70499142D01*
X97617085Y-70568834D01*
X97575213Y-70624767D01*
X97509749Y-70649184D01*
X97500903Y-70649500D01*
X96102129Y-70649500D01*
X96102123Y-70649501D01*
X96042516Y-70655908D01*
X95907671Y-70706202D01*
X95907664Y-70706206D01*
X95792455Y-70792452D01*
X95792452Y-70792455D01*
X95706206Y-70907664D01*
X95706202Y-70907671D01*
X95655908Y-71042517D01*
X95649501Y-71102116D01*
X95649500Y-71102135D01*
X95649500Y-71989240D01*
X95629815Y-72056279D01*
X95577011Y-72102034D01*
X95507853Y-72111978D01*
X95456610Y-72092342D01*
X95379190Y-72040612D01*
X95379172Y-72040602D01*
X95233501Y-71980264D01*
X95233489Y-71980261D01*
X95078845Y-71949500D01*
X95078842Y-71949500D01*
X94921158Y-71949500D01*
X94921155Y-71949500D01*
X94766510Y-71980261D01*
X94766498Y-71980264D01*
X94620827Y-72040602D01*
X94620814Y-72040609D01*
X94489711Y-72128210D01*
X94489707Y-72128213D01*
X94378213Y-72239707D01*
X94378210Y-72239711D01*
X94290609Y-72370814D01*
X94290602Y-72370827D01*
X94230264Y-72516498D01*
X94230261Y-72516510D01*
X94199500Y-72671153D01*
X94199500Y-72828846D01*
X94230261Y-72983489D01*
X94230264Y-72983501D01*
X94290602Y-73129172D01*
X94290609Y-73129185D01*
X94378210Y-73260288D01*
X94378213Y-73260292D01*
X94489707Y-73371786D01*
X94489711Y-73371789D01*
X94620814Y-73459390D01*
X94620827Y-73459397D01*
X94745050Y-73510851D01*
X94766503Y-73519737D01*
X94831147Y-73532595D01*
X94921849Y-73550638D01*
X94983760Y-73583023D01*
X94985339Y-73584574D01*
X95695586Y-74294821D01*
X95729071Y-74356144D01*
X95724087Y-74425836D01*
X95682215Y-74481769D01*
X95616751Y-74506186D01*
X95560453Y-74497063D01*
X95457766Y-74454529D01*
X95457754Y-74454526D01*
X95303110Y-74423765D01*
X95303107Y-74423765D01*
X95145423Y-74423765D01*
X95145420Y-74423765D01*
X94990775Y-74454526D01*
X94990763Y-74454529D01*
X94845092Y-74514867D01*
X94845079Y-74514874D01*
X94713976Y-74602475D01*
X94713972Y-74602478D01*
X94602478Y-74713972D01*
X94602475Y-74713976D01*
X94514874Y-74845079D01*
X94514867Y-74845092D01*
X94483032Y-74921952D01*
X94439192Y-74976356D01*
X94372898Y-74998421D01*
X94368471Y-74998500D01*
X93619502Y-74998500D01*
X93552463Y-74978815D01*
X93506708Y-74926011D01*
X93496144Y-74861896D01*
X93500000Y-74824151D01*
X93500001Y-74824141D01*
X93500001Y-74725000D01*
X92649001Y-74725000D01*
X92581962Y-74705315D01*
X92536207Y-74652511D01*
X92525001Y-74601000D01*
X92525001Y-74349000D01*
X92544686Y-74281961D01*
X92597490Y-74236206D01*
X92649001Y-74225000D01*
X93500000Y-74225000D01*
X93500000Y-74125860D01*
X93499999Y-74125845D01*
X93489681Y-74024847D01*
X93435454Y-73861199D01*
X93435449Y-73861188D01*
X93344948Y-73714465D01*
X93344945Y-73714461D01*
X93331018Y-73700534D01*
X93297533Y-73639211D01*
X93302517Y-73569519D01*
X93331018Y-73525172D01*
X93345341Y-73510850D01*
X93435909Y-73364016D01*
X93490175Y-73200253D01*
X93500501Y-73099177D01*
X93500500Y-72986435D01*
X93502883Y-72962242D01*
X93525501Y-72848542D01*
X93525501Y-72651456D01*
X93502883Y-72537752D01*
X93500500Y-72513560D01*
X93500500Y-72400830D01*
X93500499Y-72400813D01*
X93490175Y-72299747D01*
X93481471Y-72273481D01*
X93435909Y-72135984D01*
X93345341Y-71989150D01*
X93223351Y-71867160D01*
X93076517Y-71776592D01*
X92912754Y-71722326D01*
X92912752Y-71722325D01*
X92811679Y-71712000D01*
X92238331Y-71712000D01*
X92238313Y-71712001D01*
X92137248Y-71722325D01*
X91973485Y-71776592D01*
X91973482Y-71776593D01*
X91826649Y-71867161D01*
X91704662Y-71989148D01*
X91614094Y-72135981D01*
X91614092Y-72135986D01*
X91587498Y-72216243D01*
X91559827Y-72299747D01*
X91559827Y-72299748D01*
X91559826Y-72299748D01*
X91549501Y-72400815D01*
X91549501Y-72513564D01*
X91547118Y-72537756D01*
X91524501Y-72651456D01*
X91524501Y-72848544D01*
X91547118Y-72962247D01*
X91549501Y-72986437D01*
X91549501Y-73099168D01*
X91549502Y-73099187D01*
X91559826Y-73200252D01*
X91594365Y-73304480D01*
X91607490Y-73344091D01*
X91614093Y-73364015D01*
X91614094Y-73364018D01*
X91618887Y-73371789D01*
X91704660Y-73510849D01*
X91704662Y-73510851D01*
X91718983Y-73525172D01*
X91752468Y-73586495D01*
X91747484Y-73656187D01*
X91718986Y-73700532D01*
X91705053Y-73714465D01*
X91614552Y-73861188D01*
X91614548Y-73861197D01*
X91596828Y-73914673D01*
X91557055Y-73972118D01*
X91492538Y-73998940D01*
X91423763Y-73986625D01*
X91372563Y-73939081D01*
X91362940Y-73919000D01*
X91343797Y-73867674D01*
X91343792Y-73867665D01*
X91257546Y-73752456D01*
X91257543Y-73752453D01*
X91142334Y-73666207D01*
X91142327Y-73666203D01*
X91007481Y-73615909D01*
X91007482Y-73615909D01*
X90947882Y-73609502D01*
X90947880Y-73609501D01*
X90947872Y-73609501D01*
X90947864Y-73609501D01*
X90514940Y-73609501D01*
X90447901Y-73589816D01*
X90402146Y-73537012D01*
X90390940Y-73485501D01*
X90390940Y-73052130D01*
X90390939Y-73052124D01*
X90390938Y-73052117D01*
X90384532Y-72992518D01*
X90382117Y-72986044D01*
X90358759Y-72923416D01*
X90350941Y-72880083D01*
X90350941Y-72364656D01*
X90370626Y-72297617D01*
X90387255Y-72276980D01*
X91580479Y-71083755D01*
X91641800Y-71050272D01*
X91706474Y-71053506D01*
X91748758Y-71067246D01*
X91958714Y-71100500D01*
X91958715Y-71100500D01*
X92171287Y-71100500D01*
X92171288Y-71100500D01*
X92381244Y-71067246D01*
X92583413Y-71001557D01*
X92772817Y-70905051D01*
X92846318Y-70851650D01*
X92944787Y-70780109D01*
X92944789Y-70780106D01*
X92944793Y-70780104D01*
X93095105Y-70629792D01*
X93095107Y-70629788D01*
X93095110Y-70629786D01*
X93220049Y-70457820D01*
X93220048Y-70457820D01*
X93220052Y-70457816D01*
X93316558Y-70268412D01*
X93382247Y-70066243D01*
X93415501Y-69856287D01*
X93415501Y-69643713D01*
X93382247Y-69433757D01*
X93316558Y-69231588D01*
X93220052Y-69042184D01*
X93220050Y-69042181D01*
X93220049Y-69042179D01*
X93095110Y-68870213D01*
X92944787Y-68719890D01*
X92772821Y-68594951D01*
X92583415Y-68498444D01*
X92583414Y-68498443D01*
X92583413Y-68498443D01*
X92381244Y-68432754D01*
X92381242Y-68432753D01*
X92381241Y-68432753D01*
X92219958Y-68407208D01*
X92171288Y-68399500D01*
X91958714Y-68399500D01*
X91910043Y-68407208D01*
X91748761Y-68432753D01*
X91546586Y-68498444D01*
X91357180Y-68594951D01*
X91185216Y-68719889D01*
X91071674Y-68833431D01*
X91010351Y-68866915D01*
X90940659Y-68861931D01*
X90884726Y-68820059D01*
X90867811Y-68789082D01*
X90818798Y-68657671D01*
X90818794Y-68657664D01*
X90732548Y-68542455D01*
X90732545Y-68542452D01*
X90617336Y-68456206D01*
X90617329Y-68456202D01*
X90482483Y-68405908D01*
X90482484Y-68405908D01*
X90422884Y-68399501D01*
X90422882Y-68399500D01*
X90422874Y-68399500D01*
X90422865Y-68399500D01*
X88627130Y-68399500D01*
X88627124Y-68399501D01*
X88567517Y-68405908D01*
X88432672Y-68456202D01*
X88432665Y-68456206D01*
X88317456Y-68542452D01*
X88317453Y-68542455D01*
X88231207Y-68657664D01*
X88231203Y-68657671D01*
X88180909Y-68792517D01*
X88174502Y-68852116D01*
X88174501Y-68852135D01*
X88174501Y-70647870D01*
X88174502Y-70647876D01*
X88180909Y-70707483D01*
X88228582Y-70835301D01*
X88228583Y-70835302D01*
X88231205Y-70842331D01*
X88317455Y-70957546D01*
X88432669Y-71043795D01*
X88432672Y-71043797D01*
X88569148Y-71094699D01*
X88625082Y-71136570D01*
X88649499Y-71202034D01*
X88649815Y-71210881D01*
X88649815Y-72478711D01*
X88649168Y-72480914D01*
X88649736Y-72483140D01*
X88639371Y-72514276D01*
X88630130Y-72545750D01*
X88628394Y-72547253D01*
X88627669Y-72549434D01*
X88602115Y-72570024D01*
X88577326Y-72591505D01*
X88574493Y-72592281D01*
X88573264Y-72593273D01*
X88539066Y-72602001D01*
X88513378Y-72604762D01*
X88486872Y-72604761D01*
X88461182Y-72601999D01*
X88396631Y-72575261D01*
X88356783Y-72517869D01*
X88350437Y-72478710D01*
X88350437Y-71926496D01*
X88350438Y-71926483D01*
X88350438Y-71758381D01*
X88350438Y-71758379D01*
X88329726Y-71681081D01*
X88325501Y-71648988D01*
X88325501Y-71533655D01*
X88325500Y-71533653D01*
X88295252Y-71381588D01*
X88294738Y-71379003D01*
X88294736Y-71378998D01*
X88234398Y-71233327D01*
X88234391Y-71233314D01*
X88189539Y-71166189D01*
X88189538Y-71166187D01*
X88146790Y-71102211D01*
X88035290Y-70990711D01*
X87991844Y-70961681D01*
X87904186Y-70903109D01*
X87904173Y-70903102D01*
X87758502Y-70842764D01*
X87758490Y-70842761D01*
X87603846Y-70812000D01*
X87603843Y-70812000D01*
X87466575Y-70812000D01*
X87399536Y-70792315D01*
X87353781Y-70739511D01*
X87343837Y-70670353D01*
X87361034Y-70622906D01*
X87435909Y-70501516D01*
X87490175Y-70337753D01*
X87500501Y-70236677D01*
X87500500Y-69538324D01*
X87498601Y-69519737D01*
X87490175Y-69437247D01*
X87435909Y-69273484D01*
X87345341Y-69126650D01*
X87223351Y-69004660D01*
X87076517Y-68914092D01*
X86912754Y-68859826D01*
X86912752Y-68859825D01*
X86811679Y-68849500D01*
X86238331Y-68849500D01*
X86238313Y-68849501D01*
X86202904Y-68853119D01*
X86134211Y-68840349D01*
X86083327Y-68792468D01*
X86066370Y-68725699D01*
X86156707Y-65970435D01*
X86178577Y-65904077D01*
X86232852Y-65860077D01*
X86280635Y-65850499D01*
X87897872Y-65850499D01*
X87957483Y-65844091D01*
X88092331Y-65793796D01*
X88207546Y-65707546D01*
X88293796Y-65592331D01*
X88344091Y-65457483D01*
X88350500Y-65397873D01*
X88350499Y-63602128D01*
X88344091Y-63542517D01*
X88293796Y-63407669D01*
X88293795Y-63407668D01*
X88293793Y-63407664D01*
X88207547Y-63292455D01*
X88207544Y-63292452D01*
X88092335Y-63206206D01*
X88092328Y-63206202D01*
X87957482Y-63155908D01*
X87957483Y-63155908D01*
X87897883Y-63149501D01*
X87897881Y-63149500D01*
X87897873Y-63149500D01*
X87897865Y-63149500D01*
X86377328Y-63149500D01*
X86310289Y-63129815D01*
X86264534Y-63077011D01*
X86253395Y-63021439D01*
X86307694Y-61365311D01*
X86329564Y-61298955D01*
X86343938Y-61281705D01*
X87680045Y-59945599D01*
X87709538Y-59901459D01*
X87775858Y-59802205D01*
X87841855Y-59642874D01*
X87875500Y-59473729D01*
X87875500Y-55606772D01*
X87895185Y-55539733D01*
X87947989Y-55493978D01*
X87998071Y-55482780D01*
X100640511Y-55337465D01*
X100707768Y-55356377D01*
G37*
%TD.AperFunction*%
%TA.AperFunction,Conductor*%
G36*
X102615270Y-57421717D02*
G01*
X102615270Y-57421716D01*
X102654622Y-57367555D01*
X102659232Y-57358507D01*
X102707205Y-57307709D01*
X102775025Y-57290912D01*
X102841161Y-57313447D01*
X102880204Y-57358504D01*
X102884949Y-57367817D01*
X103009890Y-57539786D01*
X103160213Y-57690109D01*
X103332182Y-57815050D01*
X103340946Y-57819516D01*
X103391742Y-57867491D01*
X103408536Y-57935312D01*
X103385998Y-58001447D01*
X103340946Y-58040484D01*
X103332182Y-58044949D01*
X103160213Y-58169890D01*
X103009890Y-58320213D01*
X102884949Y-58492182D01*
X102880484Y-58500946D01*
X102832509Y-58551742D01*
X102764688Y-58568536D01*
X102698553Y-58545998D01*
X102659516Y-58500946D01*
X102655050Y-58492182D01*
X102530109Y-58320213D01*
X102379786Y-58169890D01*
X102207817Y-58044949D01*
X102198504Y-58040204D01*
X102147707Y-57992230D01*
X102130912Y-57924409D01*
X102153449Y-57858274D01*
X102198507Y-57819232D01*
X102207555Y-57814622D01*
X102261716Y-57775270D01*
X102261717Y-57775270D01*
X101629408Y-57142962D01*
X101692993Y-57125925D01*
X101807007Y-57060099D01*
X101900099Y-56967007D01*
X101965925Y-56852993D01*
X101982962Y-56789409D01*
X102615270Y-57421717D01*
G37*
%TD.AperFunction*%
%TA.AperFunction,Conductor*%
G36*
X103287736Y-55326722D02*
G01*
X103334095Y-55378997D01*
X103344833Y-55448036D01*
X103316540Y-55511921D01*
X103294785Y-55532119D01*
X103160214Y-55629890D01*
X103160209Y-55629894D01*
X103009890Y-55780213D01*
X102884949Y-55952182D01*
X102880202Y-55961499D01*
X102832227Y-56012293D01*
X102764405Y-56029087D01*
X102698271Y-56006548D01*
X102659234Y-55961495D01*
X102654626Y-55952452D01*
X102615270Y-55898282D01*
X102615269Y-55898282D01*
X101982962Y-56530590D01*
X101965925Y-56467007D01*
X101900099Y-56352993D01*
X101807007Y-56259901D01*
X101692993Y-56194075D01*
X101629409Y-56177037D01*
X102261716Y-55544728D01*
X102261716Y-55544727D01*
X102258451Y-55542355D01*
X102215785Y-55487026D01*
X102209806Y-55417412D01*
X102242411Y-55355617D01*
X102303250Y-55321260D01*
X102329892Y-55318047D01*
X103220480Y-55307810D01*
X103287736Y-55326722D01*
G37*
%TD.AperFunction*%
%TD*%
%TA.AperFunction,Conductor*%
%TO.N,+15V*%
G36*
X81939273Y-63194341D02*
G01*
X81986884Y-63245478D01*
X82000000Y-63300983D01*
X82000000Y-65599402D01*
X81980315Y-65666441D01*
X81963681Y-65687083D01*
X80651921Y-66998842D01*
X80590598Y-67032327D01*
X80563893Y-67035161D01*
X80188831Y-67034111D01*
X80121847Y-67014238D01*
X80076240Y-66961306D01*
X80066490Y-66892120D01*
X80095693Y-66828646D01*
X80141727Y-66795549D01*
X80206351Y-66768781D01*
X80332207Y-66672208D01*
X80332208Y-66672207D01*
X80428782Y-66546351D01*
X80428784Y-66546348D01*
X80489490Y-66399787D01*
X80489491Y-66399783D01*
X80504999Y-66281997D01*
X80505000Y-66281983D01*
X80505000Y-65765000D01*
X78679500Y-65765000D01*
X78670814Y-65762449D01*
X78661854Y-65763738D01*
X78637815Y-65752759D01*
X78612461Y-65745315D01*
X78606533Y-65738473D01*
X78598298Y-65734713D01*
X78584009Y-65712479D01*
X78566706Y-65692511D01*
X78564418Y-65681997D01*
X78560523Y-65675936D01*
X78555500Y-65641001D01*
X78555499Y-65479001D01*
X78575183Y-65411961D01*
X78627987Y-65366206D01*
X78679499Y-65355000D01*
X80505000Y-65355000D01*
X80505000Y-64838016D01*
X80504999Y-64838002D01*
X80489491Y-64720216D01*
X80489491Y-64720215D01*
X80467395Y-64666870D01*
X80459926Y-64597400D01*
X80491201Y-64534921D01*
X80494248Y-64531763D01*
X81254941Y-63771069D01*
X81295163Y-63744193D01*
X81379179Y-63709394D01*
X81510289Y-63621789D01*
X81621789Y-63510289D01*
X81709394Y-63379179D01*
X81761439Y-63253531D01*
X81805280Y-63199127D01*
X81871574Y-63177062D01*
X81939273Y-63194341D01*
G37*
%TD.AperFunction*%
%TA.AperFunction,Conductor*%
G36*
X68663490Y-62911738D02*
G01*
X68824747Y-62965174D01*
X68925823Y-62975500D01*
X69173125Y-62975499D01*
X69240164Y-62995183D01*
X69260806Y-63011818D01*
X70316021Y-64067033D01*
X70349506Y-64128356D01*
X70344522Y-64198048D01*
X70302650Y-64253981D01*
X70277899Y-64263212D01*
X70255000Y-64283294D01*
X70255000Y-65436000D01*
X70235315Y-65503039D01*
X70182511Y-65548794D01*
X70131000Y-65560000D01*
X70050000Y-65560000D01*
X70050000Y-65641000D01*
X70030315Y-65708039D01*
X69977511Y-65753794D01*
X69926000Y-65765000D01*
X69345000Y-65765000D01*
X69345000Y-66281997D01*
X69360508Y-66399783D01*
X69360509Y-66399787D01*
X69421215Y-66546348D01*
X69421217Y-66546351D01*
X69517791Y-66672207D01*
X69517792Y-66672208D01*
X69643648Y-66768782D01*
X69650689Y-66772847D01*
X69648980Y-66775805D01*
X69691096Y-66809783D01*
X69713123Y-66876090D01*
X69695806Y-66943779D01*
X69644642Y-66991361D01*
X69588853Y-67004446D01*
X68624153Y-67001746D01*
X68557169Y-66981873D01*
X68511562Y-66928942D01*
X68500500Y-66877746D01*
X68500500Y-64838002D01*
X69345000Y-64838002D01*
X69345000Y-65355000D01*
X69845000Y-65355000D01*
X69845000Y-64283295D01*
X69790214Y-64290508D01*
X69643651Y-64351215D01*
X69643648Y-64351217D01*
X69517792Y-64447791D01*
X69517791Y-64447792D01*
X69421217Y-64573648D01*
X69421215Y-64573651D01*
X69360509Y-64720212D01*
X69360508Y-64720216D01*
X69345000Y-64838002D01*
X68500500Y-64838002D01*
X68500500Y-63029448D01*
X68520185Y-62962409D01*
X68572989Y-62916654D01*
X68642147Y-62906710D01*
X68663490Y-62911738D01*
G37*
%TD.AperFunction*%
%TA.AperFunction,Conductor*%
G36*
X78122747Y-23020185D02*
G01*
X78168502Y-23072989D01*
X78174599Y-23089273D01*
X79139950Y-26347334D01*
X79140003Y-26369250D01*
X79144796Y-26390637D01*
X79140088Y-26403502D01*
X79140122Y-26417204D01*
X79128317Y-26435671D01*
X79120787Y-26456252D01*
X79104843Y-26472395D01*
X79102492Y-26476074D01*
X79095986Y-26481364D01*
X79074927Y-26497334D01*
X79009615Y-26522158D01*
X78941251Y-26507731D01*
X78925075Y-26497335D01*
X78817343Y-26415639D01*
X78676561Y-26360122D01*
X78630926Y-26354642D01*
X78588102Y-26349500D01*
X77931898Y-26349500D01*
X77896021Y-26353808D01*
X77843437Y-26360122D01*
X77843435Y-26360123D01*
X77829321Y-26365689D01*
X77799774Y-26368355D01*
X77770570Y-26373623D01*
X77762956Y-26371679D01*
X77759734Y-26371970D01*
X77736375Y-26364892D01*
X77733658Y-26363767D01*
X77727039Y-26361025D01*
X77672638Y-26317180D01*
X77650578Y-26250885D01*
X77650499Y-26246467D01*
X77650499Y-25684998D01*
X77650498Y-25684981D01*
X77639999Y-25582203D01*
X77639998Y-25582200D01*
X77609350Y-25489711D01*
X77584814Y-25415666D01*
X77492712Y-25266344D01*
X77368656Y-25142288D01*
X77219334Y-25050186D01*
X77052797Y-24995001D01*
X77052795Y-24995000D01*
X76950010Y-24984500D01*
X75549998Y-24984500D01*
X75549981Y-24984501D01*
X75447203Y-24995000D01*
X75447200Y-24995001D01*
X75280668Y-25050185D01*
X75280663Y-25050187D01*
X75131342Y-25142289D01*
X75007289Y-25266342D01*
X74915187Y-25415663D01*
X74915186Y-25415666D01*
X74860001Y-25582203D01*
X74860001Y-25582204D01*
X74860000Y-25582204D01*
X74849500Y-25684983D01*
X74849500Y-26610001D01*
X74849501Y-26610019D01*
X74860000Y-26712796D01*
X74860001Y-26712799D01*
X74915185Y-26879331D01*
X74915187Y-26879336D01*
X74950069Y-26935888D01*
X75007288Y-27028656D01*
X75131344Y-27152712D01*
X75280666Y-27244814D01*
X75447203Y-27299999D01*
X75549991Y-27310500D01*
X76561900Y-27310499D01*
X76628939Y-27330183D01*
X76674694Y-27382987D01*
X76676461Y-27387047D01*
X76715602Y-27481544D01*
X76715609Y-27481557D01*
X76803210Y-27612660D01*
X76803213Y-27612664D01*
X76914707Y-27724158D01*
X76914711Y-27724161D01*
X77045814Y-27811762D01*
X77045827Y-27811769D01*
X77191498Y-27872107D01*
X77191503Y-27872109D01*
X77243130Y-27882378D01*
X77325191Y-27898702D01*
X77353314Y-27913412D01*
X77382203Y-27926606D01*
X77384060Y-27929495D01*
X77387102Y-27931087D01*
X77402810Y-27958672D01*
X77419977Y-27985384D01*
X77420637Y-27989977D01*
X77421677Y-27991803D01*
X77425000Y-28020319D01*
X77425000Y-28080454D01*
X77405315Y-28147493D01*
X77352511Y-28193248D01*
X77283353Y-28203192D01*
X77235904Y-28185993D01*
X77219128Y-28175645D01*
X77219119Y-28175641D01*
X77052697Y-28120494D01*
X77052690Y-28120493D01*
X76949986Y-28110000D01*
X76500000Y-28110000D01*
X76500000Y-29148500D01*
X76480315Y-29215539D01*
X76427511Y-29261294D01*
X76376000Y-29272500D01*
X76250000Y-29272500D01*
X76250000Y-29398500D01*
X76230315Y-29465539D01*
X76177511Y-29511294D01*
X76126000Y-29522500D01*
X74850001Y-29522500D01*
X74850001Y-29734986D01*
X74860494Y-29837697D01*
X74915641Y-30004119D01*
X74915643Y-30004124D01*
X75008977Y-30155441D01*
X75027417Y-30222834D01*
X75006495Y-30289497D01*
X74991120Y-30308219D01*
X74932682Y-30366657D01*
X74840643Y-30515875D01*
X74840642Y-30515878D01*
X74793657Y-30657668D01*
X74753884Y-30715112D01*
X74689368Y-30741935D01*
X74620592Y-30729620D01*
X74569392Y-30682076D01*
X74558020Y-30656981D01*
X74501095Y-30481782D01*
X74404624Y-30292449D01*
X74365270Y-30238282D01*
X74365269Y-30238282D01*
X73732962Y-30870590D01*
X73715925Y-30807007D01*
X73650099Y-30692993D01*
X73557007Y-30599901D01*
X73442993Y-30534075D01*
X73379409Y-30517037D01*
X74049627Y-29846818D01*
X74110950Y-29813333D01*
X74137307Y-29810499D01*
X74147872Y-29810499D01*
X74207483Y-29804091D01*
X74342331Y-29753796D01*
X74457546Y-29667546D01*
X74543796Y-29552331D01*
X74594091Y-29417483D01*
X74600500Y-29357873D01*
X74600499Y-28810013D01*
X74850000Y-28810013D01*
X74850000Y-29022500D01*
X76000000Y-29022500D01*
X76000000Y-28110000D01*
X75550028Y-28110000D01*
X75550012Y-28110001D01*
X75447302Y-28120494D01*
X75280880Y-28175641D01*
X75280875Y-28175643D01*
X75131654Y-28267684D01*
X75007684Y-28391654D01*
X74915643Y-28540875D01*
X74915641Y-28540880D01*
X74860494Y-28707302D01*
X74860493Y-28707309D01*
X74850000Y-28810013D01*
X74600499Y-28810013D01*
X74600499Y-28455886D01*
X74600499Y-27562129D01*
X74600498Y-27562123D01*
X74600497Y-27562116D01*
X74594091Y-27502517D01*
X74586273Y-27481557D01*
X74543797Y-27367671D01*
X74543793Y-27367664D01*
X74457547Y-27252455D01*
X74457544Y-27252452D01*
X74342335Y-27166206D01*
X74342328Y-27166202D01*
X74207482Y-27115908D01*
X74207483Y-27115908D01*
X74147883Y-27109501D01*
X74147881Y-27109500D01*
X74147873Y-27109500D01*
X74147864Y-27109500D01*
X72352129Y-27109500D01*
X72352123Y-27109501D01*
X72292516Y-27115908D01*
X72157671Y-27166202D01*
X72157664Y-27166206D01*
X72042455Y-27252452D01*
X72042452Y-27252455D01*
X71956206Y-27367664D01*
X71956202Y-27367671D01*
X71905908Y-27502517D01*
X71899501Y-27562116D01*
X71899501Y-27562123D01*
X71899500Y-27562135D01*
X71899500Y-29357870D01*
X71899501Y-29357876D01*
X71905908Y-29417483D01*
X71956202Y-29552328D01*
X71956206Y-29552335D01*
X72042452Y-29667544D01*
X72042455Y-29667547D01*
X72157664Y-29753793D01*
X72157671Y-29753797D01*
X72202618Y-29770561D01*
X72292517Y-29804091D01*
X72352127Y-29810500D01*
X72362685Y-29810499D01*
X72429723Y-29830179D01*
X72450372Y-29846818D01*
X73120591Y-30517037D01*
X73057007Y-30534075D01*
X72942993Y-30599901D01*
X72849901Y-30692993D01*
X72784075Y-30807007D01*
X72767037Y-30870591D01*
X72134728Y-30238282D01*
X72134727Y-30238282D01*
X72095380Y-30292439D01*
X71998904Y-30481782D01*
X71933242Y-30683869D01*
X71933242Y-30683872D01*
X71900000Y-30893753D01*
X71900000Y-31106246D01*
X71933242Y-31316127D01*
X71933242Y-31316130D01*
X71998904Y-31518217D01*
X72095375Y-31707550D01*
X72134728Y-31761716D01*
X72767037Y-31129408D01*
X72784075Y-31192993D01*
X72849901Y-31307007D01*
X72942993Y-31400099D01*
X73057007Y-31465925D01*
X73120590Y-31482962D01*
X72488282Y-32115269D01*
X72488282Y-32115270D01*
X72542449Y-32154624D01*
X72731782Y-32251095D01*
X72933870Y-32316757D01*
X73143754Y-32350000D01*
X73356246Y-32350000D01*
X73566127Y-32316757D01*
X73566130Y-32316757D01*
X73768217Y-32251095D01*
X73957554Y-32154622D01*
X74011716Y-32115270D01*
X74011717Y-32115270D01*
X73379408Y-31482962D01*
X73442993Y-31465925D01*
X73557007Y-31400099D01*
X73650099Y-31307007D01*
X73715925Y-31192993D01*
X73732962Y-31129409D01*
X74365270Y-31761717D01*
X74365270Y-31761716D01*
X74404622Y-31707554D01*
X74501096Y-31518215D01*
X74533069Y-31419810D01*
X74572505Y-31362134D01*
X74636864Y-31334935D01*
X74705710Y-31346849D01*
X74757187Y-31394092D01*
X74775000Y-31458126D01*
X74775000Y-31559970D01*
X74775001Y-31559987D01*
X74785494Y-31662697D01*
X74840641Y-31829119D01*
X74840643Y-31829124D01*
X74932684Y-31978345D01*
X75056655Y-32102316D01*
X75056659Y-32102319D01*
X75059656Y-32104168D01*
X75061279Y-32105972D01*
X75062323Y-32106798D01*
X75062181Y-32106976D01*
X75106381Y-32156116D01*
X75117602Y-32225079D01*
X75089759Y-32289161D01*
X75059661Y-32315241D01*
X75056349Y-32317283D01*
X75056343Y-32317288D01*
X74932289Y-32441342D01*
X74840187Y-32590663D01*
X74840186Y-32590666D01*
X74785001Y-32757203D01*
X74785001Y-32757204D01*
X74785000Y-32757204D01*
X74774500Y-32859983D01*
X74774500Y-33635001D01*
X74774501Y-33635019D01*
X74785000Y-33737796D01*
X74785001Y-33737799D01*
X74838042Y-33897864D01*
X74840186Y-33904334D01*
X74932288Y-34053656D01*
X75056344Y-34177712D01*
X75205666Y-34269814D01*
X75372203Y-34324999D01*
X75474991Y-34335500D01*
X76525008Y-34335499D01*
X76525016Y-34335498D01*
X76525019Y-34335498D01*
X76581302Y-34329748D01*
X76627797Y-34324999D01*
X76794334Y-34269814D01*
X76943656Y-34177712D01*
X77067712Y-34053656D01*
X77159814Y-33904334D01*
X77214999Y-33737797D01*
X77225500Y-33635009D01*
X77225499Y-33064017D01*
X77234145Y-33034571D01*
X77240667Y-33004591D01*
X77244419Y-32999577D01*
X77245183Y-32996979D01*
X77261813Y-32976342D01*
X77437821Y-32800334D01*
X77499142Y-32766851D01*
X77568834Y-32771835D01*
X77624767Y-32813707D01*
X77649184Y-32879171D01*
X77649500Y-32888017D01*
X77649500Y-33897870D01*
X77649501Y-33897876D01*
X77655908Y-33957483D01*
X77706202Y-34092328D01*
X77706206Y-34092335D01*
X77792452Y-34207544D01*
X77792455Y-34207547D01*
X77907664Y-34293793D01*
X77907671Y-34293797D01*
X78042517Y-34344091D01*
X78042516Y-34344091D01*
X78049444Y-34344835D01*
X78102127Y-34350500D01*
X79897872Y-34350499D01*
X79957483Y-34344091D01*
X80092331Y-34293796D01*
X80207546Y-34207546D01*
X80293796Y-34092331D01*
X80344091Y-33957483D01*
X80350500Y-33897873D01*
X80350499Y-32499095D01*
X80370184Y-32432057D01*
X80422987Y-32386302D01*
X80492146Y-32376358D01*
X80555702Y-32405383D01*
X80562180Y-32411415D01*
X81019478Y-32868713D01*
X81019480Y-32868716D01*
X81072151Y-32921387D01*
X81072166Y-32921415D01*
X81103359Y-32973840D01*
X81294391Y-33618570D01*
X81299500Y-33653797D01*
X81299500Y-34550001D01*
X81299501Y-34550019D01*
X81310000Y-34652796D01*
X81310001Y-34652799D01*
X81365185Y-34819331D01*
X81365187Y-34819336D01*
X81457289Y-34968657D01*
X81581344Y-35092712D01*
X81724345Y-35180915D01*
X81771070Y-35232863D01*
X81778140Y-35251227D01*
X81994891Y-35982757D01*
X82000000Y-36017984D01*
X82000000Y-38645954D01*
X81980315Y-38712993D01*
X81932296Y-38756438D01*
X81832182Y-38807449D01*
X81660215Y-38932389D01*
X81546673Y-39045931D01*
X81485350Y-39079415D01*
X81415658Y-39074431D01*
X81359725Y-39032559D01*
X81342810Y-39001582D01*
X81293797Y-38870171D01*
X81293793Y-38870164D01*
X81207547Y-38754955D01*
X81207544Y-38754952D01*
X81092335Y-38668706D01*
X81092328Y-38668702D01*
X80957482Y-38618408D01*
X80957483Y-38618408D01*
X80897883Y-38612001D01*
X80897881Y-38612000D01*
X80897873Y-38612000D01*
X80897864Y-38612000D01*
X79102129Y-38612000D01*
X79102123Y-38612001D01*
X79042516Y-38618408D01*
X78907671Y-38668702D01*
X78907664Y-38668706D01*
X78792455Y-38754952D01*
X78792452Y-38754955D01*
X78706206Y-38870164D01*
X78706202Y-38870171D01*
X78655908Y-39005017D01*
X78649501Y-39064616D01*
X78649501Y-39064623D01*
X78649500Y-39064635D01*
X78649500Y-40235625D01*
X78629815Y-40302664D01*
X78613181Y-40323306D01*
X78436470Y-40500017D01*
X78436467Y-40500021D01*
X78369477Y-40600278D01*
X78369478Y-40600279D01*
X78369476Y-40600282D01*
X78357071Y-40618847D01*
X78357069Y-40618849D01*
X78357069Y-40618851D01*
X78302381Y-40750879D01*
X78302379Y-40750885D01*
X78274500Y-40891042D01*
X78274500Y-51087324D01*
X78254815Y-51154363D01*
X78202011Y-51200118D01*
X78132853Y-51210062D01*
X78126309Y-51208941D01*
X78078846Y-51199500D01*
X78078842Y-51199500D01*
X77921158Y-51199500D01*
X77921155Y-51199500D01*
X77766510Y-51230261D01*
X77766498Y-51230264D01*
X77620827Y-51290602D01*
X77620814Y-51290609D01*
X77489711Y-51378210D01*
X77489707Y-51378213D01*
X77378213Y-51489707D01*
X77378210Y-51489711D01*
X77290609Y-51620814D01*
X77290602Y-51620827D01*
X77230263Y-51766500D01*
X77228656Y-51771799D01*
X77221862Y-51788203D01*
X77221902Y-51788220D01*
X77164881Y-51925879D01*
X77164879Y-51925885D01*
X77137000Y-52066042D01*
X77137000Y-61635038D01*
X77135372Y-61643217D01*
X77136289Y-61648295D01*
X77127560Y-61682493D01*
X77118306Y-61704833D01*
X77091427Y-61745059D01*
X77086128Y-61750358D01*
X77078073Y-61754756D01*
X77074464Y-61759235D01*
X77062701Y-61763149D01*
X77024805Y-61783843D01*
X76955113Y-61778859D01*
X76899180Y-61736987D01*
X76883889Y-61710137D01*
X76846894Y-61620821D01*
X76846892Y-61620818D01*
X76846890Y-61620814D01*
X76759289Y-61489711D01*
X76759286Y-61489707D01*
X76647792Y-61378213D01*
X76647788Y-61378210D01*
X76516685Y-61290609D01*
X76516672Y-61290602D01*
X76371001Y-61230264D01*
X76370992Y-61230261D01*
X76334478Y-61222998D01*
X76272567Y-61190612D01*
X76237994Y-61129895D01*
X76240535Y-61072330D01*
X76238582Y-61071912D01*
X76239995Y-61065307D01*
X76239999Y-61065297D01*
X76250500Y-60962509D01*
X76250499Y-59012492D01*
X76239999Y-58909703D01*
X76184814Y-58743166D01*
X76092712Y-58593844D01*
X75968656Y-58469788D01*
X75819334Y-58377686D01*
X75652797Y-58322501D01*
X75652795Y-58322500D01*
X75550010Y-58312000D01*
X72449998Y-58312000D01*
X72449981Y-58312001D01*
X72347203Y-58322500D01*
X72347200Y-58322501D01*
X72180668Y-58377685D01*
X72180663Y-58377687D01*
X72031342Y-58469789D01*
X71907289Y-58593842D01*
X71815187Y-58743163D01*
X71815186Y-58743166D01*
X71760001Y-58909703D01*
X71760001Y-58909704D01*
X71760000Y-58909704D01*
X71749500Y-59012483D01*
X71749500Y-59228309D01*
X71729815Y-59295348D01*
X71677011Y-59341103D01*
X71672953Y-59342870D01*
X71668848Y-59344569D01*
X71550017Y-59423969D01*
X71550016Y-59423970D01*
X70436469Y-60537518D01*
X70436465Y-60537522D01*
X70427441Y-60551030D01*
X70427440Y-60551032D01*
X70357074Y-60656340D01*
X70357069Y-60656349D01*
X70302381Y-60788379D01*
X70302379Y-60788385D01*
X70274500Y-60928542D01*
X70274500Y-61092947D01*
X70265854Y-61122389D01*
X70259330Y-61152378D01*
X70255576Y-61157391D01*
X70254815Y-61159986D01*
X70238178Y-61180632D01*
X70225177Y-61193632D01*
X70163852Y-61227114D01*
X70094161Y-61222127D01*
X70049818Y-61193628D01*
X70035851Y-61179661D01*
X70035850Y-61179660D01*
X69889016Y-61089092D01*
X69725253Y-61034826D01*
X69725251Y-61034825D01*
X69624178Y-61024500D01*
X68925830Y-61024500D01*
X68925812Y-61024501D01*
X68824747Y-61034825D01*
X68824744Y-61034826D01*
X68663504Y-61088257D01*
X68593676Y-61090659D01*
X68533634Y-61054927D01*
X68502441Y-60992407D01*
X68500500Y-60970551D01*
X68500500Y-42351042D01*
X70274500Y-42351042D01*
X70274500Y-42351045D01*
X70274500Y-51071455D01*
X70288194Y-51140297D01*
X70302381Y-51211620D01*
X70357071Y-51343653D01*
X70385323Y-51385936D01*
X70436469Y-51462482D01*
X70436470Y-51462483D01*
X71725304Y-52751316D01*
X71758789Y-52812639D01*
X71758870Y-52852783D01*
X71760689Y-52852969D01*
X71749500Y-52962483D01*
X71749500Y-54912501D01*
X71749501Y-54912518D01*
X71760000Y-55015296D01*
X71760001Y-55015299D01*
X71815185Y-55181831D01*
X71815186Y-55181834D01*
X71907288Y-55331156D01*
X72031344Y-55455212D01*
X72180666Y-55547314D01*
X72347203Y-55602499D01*
X72449991Y-55613000D01*
X73221715Y-55612999D01*
X73288754Y-55632683D01*
X73309396Y-55649318D01*
X73362214Y-55702136D01*
X73362218Y-55702139D01*
X73526079Y-55811628D01*
X73526092Y-55811635D01*
X73708160Y-55887049D01*
X73708165Y-55887051D01*
X73708169Y-55887051D01*
X73708170Y-55887052D01*
X73901456Y-55925500D01*
X73901459Y-55925500D01*
X74098543Y-55925500D01*
X74228582Y-55899632D01*
X74291835Y-55887051D01*
X74473914Y-55811632D01*
X74637782Y-55702139D01*
X74675285Y-55664636D01*
X74690603Y-55649318D01*
X74751926Y-55615833D01*
X74778284Y-55612999D01*
X75550002Y-55612999D01*
X75550008Y-55612999D01*
X75652797Y-55602499D01*
X75819334Y-55547314D01*
X75968656Y-55455212D01*
X76092712Y-55331156D01*
X76184814Y-55181834D01*
X76239999Y-55015297D01*
X76250500Y-54912509D01*
X76250499Y-52962492D01*
X76245481Y-52913373D01*
X76239999Y-52859703D01*
X76239998Y-52859700D01*
X76226730Y-52819660D01*
X76184814Y-52693166D01*
X76092712Y-52543844D01*
X75968656Y-52419788D01*
X75819334Y-52327686D01*
X75652797Y-52272501D01*
X75652795Y-52272500D01*
X75550016Y-52262000D01*
X75550009Y-52262000D01*
X73339374Y-52262000D01*
X73272335Y-52242315D01*
X73251693Y-52225681D01*
X72975692Y-51949680D01*
X72942207Y-51888357D01*
X72947191Y-51818665D01*
X72989063Y-51762732D01*
X73054527Y-51738315D01*
X73063373Y-51737999D01*
X75550002Y-51737999D01*
X75550008Y-51737999D01*
X75652797Y-51727499D01*
X75819334Y-51672314D01*
X75968656Y-51580212D01*
X76092712Y-51456156D01*
X76184814Y-51306834D01*
X76239999Y-51140297D01*
X76250500Y-51037509D01*
X76250499Y-49087492D01*
X76239999Y-48984703D01*
X76184814Y-48818166D01*
X76092712Y-48668844D01*
X75968656Y-48544788D01*
X75819334Y-48452686D01*
X75652797Y-48397501D01*
X75652795Y-48397500D01*
X75550010Y-48387000D01*
X72449998Y-48387000D01*
X72449981Y-48387001D01*
X72347203Y-48397500D01*
X72347200Y-48397501D01*
X72180668Y-48452685D01*
X72180663Y-48452687D01*
X72031342Y-48544789D01*
X71937181Y-48638951D01*
X71875858Y-48672436D01*
X71806166Y-48667452D01*
X71750233Y-48625580D01*
X71725816Y-48560116D01*
X71725500Y-48551270D01*
X71725500Y-45523730D01*
X71745185Y-45456691D01*
X71797989Y-45410936D01*
X71867147Y-45400992D01*
X71930703Y-45430017D01*
X71937181Y-45436049D01*
X72031344Y-45530212D01*
X72180666Y-45622314D01*
X72347203Y-45677499D01*
X72449991Y-45688000D01*
X73221715Y-45687999D01*
X73288754Y-45707683D01*
X73309396Y-45724318D01*
X73362214Y-45777136D01*
X73362218Y-45777139D01*
X73526079Y-45886628D01*
X73526092Y-45886635D01*
X73708160Y-45962049D01*
X73708165Y-45962051D01*
X73708169Y-45962051D01*
X73708170Y-45962052D01*
X73901456Y-46000500D01*
X73901459Y-46000500D01*
X74098543Y-46000500D01*
X74228582Y-45974632D01*
X74291835Y-45962051D01*
X74473914Y-45886632D01*
X74637782Y-45777139D01*
X74675285Y-45739636D01*
X74690603Y-45724318D01*
X74751926Y-45690833D01*
X74778284Y-45687999D01*
X75550002Y-45687999D01*
X75550008Y-45687999D01*
X75652797Y-45677499D01*
X75819334Y-45622314D01*
X75968656Y-45530212D01*
X76092712Y-45406156D01*
X76184814Y-45256834D01*
X76239999Y-45090297D01*
X76250500Y-44987509D01*
X76250499Y-43037492D01*
X76239999Y-42934703D01*
X76230159Y-42905010D01*
X76227758Y-42835184D01*
X76260183Y-42778327D01*
X76563532Y-42474980D01*
X76642929Y-42356153D01*
X76697619Y-42224120D01*
X76700253Y-42210880D01*
X76725500Y-42083955D01*
X76725500Y-41436999D01*
X76745185Y-41369960D01*
X76797989Y-41324205D01*
X76849500Y-41312999D01*
X76897871Y-41312999D01*
X76897872Y-41312999D01*
X76957483Y-41306591D01*
X77092331Y-41256296D01*
X77207546Y-41170046D01*
X77293796Y-41054831D01*
X77344091Y-40919983D01*
X77350500Y-40860373D01*
X77350499Y-39064628D01*
X77344091Y-39005017D01*
X77342810Y-39001583D01*
X77293797Y-38870171D01*
X77293793Y-38870164D01*
X77207547Y-38754955D01*
X77207544Y-38754952D01*
X77092335Y-38668706D01*
X77092328Y-38668702D01*
X76957482Y-38618408D01*
X76957483Y-38618408D01*
X76897883Y-38612001D01*
X76897881Y-38612000D01*
X76897873Y-38612000D01*
X76897864Y-38612000D01*
X75102129Y-38612000D01*
X75102123Y-38612001D01*
X75042516Y-38618408D01*
X74907671Y-38668702D01*
X74907664Y-38668706D01*
X74792455Y-38754952D01*
X74792452Y-38754955D01*
X74706206Y-38870164D01*
X74706203Y-38870169D01*
X74657189Y-39001583D01*
X74615317Y-39057516D01*
X74549853Y-39081933D01*
X74481580Y-39067081D01*
X74453326Y-39045930D01*
X74339786Y-38932390D01*
X74167820Y-38807451D01*
X73978414Y-38710944D01*
X73978413Y-38710943D01*
X73978412Y-38710943D01*
X73776243Y-38645254D01*
X73776241Y-38645253D01*
X73776240Y-38645253D01*
X73614957Y-38619708D01*
X73566287Y-38612000D01*
X73353713Y-38612000D01*
X73305042Y-38619708D01*
X73143760Y-38645253D01*
X72941585Y-38710944D01*
X72752179Y-38807451D01*
X72580213Y-38932390D01*
X72429890Y-39082713D01*
X72304951Y-39254679D01*
X72208444Y-39444085D01*
X72142753Y-39646260D01*
X72109500Y-39856213D01*
X72109500Y-40068792D01*
X72129450Y-40194749D01*
X72120496Y-40264042D01*
X72094658Y-40301828D01*
X70436469Y-41960017D01*
X70357070Y-42078848D01*
X70332569Y-42138000D01*
X70304801Y-42205039D01*
X70302382Y-42210878D01*
X70302379Y-42210885D01*
X70274500Y-42351042D01*
X68500500Y-42351042D01*
X68500500Y-23124500D01*
X68520185Y-23057461D01*
X68572989Y-23011706D01*
X68624500Y-23000500D01*
X78055708Y-23000500D01*
X78122747Y-23020185D01*
G37*
%TD.AperFunction*%
%TD*%
%TA.AperFunction,Conductor*%
%TO.N,+5V*%
G36*
X96627942Y-23020185D02*
G01*
X96673697Y-23072989D01*
X96683641Y-23142147D01*
X96654616Y-23205703D01*
X96648588Y-23212176D01*
X96348846Y-23511918D01*
X96247583Y-23613181D01*
X96186260Y-23646666D01*
X96159902Y-23649500D01*
X94812129Y-23649500D01*
X94812123Y-23649501D01*
X94752516Y-23655908D01*
X94617671Y-23706202D01*
X94617664Y-23706206D01*
X94502455Y-23792452D01*
X94502452Y-23792455D01*
X94416206Y-23907664D01*
X94416202Y-23907671D01*
X94365908Y-24042517D01*
X94359501Y-24102116D01*
X94359500Y-24102135D01*
X94359500Y-25897870D01*
X94359501Y-25897876D01*
X94365908Y-25957483D01*
X94416202Y-26092328D01*
X94416206Y-26092335D01*
X94502452Y-26207544D01*
X94502455Y-26207547D01*
X94617664Y-26293793D01*
X94617671Y-26293797D01*
X94752517Y-26344091D01*
X94752516Y-26344091D01*
X94759444Y-26344835D01*
X94812127Y-26350500D01*
X96607872Y-26350499D01*
X96667483Y-26344091D01*
X96802331Y-26293796D01*
X96917546Y-26207546D01*
X97003796Y-26092331D01*
X97052810Y-25960916D01*
X97094681Y-25904984D01*
X97160145Y-25880566D01*
X97228418Y-25895417D01*
X97256673Y-25916569D01*
X97370213Y-26030109D01*
X97542179Y-26155048D01*
X97542181Y-26155049D01*
X97542184Y-26155051D01*
X97731588Y-26251557D01*
X97933757Y-26317246D01*
X98143713Y-26350500D01*
X98143714Y-26350500D01*
X98356286Y-26350500D01*
X98356287Y-26350500D01*
X98566243Y-26317246D01*
X98768412Y-26251557D01*
X98957816Y-26155051D01*
X99044138Y-26092335D01*
X99129786Y-26030109D01*
X99129788Y-26030106D01*
X99129792Y-26030104D01*
X99280104Y-25879792D01*
X99280106Y-25879788D01*
X99280109Y-25879786D01*
X99405048Y-25707820D01*
X99405047Y-25707820D01*
X99405051Y-25707816D01*
X99409514Y-25699054D01*
X99457488Y-25648259D01*
X99525308Y-25631463D01*
X99591444Y-25653999D01*
X99630486Y-25699056D01*
X99634951Y-25707820D01*
X99759890Y-25879786D01*
X99910213Y-26030109D01*
X100082179Y-26155048D01*
X100082181Y-26155049D01*
X100082184Y-26155051D01*
X100271588Y-26251557D01*
X100473757Y-26317246D01*
X100683713Y-26350500D01*
X100683714Y-26350500D01*
X100896286Y-26350500D01*
X100896287Y-26350500D01*
X101106243Y-26317246D01*
X101148523Y-26303507D01*
X101218362Y-26301511D01*
X101274522Y-26333757D01*
X101725139Y-26784374D01*
X101725149Y-26784385D01*
X101729479Y-26788715D01*
X101729480Y-26788716D01*
X101841284Y-26900520D01*
X101915234Y-26943214D01*
X101928095Y-26950639D01*
X101928097Y-26950641D01*
X101972054Y-26976020D01*
X101978215Y-26979577D01*
X102130942Y-27020500D01*
X102130943Y-27020500D01*
X105021349Y-27020500D01*
X105088388Y-27040185D01*
X105109030Y-27056819D01*
X105132837Y-27080626D01*
X105225494Y-27142537D01*
X105272137Y-27173703D01*
X105426918Y-27237816D01*
X105591228Y-27270499D01*
X105591232Y-27270500D01*
X105591233Y-27270500D01*
X105758768Y-27270500D01*
X105758769Y-27270499D01*
X105923082Y-27237816D01*
X106077863Y-27173703D01*
X106181109Y-27104716D01*
X106247787Y-27083838D01*
X106315167Y-27102323D01*
X106318891Y-27104716D01*
X106422137Y-27173703D01*
X106576918Y-27237816D01*
X106741228Y-27270499D01*
X106741232Y-27270500D01*
X106741233Y-27270500D01*
X106908768Y-27270500D01*
X106908769Y-27270499D01*
X107073082Y-27237816D01*
X107227863Y-27173703D01*
X107367162Y-27080626D01*
X107485626Y-26962162D01*
X107498387Y-26943062D01*
X107522398Y-26907130D01*
X107576010Y-26862324D01*
X107645335Y-26853617D01*
X107708362Y-26883771D01*
X107745082Y-26943214D01*
X107749500Y-26976020D01*
X107749500Y-40876000D01*
X107729815Y-40943039D01*
X107677011Y-40988794D01*
X107625500Y-41000000D01*
X105413624Y-41000000D01*
X105346585Y-40980315D01*
X105300830Y-40927511D01*
X105295696Y-40914327D01*
X105291557Y-40901588D01*
X105291555Y-40901585D01*
X105291555Y-40901583D01*
X105225397Y-40771742D01*
X105195051Y-40712184D01*
X105195049Y-40712181D01*
X105195048Y-40712179D01*
X105070109Y-40540213D01*
X104919786Y-40389890D01*
X104747817Y-40264949D01*
X104738504Y-40260204D01*
X104687707Y-40212230D01*
X104670912Y-40144409D01*
X104693449Y-40078274D01*
X104738507Y-40039232D01*
X104747555Y-40034622D01*
X104801716Y-39995270D01*
X104801717Y-39995270D01*
X104169408Y-39362962D01*
X104232993Y-39345925D01*
X104347007Y-39280099D01*
X104440099Y-39187007D01*
X104505925Y-39072993D01*
X104522962Y-39009408D01*
X105155270Y-39641717D01*
X105155270Y-39641716D01*
X105194622Y-39587554D01*
X105291095Y-39398217D01*
X105356757Y-39196130D01*
X105356757Y-39196127D01*
X105390000Y-38986246D01*
X105390000Y-38773753D01*
X105356757Y-38563872D01*
X105356757Y-38563869D01*
X105291095Y-38361782D01*
X105194624Y-38172449D01*
X105155270Y-38118282D01*
X105155269Y-38118282D01*
X104522962Y-38750590D01*
X104505925Y-38687007D01*
X104440099Y-38572993D01*
X104347007Y-38479901D01*
X104232993Y-38414075D01*
X104169409Y-38397037D01*
X104801716Y-37764728D01*
X104747550Y-37725375D01*
X104737954Y-37720486D01*
X104687157Y-37672512D01*
X104670361Y-37604692D01*
X104692897Y-37538556D01*
X104737954Y-37499514D01*
X104747554Y-37494622D01*
X104801716Y-37455270D01*
X104801717Y-37455270D01*
X104169408Y-36822962D01*
X104232993Y-36805925D01*
X104347007Y-36740099D01*
X104440099Y-36647007D01*
X104505925Y-36532993D01*
X104522962Y-36469408D01*
X105155270Y-37101717D01*
X105155270Y-37101716D01*
X105194622Y-37047554D01*
X105291095Y-36858217D01*
X105356757Y-36656130D01*
X105356757Y-36656127D01*
X105390000Y-36446246D01*
X105390000Y-36233753D01*
X105356757Y-36023872D01*
X105356757Y-36023869D01*
X105291095Y-35821782D01*
X105194624Y-35632449D01*
X105155270Y-35578282D01*
X105155269Y-35578282D01*
X104522962Y-36210590D01*
X104505925Y-36147007D01*
X104440099Y-36032993D01*
X104347007Y-35939901D01*
X104232993Y-35874075D01*
X104169409Y-35857037D01*
X104801716Y-35224728D01*
X104747550Y-35185375D01*
X104558217Y-35088904D01*
X104356129Y-35023242D01*
X104146246Y-34990000D01*
X103933754Y-34990000D01*
X103723872Y-35023242D01*
X103723869Y-35023242D01*
X103521782Y-35088904D01*
X103332439Y-35185380D01*
X103278282Y-35224727D01*
X103278282Y-35224728D01*
X103910591Y-35857037D01*
X103847007Y-35874075D01*
X103732993Y-35939901D01*
X103639901Y-36032993D01*
X103574075Y-36147007D01*
X103557037Y-36210591D01*
X102886818Y-35540372D01*
X102853333Y-35479049D01*
X102853330Y-35479036D01*
X102850499Y-35466015D01*
X102850499Y-35442128D01*
X102844091Y-35382517D01*
X102810397Y-35292179D01*
X102793798Y-35247673D01*
X102793793Y-35247664D01*
X102707547Y-35132455D01*
X102707544Y-35132452D01*
X102592335Y-35046206D01*
X102592328Y-35046202D01*
X102457482Y-34995908D01*
X102457483Y-34995908D01*
X102397883Y-34989501D01*
X102397881Y-34989500D01*
X102397873Y-34989500D01*
X102397864Y-34989500D01*
X100602129Y-34989500D01*
X100602123Y-34989501D01*
X100542516Y-34995908D01*
X100407671Y-35046202D01*
X100407664Y-35046206D01*
X100292455Y-35132452D01*
X100292452Y-35132455D01*
X100206206Y-35247664D01*
X100206202Y-35247671D01*
X100155910Y-35382513D01*
X100155909Y-35382517D01*
X100150937Y-35428757D01*
X100124201Y-35493306D01*
X100066809Y-35533154D01*
X100027649Y-35539500D01*
X99581158Y-35539500D01*
X99533829Y-35548914D01*
X99464237Y-35542685D01*
X99444542Y-35532835D01*
X99443657Y-35532289D01*
X99443656Y-35532288D01*
X99294334Y-35440186D01*
X99127797Y-35385001D01*
X99127795Y-35385000D01*
X99025010Y-35374500D01*
X97974998Y-35374500D01*
X97974980Y-35374501D01*
X97872203Y-35385000D01*
X97872200Y-35385001D01*
X97705668Y-35440185D01*
X97705663Y-35440187D01*
X97556342Y-35532289D01*
X97432289Y-35656342D01*
X97340187Y-35805663D01*
X97340185Y-35805668D01*
X97328809Y-35840000D01*
X97285001Y-35972203D01*
X97285001Y-35972204D01*
X97285000Y-35972204D01*
X97274500Y-36074983D01*
X97274500Y-36850001D01*
X97274501Y-36850019D01*
X97285000Y-36952796D01*
X97285001Y-36952799D01*
X97340185Y-37119331D01*
X97340187Y-37119336D01*
X97353290Y-37140579D01*
X97430042Y-37265015D01*
X97432289Y-37268657D01*
X97556346Y-37392714D01*
X97559182Y-37394463D01*
X97560717Y-37396170D01*
X97562011Y-37397193D01*
X97561836Y-37397414D01*
X97605905Y-37446411D01*
X97617126Y-37515374D01*
X97589282Y-37579456D01*
X97559182Y-37605537D01*
X97556346Y-37607285D01*
X97432289Y-37731342D01*
X97340187Y-37880663D01*
X97340185Y-37880668D01*
X97335375Y-37895185D01*
X97285001Y-38047203D01*
X97285001Y-38047204D01*
X97285000Y-38047204D01*
X97274500Y-38149983D01*
X97274500Y-38925001D01*
X97274501Y-38925019D01*
X97285000Y-39027796D01*
X97285001Y-39027799D01*
X97322347Y-39140500D01*
X97340186Y-39194334D01*
X97350098Y-39210404D01*
X97368538Y-39277795D01*
X97347616Y-39344459D01*
X97293974Y-39389229D01*
X97244559Y-39399500D01*
X96380943Y-39399500D01*
X96228214Y-39440423D01*
X96180952Y-39467711D01*
X96180950Y-39467711D01*
X96091290Y-39519475D01*
X96091282Y-39519481D01*
X95979478Y-39631286D01*
X94944522Y-40666241D01*
X94883199Y-40699726D01*
X94818523Y-40696491D01*
X94776245Y-40682754D01*
X94636272Y-40660584D01*
X94566287Y-40649500D01*
X94353713Y-40649500D01*
X94305042Y-40657208D01*
X94143760Y-40682753D01*
X93941585Y-40748444D01*
X93752179Y-40844951D01*
X93580212Y-40969891D01*
X93579758Y-40970280D01*
X93579549Y-40970373D01*
X93576266Y-40972759D01*
X93575765Y-40972069D01*
X93516001Y-40998859D01*
X93499215Y-41000000D01*
X87999500Y-41000000D01*
X87932461Y-40980315D01*
X87886706Y-40927511D01*
X87875500Y-40876000D01*
X87875500Y-39913768D01*
X87875499Y-39913766D01*
X87859591Y-39833793D01*
X87841855Y-39744626D01*
X87801111Y-39646260D01*
X87775861Y-39585301D01*
X87775854Y-39585288D01*
X87680046Y-39441902D01*
X87627373Y-39389229D01*
X87558099Y-39319955D01*
X86063494Y-37825350D01*
X84558102Y-36319957D01*
X84558098Y-36319954D01*
X84414711Y-36224145D01*
X84414698Y-36224138D01*
X84255378Y-36158146D01*
X84255366Y-36158143D01*
X84086232Y-36124500D01*
X84086229Y-36124500D01*
X83124000Y-36124500D01*
X83115314Y-36121949D01*
X83106353Y-36123238D01*
X83082312Y-36112259D01*
X83056961Y-36104815D01*
X83051033Y-36097974D01*
X83042797Y-36094213D01*
X83028507Y-36071978D01*
X83011206Y-36052011D01*
X83008918Y-36041496D01*
X83005023Y-36035435D01*
X83000000Y-36000500D01*
X83000000Y-35893713D01*
X91649500Y-35893713D01*
X91649500Y-36106287D01*
X91657713Y-36158143D01*
X91668166Y-36224142D01*
X91682754Y-36316243D01*
X91711861Y-36405826D01*
X91748444Y-36518414D01*
X91844951Y-36707820D01*
X91969890Y-36879786D01*
X92083430Y-36993326D01*
X92116915Y-37054649D01*
X92111931Y-37124341D01*
X92070059Y-37180274D01*
X92039083Y-37197189D01*
X91907669Y-37246203D01*
X91907664Y-37246206D01*
X91792455Y-37332452D01*
X91792452Y-37332455D01*
X91706206Y-37447664D01*
X91706202Y-37447671D01*
X91655908Y-37582517D01*
X91649501Y-37642116D01*
X91649501Y-37642123D01*
X91649500Y-37642135D01*
X91649500Y-39437870D01*
X91649501Y-39437876D01*
X91655908Y-39497483D01*
X91706202Y-39632328D01*
X91706206Y-39632335D01*
X91792452Y-39747544D01*
X91792455Y-39747547D01*
X91907664Y-39833793D01*
X91907671Y-39833797D01*
X92042517Y-39884091D01*
X92042516Y-39884091D01*
X92049444Y-39884835D01*
X92102127Y-39890500D01*
X93897872Y-39890499D01*
X93957483Y-39884091D01*
X94092331Y-39833796D01*
X94207546Y-39747546D01*
X94293796Y-39632331D01*
X94344091Y-39497483D01*
X94350500Y-39437873D01*
X94350500Y-39264500D01*
X94370185Y-39197461D01*
X94422989Y-39151706D01*
X94474500Y-39140500D01*
X95373331Y-39140500D01*
X95373347Y-39140501D01*
X95380943Y-39140501D01*
X95539054Y-39140501D01*
X95539057Y-39140501D01*
X95691785Y-39099577D01*
X95741904Y-39070639D01*
X95828716Y-39020520D01*
X95940520Y-38908716D01*
X95940520Y-38908714D01*
X95950728Y-38898507D01*
X95950730Y-38898504D01*
X95969235Y-38879999D01*
X96014662Y-38834572D01*
X96075984Y-38801088D01*
X96078151Y-38800637D01*
X96078840Y-38800500D01*
X96078842Y-38800500D01*
X96233497Y-38769737D01*
X96364008Y-38715678D01*
X96379172Y-38709397D01*
X96379172Y-38709396D01*
X96379179Y-38709394D01*
X96510289Y-38621789D01*
X96621789Y-38510289D01*
X96709394Y-38379179D01*
X96769737Y-38233497D01*
X96800500Y-38078842D01*
X96800500Y-37921158D01*
X96800500Y-37921155D01*
X96800499Y-37921153D01*
X96792446Y-37880668D01*
X96769737Y-37766503D01*
X96755173Y-37731342D01*
X96709397Y-37620827D01*
X96709390Y-37620814D01*
X96621789Y-37489711D01*
X96621786Y-37489707D01*
X96510292Y-37378213D01*
X96510288Y-37378210D01*
X96379185Y-37290609D01*
X96379172Y-37290602D01*
X96233501Y-37230264D01*
X96233489Y-37230261D01*
X96078845Y-37199500D01*
X96078842Y-37199500D01*
X95921158Y-37199500D01*
X95921155Y-37199500D01*
X95766510Y-37230261D01*
X95766498Y-37230264D01*
X95620827Y-37290602D01*
X95620814Y-37290609D01*
X95489711Y-37378210D01*
X95489707Y-37378213D01*
X95378213Y-37489707D01*
X95378210Y-37489711D01*
X95290609Y-37620814D01*
X95290602Y-37620827D01*
X95230264Y-37766498D01*
X95230261Y-37766508D01*
X95215704Y-37839692D01*
X95183319Y-37901603D01*
X95122603Y-37936177D01*
X95094087Y-37939500D01*
X94474499Y-37939500D01*
X94407460Y-37919815D01*
X94361705Y-37867011D01*
X94350499Y-37815500D01*
X94350499Y-37642129D01*
X94350498Y-37642123D01*
X94350497Y-37642116D01*
X94344091Y-37582517D01*
X94342949Y-37579456D01*
X94293797Y-37447671D01*
X94293793Y-37447664D01*
X94207547Y-37332455D01*
X94207544Y-37332452D01*
X94092335Y-37246206D01*
X94092328Y-37246202D01*
X93960917Y-37197189D01*
X93904983Y-37155318D01*
X93880566Y-37089853D01*
X93895418Y-37021580D01*
X93916563Y-36993332D01*
X94030104Y-36879792D01*
X94155051Y-36707816D01*
X94251557Y-36518412D01*
X94317246Y-36316243D01*
X94350500Y-36106287D01*
X94350500Y-35893713D01*
X94317246Y-35683757D01*
X94251557Y-35481588D01*
X94155051Y-35292184D01*
X94155049Y-35292181D01*
X94155048Y-35292179D01*
X94030109Y-35120213D01*
X93879786Y-34969890D01*
X93707820Y-34844951D01*
X93518414Y-34748444D01*
X93518413Y-34748443D01*
X93518412Y-34748443D01*
X93316243Y-34682754D01*
X93316241Y-34682753D01*
X93316240Y-34682753D01*
X93127103Y-34652797D01*
X93106287Y-34649500D01*
X92893713Y-34649500D01*
X92872897Y-34652797D01*
X92683760Y-34682753D01*
X92481585Y-34748444D01*
X92292179Y-34844951D01*
X92120213Y-34969890D01*
X91969890Y-35120213D01*
X91844951Y-35292179D01*
X91748444Y-35481585D01*
X91748443Y-35481587D01*
X91748443Y-35481588D01*
X91731969Y-35532289D01*
X91682753Y-35683760D01*
X91663446Y-35805663D01*
X91649500Y-35893713D01*
X83000000Y-35893713D01*
X83000000Y-35374499D01*
X83019685Y-35307460D01*
X83072489Y-35261705D01*
X83123998Y-35250499D01*
X83950008Y-35250499D01*
X84052797Y-35239999D01*
X84219334Y-35184814D01*
X84368656Y-35092712D01*
X84492712Y-34968656D01*
X84584814Y-34819334D01*
X84639999Y-34652797D01*
X84650500Y-34550009D01*
X84650500Y-34549986D01*
X87350001Y-34549986D01*
X87360494Y-34652697D01*
X87415641Y-34819119D01*
X87415643Y-34819124D01*
X87507684Y-34968345D01*
X87631654Y-35092315D01*
X87780875Y-35184356D01*
X87780880Y-35184358D01*
X87947302Y-35239505D01*
X87947309Y-35239506D01*
X88050019Y-35249999D01*
X88774999Y-35249999D01*
X89275000Y-35249999D01*
X89999972Y-35249999D01*
X89999986Y-35249998D01*
X90102697Y-35239505D01*
X90269119Y-35184358D01*
X90269124Y-35184356D01*
X90418345Y-35092315D01*
X90542315Y-34968345D01*
X90634356Y-34819124D01*
X90634358Y-34819119D01*
X90689505Y-34652697D01*
X90689506Y-34652690D01*
X90699999Y-34549986D01*
X90700000Y-34549973D01*
X90700000Y-33250000D01*
X89275000Y-33250000D01*
X89275000Y-35249999D01*
X88774999Y-35249999D01*
X88775000Y-35249998D01*
X88775000Y-33250000D01*
X87350001Y-33250000D01*
X87350001Y-34549986D01*
X84650500Y-34549986D01*
X84650499Y-32980520D01*
X84650499Y-31450013D01*
X87350000Y-31450013D01*
X87350000Y-32750000D01*
X88775000Y-32750000D01*
X89275000Y-32750000D01*
X90699999Y-32750000D01*
X90699999Y-31450028D01*
X90699998Y-31450013D01*
X90689505Y-31347302D01*
X90634358Y-31180880D01*
X90634356Y-31180875D01*
X90542315Y-31031654D01*
X90418345Y-30907684D01*
X90269124Y-30815643D01*
X90269119Y-30815641D01*
X90102697Y-30760494D01*
X90102690Y-30760493D01*
X89999986Y-30750000D01*
X89275000Y-30750000D01*
X89275000Y-32750000D01*
X88775000Y-32750000D01*
X88775000Y-30750000D01*
X88050028Y-30750000D01*
X88050012Y-30750001D01*
X87947302Y-30760494D01*
X87780880Y-30815641D01*
X87780875Y-30815643D01*
X87631654Y-30907684D01*
X87507684Y-31031654D01*
X87415643Y-31180875D01*
X87415641Y-31180880D01*
X87360494Y-31347302D01*
X87360493Y-31347309D01*
X87350000Y-31450013D01*
X84650499Y-31450013D01*
X84650499Y-31449998D01*
X84650498Y-31449981D01*
X84639999Y-31347203D01*
X84639998Y-31347200D01*
X84633050Y-31326232D01*
X84584814Y-31180666D01*
X84492712Y-31031344D01*
X84368656Y-30907288D01*
X84263343Y-30842331D01*
X84219336Y-30815187D01*
X84219331Y-30815185D01*
X84177127Y-30801200D01*
X84052797Y-30760001D01*
X84052795Y-30760000D01*
X83950016Y-30749500D01*
X83124000Y-30749500D01*
X83056961Y-30729815D01*
X83011206Y-30677011D01*
X83000000Y-30625500D01*
X83000000Y-27299983D01*
X85274500Y-27299983D01*
X85274500Y-28700001D01*
X85274501Y-28700018D01*
X85285000Y-28802796D01*
X85285001Y-28802799D01*
X85340115Y-28969119D01*
X85340186Y-28969334D01*
X85432288Y-29118656D01*
X85556344Y-29242712D01*
X85705666Y-29334814D01*
X85872203Y-29389999D01*
X85974991Y-29400500D01*
X86900008Y-29400499D01*
X86900016Y-29400498D01*
X86900019Y-29400498D01*
X86956302Y-29394748D01*
X87002797Y-29389999D01*
X87169334Y-29334814D01*
X87318656Y-29242712D01*
X87442712Y-29118656D01*
X87534814Y-28969334D01*
X87589999Y-28802797D01*
X87600500Y-28700009D01*
X87600500Y-28699986D01*
X88400001Y-28699986D01*
X88410494Y-28802697D01*
X88465641Y-28969119D01*
X88465643Y-28969124D01*
X88557684Y-29118345D01*
X88681654Y-29242315D01*
X88830875Y-29334356D01*
X88830880Y-29334358D01*
X88997302Y-29389505D01*
X88997309Y-29389506D01*
X89100019Y-29399999D01*
X89312499Y-29399999D01*
X89812500Y-29399999D01*
X90024972Y-29399999D01*
X90024986Y-29399998D01*
X90127697Y-29389505D01*
X90294119Y-29334358D01*
X90294124Y-29334356D01*
X90443345Y-29242315D01*
X90567315Y-29118345D01*
X90659356Y-28969124D01*
X90659358Y-28969119D01*
X90698123Y-28852135D01*
X94109500Y-28852135D01*
X94109500Y-30647870D01*
X94109501Y-30647876D01*
X94115908Y-30707483D01*
X94166202Y-30842328D01*
X94166206Y-30842335D01*
X94252452Y-30957544D01*
X94252455Y-30957547D01*
X94367664Y-31043793D01*
X94367671Y-31043797D01*
X94502517Y-31094091D01*
X94502516Y-31094091D01*
X94509444Y-31094835D01*
X94562127Y-31100500D01*
X96357872Y-31100499D01*
X96417483Y-31094091D01*
X96552331Y-31043796D01*
X96667546Y-30957546D01*
X96753796Y-30842331D01*
X96802810Y-30710916D01*
X96844681Y-30654984D01*
X96910145Y-30630566D01*
X96978418Y-30645417D01*
X97006673Y-30666569D01*
X97120213Y-30780109D01*
X97292179Y-30905048D01*
X97292181Y-30905049D01*
X97292184Y-30905051D01*
X97481588Y-31001557D01*
X97683757Y-31067246D01*
X97893713Y-31100500D01*
X97893714Y-31100500D01*
X98106286Y-31100500D01*
X98106287Y-31100500D01*
X98316243Y-31067246D01*
X98518412Y-31001557D01*
X98707816Y-30905051D01*
X98794138Y-30842335D01*
X98879786Y-30780109D01*
X98879788Y-30780106D01*
X98879792Y-30780104D01*
X99030104Y-30629792D01*
X99030106Y-30629788D01*
X99030109Y-30629786D01*
X99143896Y-30473169D01*
X99155051Y-30457816D01*
X99159514Y-30449054D01*
X99207488Y-30398259D01*
X99275308Y-30381463D01*
X99341444Y-30403999D01*
X99380486Y-30449056D01*
X99384951Y-30457820D01*
X99509890Y-30629786D01*
X99660213Y-30780109D01*
X99832179Y-30905048D01*
X99832181Y-30905049D01*
X99832184Y-30905051D01*
X100021588Y-31001557D01*
X100223757Y-31067246D01*
X100433713Y-31100500D01*
X100433714Y-31100500D01*
X100646286Y-31100500D01*
X100646287Y-31100500D01*
X100856243Y-31067246D01*
X100898523Y-31053507D01*
X100968362Y-31051511D01*
X101024521Y-31083756D01*
X101831284Y-31890520D01*
X101831286Y-31890521D01*
X101831290Y-31890524D01*
X101903199Y-31932040D01*
X101968216Y-31969577D01*
X102120943Y-32010501D01*
X102120945Y-32010501D01*
X102286654Y-32010501D01*
X102286670Y-32010500D01*
X104771349Y-32010500D01*
X104838388Y-32030185D01*
X104859030Y-32046819D01*
X104882837Y-32070626D01*
X104973619Y-32131284D01*
X105022137Y-32163703D01*
X105176918Y-32227816D01*
X105341228Y-32260499D01*
X105341232Y-32260500D01*
X105341233Y-32260500D01*
X105508768Y-32260500D01*
X105508769Y-32260499D01*
X105673082Y-32227816D01*
X105827863Y-32163703D01*
X105931109Y-32094716D01*
X105997787Y-32073838D01*
X106065167Y-32092323D01*
X106068891Y-32094716D01*
X106172137Y-32163703D01*
X106326918Y-32227816D01*
X106491228Y-32260499D01*
X106491232Y-32260500D01*
X106491233Y-32260500D01*
X106658768Y-32260500D01*
X106658769Y-32260499D01*
X106823082Y-32227816D01*
X106977863Y-32163703D01*
X107117162Y-32070626D01*
X107235626Y-31952162D01*
X107328703Y-31812863D01*
X107392816Y-31658082D01*
X107425500Y-31493767D01*
X107425500Y-31326233D01*
X107392816Y-31161918D01*
X107328703Y-31007137D01*
X107295566Y-30957544D01*
X107235626Y-30867837D01*
X107117162Y-30749373D01*
X106977860Y-30656295D01*
X106823082Y-30592184D01*
X106823074Y-30592182D01*
X106658771Y-30559500D01*
X106658767Y-30559500D01*
X106491233Y-30559500D01*
X106491228Y-30559500D01*
X106326925Y-30592182D01*
X106326917Y-30592184D01*
X106172140Y-30656295D01*
X106068890Y-30725284D01*
X106053432Y-30730123D01*
X106040211Y-30739480D01*
X106020776Y-30740348D01*
X106002212Y-30746161D01*
X105985856Y-30741908D01*
X105970411Y-30742599D01*
X105944354Y-30731119D01*
X105937684Y-30729385D01*
X105934319Y-30727429D01*
X105827863Y-30656297D01*
X105772494Y-30633362D01*
X105765303Y-30629182D01*
X105746753Y-30609612D01*
X105725762Y-30592696D01*
X105723080Y-30584638D01*
X105717236Y-30578473D01*
X105712211Y-30551981D01*
X105703698Y-30526402D01*
X105705798Y-30518171D01*
X105704216Y-30509827D01*
X105714309Y-30484828D01*
X105720978Y-30458703D01*
X105729057Y-30448302D01*
X105730375Y-30445039D01*
X105733079Y-30443125D01*
X105739931Y-30434304D01*
X105805520Y-30368716D01*
X105805521Y-30368713D01*
X106537416Y-29636819D01*
X106598739Y-29603334D01*
X106625097Y-29600500D01*
X106658768Y-29600500D01*
X106658769Y-29600499D01*
X106823082Y-29567816D01*
X106977863Y-29503703D01*
X107117162Y-29410626D01*
X107235626Y-29292162D01*
X107328703Y-29152863D01*
X107392816Y-28998082D01*
X107425500Y-28833767D01*
X107425500Y-28666233D01*
X107392816Y-28501918D01*
X107328703Y-28347137D01*
X107263798Y-28250000D01*
X107235626Y-28207837D01*
X107117162Y-28089373D01*
X106977860Y-27996295D01*
X106823082Y-27932184D01*
X106823074Y-27932182D01*
X106658771Y-27899500D01*
X106658767Y-27899500D01*
X106491233Y-27899500D01*
X106491228Y-27899500D01*
X106326925Y-27932182D01*
X106326917Y-27932184D01*
X106172140Y-27996295D01*
X106068890Y-28065284D01*
X106002212Y-28086161D01*
X105934832Y-28067676D01*
X105931110Y-28065284D01*
X105860673Y-28018220D01*
X105827863Y-27996297D01*
X105827860Y-27996295D01*
X105827859Y-27996295D01*
X105673082Y-27932184D01*
X105673074Y-27932182D01*
X105508771Y-27899500D01*
X105508767Y-27899500D01*
X105341233Y-27899500D01*
X105341228Y-27899500D01*
X105176925Y-27932182D01*
X105176917Y-27932184D01*
X105022140Y-27996295D01*
X105022125Y-27996303D01*
X105020571Y-27997342D01*
X105019632Y-27997635D01*
X105016762Y-27999170D01*
X105016471Y-27998625D01*
X104953894Y-28018220D01*
X104886514Y-27999735D01*
X104864000Y-27981921D01*
X104760292Y-27878213D01*
X104760288Y-27878210D01*
X104629185Y-27790609D01*
X104629172Y-27790602D01*
X104483501Y-27730264D01*
X104483489Y-27730261D01*
X104328845Y-27699500D01*
X104328842Y-27699500D01*
X104171158Y-27699500D01*
X104171155Y-27699500D01*
X104016510Y-27730261D01*
X104016498Y-27730264D01*
X103870827Y-27790602D01*
X103870814Y-27790609D01*
X103739711Y-27878210D01*
X103739707Y-27878213D01*
X103628213Y-27989707D01*
X103628208Y-27989713D01*
X103596289Y-28037483D01*
X103580123Y-28050992D01*
X103567498Y-28067858D01*
X103553852Y-28072947D01*
X103542676Y-28082288D01*
X103521771Y-28084913D01*
X103502034Y-28092275D01*
X103487802Y-28089179D01*
X103473351Y-28090994D01*
X103454346Y-28081901D01*
X103433761Y-28077423D01*
X103413877Y-28062538D01*
X103410324Y-28060838D01*
X103405507Y-28056272D01*
X103237590Y-27888355D01*
X103237588Y-27888352D01*
X103118717Y-27769481D01*
X103118716Y-27769480D01*
X103031904Y-27719360D01*
X103031904Y-27719359D01*
X103031900Y-27719358D01*
X102981785Y-27690423D01*
X102829057Y-27649499D01*
X102670943Y-27649499D01*
X102663347Y-27649499D01*
X102663331Y-27649500D01*
X99420940Y-27649500D01*
X99380019Y-27660464D01*
X99380019Y-27660465D01*
X99342751Y-27670451D01*
X99268214Y-27690423D01*
X99268209Y-27690426D01*
X99131290Y-27769475D01*
X99131282Y-27769481D01*
X99019478Y-27881286D01*
X98484522Y-28416241D01*
X98423199Y-28449726D01*
X98358523Y-28446491D01*
X98316245Y-28432754D01*
X98176272Y-28410584D01*
X98106287Y-28399500D01*
X97893713Y-28399500D01*
X97788015Y-28416241D01*
X97678945Y-28433516D01*
X97678765Y-28432381D01*
X97614398Y-28429163D01*
X97557580Y-28388500D01*
X97533615Y-28336270D01*
X97519738Y-28266510D01*
X97519737Y-28266503D01*
X97512901Y-28250000D01*
X97459397Y-28120827D01*
X97459390Y-28120814D01*
X97371789Y-27989711D01*
X97371786Y-27989707D01*
X97260292Y-27878213D01*
X97260288Y-27878210D01*
X97129185Y-27790609D01*
X97129172Y-27790602D01*
X96983501Y-27730264D01*
X96983489Y-27730261D01*
X96828845Y-27699500D01*
X96828842Y-27699500D01*
X96671158Y-27699500D01*
X96671155Y-27699500D01*
X96516510Y-27730261D01*
X96516498Y-27730264D01*
X96370827Y-27790602D01*
X96370814Y-27790609D01*
X96239711Y-27878210D01*
X96239707Y-27878213D01*
X96128213Y-27989707D01*
X96128210Y-27989711D01*
X96040609Y-28120814D01*
X96040602Y-28120827D01*
X95980264Y-28266498D01*
X95980261Y-28266510D01*
X95973661Y-28299691D01*
X95941276Y-28361602D01*
X95880561Y-28396176D01*
X95852044Y-28399500D01*
X94562129Y-28399500D01*
X94562123Y-28399501D01*
X94502516Y-28405908D01*
X94367671Y-28456202D01*
X94367664Y-28456206D01*
X94252455Y-28542452D01*
X94252452Y-28542455D01*
X94166206Y-28657664D01*
X94166202Y-28657671D01*
X94115908Y-28792517D01*
X94109501Y-28852116D01*
X94109500Y-28852135D01*
X90698123Y-28852135D01*
X90712151Y-28809802D01*
X90712151Y-28809801D01*
X90714504Y-28802700D01*
X90714506Y-28802690D01*
X90724999Y-28699986D01*
X90725000Y-28699973D01*
X90725000Y-28250000D01*
X89812500Y-28250000D01*
X89812500Y-29399999D01*
X89312499Y-29399999D01*
X89312500Y-29399998D01*
X89312500Y-28250000D01*
X88400001Y-28250000D01*
X88400001Y-28699986D01*
X87600500Y-28699986D01*
X87600499Y-27999735D01*
X87600499Y-27300013D01*
X88400000Y-27300013D01*
X88400000Y-27750000D01*
X89312500Y-27750000D01*
X89812500Y-27750000D01*
X90724999Y-27750000D01*
X90724999Y-27300028D01*
X90724998Y-27300013D01*
X90714505Y-27197302D01*
X90659358Y-27030880D01*
X90659356Y-27030875D01*
X90567315Y-26881654D01*
X90443345Y-26757684D01*
X90294124Y-26665643D01*
X90294119Y-26665641D01*
X90127697Y-26610494D01*
X90127690Y-26610493D01*
X90024986Y-26600000D01*
X89812500Y-26600000D01*
X89812500Y-27750000D01*
X89312500Y-27750000D01*
X89312500Y-26600000D01*
X89100029Y-26600000D01*
X89100012Y-26600001D01*
X88997302Y-26610494D01*
X88830880Y-26665641D01*
X88830875Y-26665643D01*
X88681654Y-26757684D01*
X88557684Y-26881654D01*
X88465643Y-27030875D01*
X88465641Y-27030880D01*
X88410494Y-27197302D01*
X88410493Y-27197309D01*
X88400000Y-27300013D01*
X87600499Y-27300013D01*
X87600499Y-27299998D01*
X87600498Y-27299981D01*
X87589999Y-27197203D01*
X87589998Y-27197200D01*
X87582212Y-27173703D01*
X87534814Y-27030666D01*
X87442712Y-26881344D01*
X87318656Y-26757288D01*
X87225888Y-26700069D01*
X87169336Y-26665187D01*
X87169331Y-26665185D01*
X87167862Y-26664698D01*
X87002797Y-26610001D01*
X87002795Y-26610000D01*
X86900010Y-26599500D01*
X85974998Y-26599500D01*
X85974980Y-26599501D01*
X85872203Y-26610000D01*
X85872200Y-26610001D01*
X85705668Y-26665185D01*
X85705663Y-26665187D01*
X85556342Y-26757289D01*
X85432289Y-26881342D01*
X85340187Y-27030663D01*
X85340185Y-27030668D01*
X85316441Y-27102323D01*
X85285001Y-27197203D01*
X85285001Y-27197204D01*
X85285000Y-27197204D01*
X85274500Y-27299983D01*
X83000000Y-27299983D01*
X83000000Y-23124500D01*
X83019685Y-23057461D01*
X83072489Y-23011706D01*
X83124000Y-23000500D01*
X96560903Y-23000500D01*
X96627942Y-23020185D01*
G37*
%TD.AperFunction*%
%TA.AperFunction,Conductor*%
G36*
X103574075Y-39072993D02*
G01*
X103639901Y-39187007D01*
X103732993Y-39280099D01*
X103847007Y-39345925D01*
X103910590Y-39362962D01*
X103278282Y-39995269D01*
X103278282Y-39995270D01*
X103332452Y-40034626D01*
X103332451Y-40034626D01*
X103341495Y-40039234D01*
X103392292Y-40087208D01*
X103409087Y-40155029D01*
X103386550Y-40221164D01*
X103341499Y-40260202D01*
X103332182Y-40264949D01*
X103160213Y-40389890D01*
X103009890Y-40540213D01*
X102884949Y-40712182D01*
X102880484Y-40720946D01*
X102832509Y-40771742D01*
X102764688Y-40788536D01*
X102698553Y-40765998D01*
X102659516Y-40720946D01*
X102655050Y-40712182D01*
X102530109Y-40540213D01*
X102379786Y-40389890D01*
X102207820Y-40264951D01*
X102207115Y-40264591D01*
X102199054Y-40260485D01*
X102148259Y-40212512D01*
X102131463Y-40144692D01*
X102153999Y-40078556D01*
X102199054Y-40039515D01*
X102207816Y-40035051D01*
X102262572Y-39995269D01*
X102379786Y-39910109D01*
X102379788Y-39910106D01*
X102379792Y-39910104D01*
X102530104Y-39759792D01*
X102530106Y-39759788D01*
X102530109Y-39759786D01*
X102615890Y-39641717D01*
X102655051Y-39587816D01*
X102659793Y-39578508D01*
X102707763Y-39527711D01*
X102775583Y-39510911D01*
X102841719Y-39533445D01*
X102880763Y-39578500D01*
X102885373Y-39587547D01*
X102924728Y-39641716D01*
X103557037Y-39009408D01*
X103574075Y-39072993D01*
G37*
%TD.AperFunction*%
%TA.AperFunction,Conductor*%
G36*
X103574075Y-36532993D02*
G01*
X103639901Y-36647007D01*
X103732993Y-36740099D01*
X103847007Y-36805925D01*
X103910591Y-36822962D01*
X103309971Y-37423581D01*
X103388711Y-37540895D01*
X103409727Y-37607529D01*
X103391383Y-37674947D01*
X103342051Y-37720483D01*
X103332440Y-37725380D01*
X103278282Y-37764727D01*
X103278282Y-37764728D01*
X103910591Y-38397037D01*
X103847007Y-38414075D01*
X103732993Y-38479901D01*
X103639901Y-38572993D01*
X103574075Y-38687007D01*
X103557037Y-38750591D01*
X102924728Y-38118282D01*
X102924727Y-38118282D01*
X102885380Y-38172440D01*
X102885376Y-38172446D01*
X102880760Y-38181505D01*
X102832781Y-38232297D01*
X102764959Y-38249087D01*
X102698826Y-38226543D01*
X102659794Y-38181493D01*
X102655051Y-38172184D01*
X102655049Y-38172181D01*
X102655048Y-38172179D01*
X102530109Y-38000213D01*
X102416569Y-37886673D01*
X102383084Y-37825350D01*
X102388068Y-37755658D01*
X102429940Y-37699725D01*
X102460915Y-37682810D01*
X102592331Y-37633796D01*
X102707546Y-37547546D01*
X102793796Y-37432331D01*
X102844091Y-37297483D01*
X102850500Y-37237873D01*
X102850499Y-37213979D01*
X102853330Y-37200963D01*
X102863940Y-37181525D01*
X102870179Y-37160275D01*
X102886803Y-37139643D01*
X102886808Y-37139636D01*
X102886811Y-37139634D01*
X102886818Y-37139626D01*
X103557037Y-36469408D01*
X103574075Y-36532993D01*
G37*
%TD.AperFunction*%
%TD*%
M02*
