%TF.GenerationSoftware,KiCad,Pcbnew,9.0.7*%
%TF.CreationDate,2026-07-30T15:48:48-05:00*%
%TF.ProjectId,Project_Satellite,50726f6a-6563-4745-9f53-6174656c6c69,rev?*%
%TF.SameCoordinates,Original*%
%TF.FileFunction,Soldermask,Top*%
%TF.FilePolarity,Negative*%
%FSLAX46Y46*%
G04 Gerber Fmt 4.6, Leading zero omitted, Abs format (unit mm)*
G04 Created by KiCad (PCBNEW 9.0.7) date 2026-07-30 15:48:48*
%MOMM*%
%LPD*%
G01*
G04 APERTURE LIST*
G04 Aperture macros list*
%AMRoundRect*
0 Rectangle with rounded corners*
0 $1 Rounding radius*
0 $2 $3 $4 $5 $6 $7 $8 $9 X,Y pos of 4 corners*
0 Add a 4 corners polygon primitive as box body*
4,1,4,$2,$3,$4,$5,$6,$7,$8,$9,$2,$3,0*
0 Add four circle primitives for the rounded corners*
1,1,$1+$1,$2,$3*
1,1,$1+$1,$4,$5*
1,1,$1+$1,$6,$7*
1,1,$1+$1,$8,$9*
0 Add four rect primitives between the rounded corners*
20,1,$1+$1,$2,$3,$4,$5,0*
20,1,$1+$1,$4,$5,$6,$7,0*
20,1,$1+$1,$6,$7,$8,$9,0*
20,1,$1+$1,$8,$9,$2,$3,0*%
G04 Aperture macros list end*
%ADD10C,0.000000*%
%ADD11RoundRect,0.237500X0.300000X0.237500X-0.300000X0.237500X-0.300000X-0.237500X0.300000X-0.237500X0*%
%ADD12RoundRect,0.237500X-0.300000X-0.237500X0.300000X-0.237500X0.300000X0.237500X-0.300000X0.237500X0*%
%ADD13RoundRect,0.250000X-0.925000X-1.500000X0.925000X-1.500000X0.925000X1.500000X-0.925000X1.500000X0*%
%ADD14RoundRect,0.237500X0.237500X-0.300000X0.237500X0.300000X-0.237500X0.300000X-0.237500X-0.300000X0*%
%ADD15R,1.700000X1.700000*%
%ADD16C,1.700000*%
%ADD17RoundRect,0.250000X-0.625000X0.400000X-0.625000X-0.400000X0.625000X-0.400000X0.625000X0.400000X0*%
%ADD18R,0.850000X0.280000*%
%ADD19R,0.280000X0.850000*%
%ADD20RoundRect,0.250000X1.500000X-0.925000X1.500000X0.925000X-1.500000X0.925000X-1.500000X-0.925000X0*%
%ADD21RoundRect,0.250000X0.475000X-0.337500X0.475000X0.337500X-0.475000X0.337500X-0.475000X-0.337500X0*%
%ADD22RoundRect,0.237500X0.237500X-0.250000X0.237500X0.250000X-0.237500X0.250000X-0.237500X-0.250000X0*%
%ADD23RoundRect,0.250000X-0.400000X-0.625000X0.400000X-0.625000X0.400000X0.625000X-0.400000X0.625000X0*%
%ADD24RoundRect,0.250000X-0.475000X0.337500X-0.475000X-0.337500X0.475000X-0.337500X0.475000X0.337500X0*%
%ADD25RoundRect,0.250000X0.650000X-0.412500X0.650000X0.412500X-0.650000X0.412500X-0.650000X-0.412500X0*%
%ADD26RoundRect,0.153500X0.153500X-0.733500X0.153500X0.733500X-0.153500X0.733500X-0.153500X-0.733500X0*%
%ADD27RoundRect,0.102000X1.905000X-1.855000X1.905000X1.855000X-1.905000X1.855000X-1.905000X-1.855000X0*%
%ADD28C,0.700000*%
%ADD29RoundRect,0.250000X0.412500X0.650000X-0.412500X0.650000X-0.412500X-0.650000X0.412500X-0.650000X0*%
%ADD30RoundRect,0.250000X-0.337500X-0.475000X0.337500X-0.475000X0.337500X0.475000X-0.337500X0.475000X0*%
%ADD31RoundRect,0.050000X-0.285000X-0.100000X0.285000X-0.100000X0.285000X0.100000X-0.285000X0.100000X0*%
G04 APERTURE END LIST*
D10*
%TO.C,U5*%
G36*
X86019595Y-74459597D02*
G01*
X85030405Y-74459597D01*
X85030405Y-74040405D01*
X86019595Y-74040405D01*
X86019595Y-74459597D01*
G37*
G36*
X86019595Y-74959596D02*
G01*
X85030405Y-74959596D01*
X85030405Y-74540404D01*
X86019595Y-74540404D01*
X86019595Y-74959596D01*
G37*
G36*
X86019595Y-75459597D02*
G01*
X85030405Y-75459597D01*
X85030405Y-75040403D01*
X86019595Y-75040403D01*
X86019595Y-75459597D01*
G37*
G36*
X86019595Y-75959596D02*
G01*
X85030405Y-75959596D01*
X85030405Y-75540405D01*
X86019595Y-75540405D01*
X86019595Y-75959596D01*
G37*
G36*
X86019595Y-76459595D02*
G01*
X85030405Y-76459595D01*
X85030405Y-76040404D01*
X86019595Y-76040404D01*
X86019595Y-76459595D01*
G37*
G36*
X86019595Y-76959597D02*
G01*
X85030405Y-76959597D01*
X85030405Y-76540405D01*
X86019595Y-76540405D01*
X86019595Y-76959597D01*
G37*
G36*
X86019595Y-77459596D02*
G01*
X85030405Y-77459596D01*
X85030405Y-77040404D01*
X86019595Y-77040404D01*
X86019595Y-77459596D01*
G37*
G36*
X86019595Y-77959597D02*
G01*
X85030405Y-77959597D01*
X85030405Y-77540403D01*
X86019595Y-77540403D01*
X86019595Y-77959597D01*
G37*
G36*
X86459155Y-74019595D02*
G01*
X86039963Y-74019595D01*
X86039963Y-73030405D01*
X86459155Y-73030405D01*
X86459155Y-74019595D01*
G37*
G36*
X86459155Y-78969595D02*
G01*
X86039963Y-78969595D01*
X86039963Y-77980405D01*
X86459155Y-77980405D01*
X86459155Y-78969595D01*
G37*
G36*
X86618900Y-77788500D02*
G01*
X86211500Y-77788500D01*
X86211500Y-74211500D01*
X86618900Y-74211500D01*
X86618900Y-77788500D01*
G37*
G36*
X86959281Y-74019595D02*
G01*
X86540089Y-74019595D01*
X86540089Y-73030405D01*
X86959281Y-73030405D01*
X86959281Y-74019595D01*
G37*
G36*
X86959281Y-78969595D02*
G01*
X86540089Y-78969595D01*
X86540089Y-77980405D01*
X86959281Y-77980405D01*
X86959281Y-78969595D01*
G37*
G36*
X87406300Y-77788500D02*
G01*
X87018900Y-77788500D01*
X87018900Y-74211500D01*
X87406300Y-74211500D01*
X87406300Y-77788500D01*
G37*
G36*
X87459407Y-74019595D02*
G01*
X87040215Y-74019595D01*
X87040215Y-73030405D01*
X87459407Y-73030405D01*
X87459407Y-74019595D01*
G37*
G36*
X87459407Y-78969595D02*
G01*
X87040215Y-78969595D01*
X87040215Y-77980405D01*
X87459407Y-77980405D01*
X87459407Y-78969595D01*
G37*
G36*
X88193700Y-77788500D02*
G01*
X87806300Y-77788500D01*
X87806300Y-74211500D01*
X88193700Y-74211500D01*
X88193700Y-77788500D01*
G37*
G36*
X87959533Y-74019595D02*
G01*
X87540341Y-74019595D01*
X87540341Y-73030405D01*
X87959533Y-73030405D01*
X87959533Y-74019595D01*
G37*
G36*
X87959533Y-78969595D02*
G01*
X87540341Y-78969595D01*
X87540341Y-77980405D01*
X87959533Y-77980405D01*
X87959533Y-78969595D01*
G37*
G36*
X88459659Y-74019595D02*
G01*
X88040467Y-74019595D01*
X88040467Y-73030405D01*
X88459659Y-73030405D01*
X88459659Y-74019595D01*
G37*
G36*
X88459659Y-78969595D02*
G01*
X88040467Y-78969595D01*
X88040467Y-77980405D01*
X88459659Y-77980405D01*
X88459659Y-78969595D01*
G37*
G36*
X88981100Y-77788500D02*
G01*
X88593700Y-77788500D01*
X88593700Y-74211500D01*
X88981100Y-74211500D01*
X88981100Y-77788500D01*
G37*
G36*
X88959785Y-74019595D02*
G01*
X88540593Y-74019595D01*
X88540593Y-73030405D01*
X88959785Y-73030405D01*
X88959785Y-74019595D01*
G37*
G36*
X88959785Y-78969595D02*
G01*
X88540593Y-78969595D01*
X88540593Y-77980405D01*
X88959785Y-77980405D01*
X88959785Y-78969595D01*
G37*
G36*
X89459911Y-74019595D02*
G01*
X89040719Y-74019595D01*
X89040719Y-73030405D01*
X89459911Y-73030405D01*
X89459911Y-74019595D01*
G37*
G36*
X89459911Y-78969595D02*
G01*
X89040719Y-78969595D01*
X89040719Y-77980405D01*
X89459911Y-77980405D01*
X89459911Y-78969595D01*
G37*
G36*
X89788500Y-74618900D02*
G01*
X86211500Y-74618900D01*
X86211500Y-74211500D01*
X89788500Y-74211500D01*
X89788500Y-74618900D01*
G37*
G36*
X89788500Y-75406300D02*
G01*
X86211500Y-75406300D01*
X86211500Y-75018900D01*
X89788500Y-75018900D01*
X89788500Y-75406300D01*
G37*
G36*
X89788500Y-76193700D02*
G01*
X86211500Y-76193700D01*
X86211500Y-75806300D01*
X89788500Y-75806300D01*
X89788500Y-76193700D01*
G37*
G36*
X89788500Y-76981100D02*
G01*
X86211500Y-76981100D01*
X86211500Y-76593700D01*
X89788500Y-76593700D01*
X89788500Y-76981100D01*
G37*
G36*
X89788500Y-77788500D02*
G01*
X86211500Y-77788500D01*
X86211500Y-77381100D01*
X89788500Y-77381100D01*
X89788500Y-77788500D01*
G37*
G36*
X89788500Y-77788500D02*
G01*
X89381100Y-77788500D01*
X89381100Y-74211500D01*
X89788500Y-74211500D01*
X89788500Y-77788500D01*
G37*
G36*
X89960037Y-74019595D02*
G01*
X89540845Y-74019595D01*
X89540845Y-73030405D01*
X89960037Y-73030405D01*
X89960037Y-74019595D01*
G37*
G36*
X89960037Y-78969595D02*
G01*
X89540845Y-78969595D01*
X89540845Y-77980405D01*
X89960037Y-77980405D01*
X89960037Y-78969595D01*
G37*
G36*
X90969595Y-74459597D02*
G01*
X89980405Y-74459597D01*
X89980405Y-74040403D01*
X90969595Y-74040403D01*
X90969595Y-74459597D01*
G37*
G36*
X90969595Y-74959596D02*
G01*
X89980405Y-74959596D01*
X89980405Y-74540404D01*
X90969595Y-74540404D01*
X90969595Y-74959596D01*
G37*
G36*
X90969595Y-75459595D02*
G01*
X89980405Y-75459595D01*
X89980405Y-75040403D01*
X90969595Y-75040403D01*
X90969595Y-75459595D01*
G37*
G36*
X90969595Y-75959596D02*
G01*
X89980405Y-75959596D01*
X89980405Y-75540405D01*
X90969595Y-75540405D01*
X90969595Y-75959596D01*
G37*
G36*
X90969595Y-76459595D02*
G01*
X89980405Y-76459595D01*
X89980405Y-76040404D01*
X90969595Y-76040404D01*
X90969595Y-76459595D01*
G37*
G36*
X90969595Y-76959597D02*
G01*
X89980405Y-76959597D01*
X89980405Y-76540403D01*
X90969595Y-76540403D01*
X90969595Y-76959597D01*
G37*
G36*
X90969595Y-77459596D02*
G01*
X89980405Y-77459596D01*
X89980405Y-77040404D01*
X90969595Y-77040404D01*
X90969595Y-77459596D01*
G37*
G36*
X90969595Y-77959595D02*
G01*
X89980405Y-77959595D01*
X89980405Y-77540403D01*
X90969595Y-77540403D01*
X90969595Y-77959595D01*
G37*
%TD*%
D11*
%TO.C,C29*%
X82862500Y-64000000D03*
X84587500Y-64000000D03*
%TD*%
D12*
%TO.C,C33*%
X71000000Y-62000000D03*
X69275000Y-62000000D03*
%TD*%
D13*
%TO.C,L1*%
X82975000Y-33000000D03*
X89025000Y-33000000D03*
%TD*%
D14*
%TO.C,C20*%
X75000000Y-76862500D03*
X75000000Y-75137500D03*
%TD*%
%TO.C,C18*%
X86525001Y-71612500D03*
X86525001Y-69887500D03*
%TD*%
D15*
%TO.C,J19*%
X97000000Y-50000000D03*
%TD*%
%TO.C,TP1*%
X94250000Y-79500000D03*
%TD*%
%TO.C,J13*%
X97000000Y-64000000D03*
%TD*%
%TO.C,J27*%
X95460000Y-29750000D03*
D16*
X98000000Y-29750000D03*
X100540000Y-29750000D03*
%TD*%
D17*
%TO.C,R7*%
X79000000Y-75000000D03*
X79000000Y-78100000D03*
%TD*%
D18*
%TO.C,U5*%
X90474999Y-77749999D03*
X90474999Y-77250000D03*
X90474999Y-76750001D03*
X90474999Y-76250000D03*
X90474999Y-75750000D03*
X90474999Y-75249999D03*
X90474999Y-74750000D03*
X90474999Y-74250001D03*
D19*
X89750441Y-73525001D03*
X89250315Y-73525001D03*
X88750189Y-73525001D03*
X88250063Y-73525001D03*
X87749937Y-73525001D03*
X87249811Y-73525001D03*
X86749685Y-73525001D03*
X86249559Y-73525001D03*
D18*
X85525001Y-74250001D03*
X85525001Y-74750000D03*
X85525001Y-75249999D03*
X85525001Y-75750000D03*
X85525001Y-76250000D03*
X85525001Y-76750001D03*
X85525001Y-77250000D03*
X85525001Y-77749999D03*
D19*
X86249559Y-78474999D03*
X86749685Y-78474999D03*
X87249811Y-78474999D03*
X87749937Y-78474999D03*
X88250063Y-78474999D03*
X88750189Y-78474999D03*
X89250315Y-78474999D03*
X89750441Y-78474999D03*
%TD*%
D15*
%TO.C,J3*%
X97000000Y-68000000D03*
%TD*%
D14*
%TO.C,C22*%
X72000000Y-76725000D03*
X72000000Y-75000000D03*
%TD*%
D15*
%TO.C,U4*%
X101500000Y-36340000D03*
D16*
X104040000Y-36340000D03*
X101500000Y-38880000D03*
X104040000Y-38880000D03*
X101500000Y-41420000D03*
X104040000Y-41420000D03*
X101500000Y-43960000D03*
X104040000Y-43960000D03*
X101500000Y-46500000D03*
X104040000Y-46500000D03*
X101500000Y-49040000D03*
X104040000Y-49040000D03*
X101500000Y-51580000D03*
X104040000Y-51580000D03*
X101500000Y-54120000D03*
X104040000Y-54120000D03*
X101500000Y-56660000D03*
X104040000Y-56660000D03*
X101500000Y-59200000D03*
X104040000Y-59200000D03*
X101500000Y-61740000D03*
X104040000Y-61740000D03*
X101500000Y-64280000D03*
X104040000Y-64280000D03*
X101500000Y-66820000D03*
X104040000Y-66820000D03*
X101500000Y-69360000D03*
X104040000Y-69360000D03*
X101500000Y-71900000D03*
X104040000Y-71900000D03*
X101500000Y-74440000D03*
X104040000Y-74440000D03*
X101500000Y-76980000D03*
X104040000Y-76980000D03*
X101500000Y-79520000D03*
X104040000Y-79520000D03*
X101500000Y-82060000D03*
X104040000Y-82060000D03*
X101500000Y-84600000D03*
X104040000Y-84600000D03*
%TD*%
D20*
%TO.C,L4*%
X82000000Y-49987500D03*
X82000000Y-43937500D03*
%TD*%
D15*
%TO.C,J1*%
X73250000Y-28460000D03*
D16*
X73250000Y-31000000D03*
%TD*%
D21*
%TO.C,C12*%
X98500000Y-38537500D03*
X98500000Y-36462500D03*
%TD*%
D22*
%TO.C,R2*%
X82000000Y-27912500D03*
X82000000Y-26087500D03*
%TD*%
D15*
%TO.C,J18*%
X97750000Y-80000000D03*
%TD*%
D23*
%TO.C,R5*%
X88250315Y-81525001D03*
X91350315Y-81525001D03*
%TD*%
D24*
%TO.C,C1*%
X76000000Y-31172500D03*
X76000000Y-33247500D03*
%TD*%
D15*
%TO.C,J6*%
X89525001Y-69750000D03*
D16*
X92065001Y-69750000D03*
%TD*%
D15*
%TO.C,J5*%
X97000000Y-42000000D03*
D16*
X94460000Y-42000000D03*
%TD*%
D25*
%TO.C,C8*%
X76250000Y-29272500D03*
X76250000Y-26147500D03*
%TD*%
D20*
%TO.C,L5*%
X74000000Y-59987500D03*
X74000000Y-53937500D03*
%TD*%
D14*
%TO.C,C19*%
X77000000Y-77862500D03*
X77000000Y-76137500D03*
%TD*%
D15*
%TO.C,J9*%
X76000000Y-39962500D03*
D16*
X73460000Y-39962500D03*
%TD*%
D15*
%TO.C,J26*%
X80710000Y-84750000D03*
D16*
X83250000Y-84750000D03*
X85790000Y-84750000D03*
%TD*%
D15*
%TO.C,J24*%
X93000000Y-50000000D03*
%TD*%
%TO.C,J4*%
X97000000Y-72000000D03*
%TD*%
D14*
%TO.C,C13*%
X92525001Y-74475000D03*
X92525001Y-72750000D03*
%TD*%
D15*
%TO.C,J7*%
X90250315Y-84525001D03*
%TD*%
D12*
%TO.C,C34*%
X79137500Y-30000000D03*
X80862500Y-30000000D03*
%TD*%
D26*
%TO.C,U8*%
X70050000Y-73000000D03*
X70700000Y-73000000D03*
X71350000Y-73000000D03*
X72000000Y-73000000D03*
X72650000Y-73000000D03*
X73300000Y-73000000D03*
X73950000Y-73000000D03*
X74600000Y-73000000D03*
X75250000Y-73000000D03*
X75900000Y-73000000D03*
X76550000Y-73000000D03*
X77200000Y-73000000D03*
X77850000Y-73000000D03*
X78500000Y-73000000D03*
X79150000Y-73000000D03*
X79800000Y-73000000D03*
X79800000Y-65560000D03*
X79150000Y-65560000D03*
X78500000Y-65560000D03*
X77850000Y-65560000D03*
X77200000Y-65560000D03*
X76550000Y-65560000D03*
X75900000Y-65560000D03*
X75250000Y-65560000D03*
X74600000Y-65560000D03*
X73950000Y-65560000D03*
X73300000Y-65560000D03*
X72650000Y-65560000D03*
X72000000Y-65560000D03*
X71350000Y-65560000D03*
X70700000Y-65560000D03*
X70050000Y-65560000D03*
D27*
X74925000Y-69280000D03*
%TD*%
D28*
%TO.C,U6*%
X106575000Y-28750000D03*
X105425000Y-28750000D03*
X105425000Y-31410000D03*
X106575000Y-31410000D03*
%TD*%
D15*
%TO.C,J28*%
X95710000Y-25000000D03*
D16*
X98250000Y-25000000D03*
X100790000Y-25000000D03*
%TD*%
D15*
%TO.C,J25*%
X71420000Y-82250000D03*
D16*
X73960000Y-82250000D03*
X76500000Y-82250000D03*
%TD*%
D15*
%TO.C,J16*%
X97000000Y-60000000D03*
%TD*%
D29*
%TO.C,C9*%
X89562500Y-28000000D03*
X86437500Y-28000000D03*
%TD*%
D15*
%TO.C,J2*%
X97000000Y-46000000D03*
%TD*%
%TO.C,J21*%
X97000000Y-54000000D03*
%TD*%
%TO.C,J23*%
X97000000Y-84000000D03*
%TD*%
%TO.C,J20*%
X93000000Y-54000000D03*
%TD*%
D14*
%TO.C,C16*%
X83525001Y-74612500D03*
X83525001Y-72887500D03*
%TD*%
D15*
%TO.C,J17*%
X97000000Y-76000000D03*
%TD*%
D20*
%TO.C,L3*%
X74000000Y-50062500D03*
X74000000Y-44012500D03*
%TD*%
D15*
%TO.C,J22*%
X93000000Y-62000000D03*
%TD*%
D30*
%TO.C,C23*%
X84212815Y-80525001D03*
X86287815Y-80525001D03*
%TD*%
D15*
%TO.C,J14*%
X93000000Y-66000000D03*
%TD*%
D28*
%TO.C,U7*%
X106825000Y-23760000D03*
X105675000Y-23760000D03*
X105675000Y-26420000D03*
X106825000Y-26420000D03*
%TD*%
D15*
%TO.C,J8*%
X80000000Y-39962500D03*
D16*
X82540000Y-39962500D03*
%TD*%
D31*
%TO.C,U3*%
X78260000Y-27000000D03*
X78260000Y-27500000D03*
X78260000Y-28000000D03*
X78260000Y-28500000D03*
X79740000Y-28500000D03*
X79740000Y-28000000D03*
X79740000Y-27500000D03*
X79740000Y-27000000D03*
%TD*%
D15*
%TO.C,J11*%
X83000000Y-68250000D03*
%TD*%
%TO.C,J10*%
X87000000Y-64500000D03*
%TD*%
%TO.C,J15*%
X79000000Y-33000000D03*
%TD*%
%TO.C,D1*%
X93000000Y-38540000D03*
D16*
X93000000Y-36000000D03*
%TD*%
D15*
%TO.C,J12*%
X81000000Y-77000000D03*
%TD*%
D20*
%TO.C,L2*%
X82000000Y-59987500D03*
X82000000Y-53937500D03*
%TD*%
M02*
