%TF.GenerationSoftware,KiCad,Pcbnew,9.0.7*%
%TF.CreationDate,2026-07-30T15:48:48-05:00*%
%TF.ProjectId,Project_Satellite,50726f6a-6563-4745-9f53-6174656c6c69,rev?*%
%TF.SameCoordinates,Original*%
%TF.FileFunction,Legend,Bot*%
%TF.FilePolarity,Positive*%
%FSLAX46Y46*%
G04 Gerber Fmt 4.6, Leading zero omitted, Abs format (unit mm)*
G04 Created by KiCad (PCBNEW 9.0.7) date 2026-07-30 15:48:48*
%MOMM*%
%LPD*%
G01*
G04 APERTURE LIST*
%ADD10C,0.250000*%
%ADD11C,0.100000*%
%ADD12C,0.150000*%
%ADD13C,0.120000*%
G04 APERTURE END LIST*
D10*
G36*
X86485000Y-46025698D02*
G01*
X86129382Y-46025698D01*
X86129382Y-46116678D01*
X86123458Y-46213158D01*
X86107412Y-46288553D01*
X86083220Y-46346938D01*
X86048090Y-46399252D01*
X86007409Y-46439102D01*
X85960732Y-46468083D01*
X85908816Y-46488260D01*
X85854634Y-46500382D01*
X85797578Y-46504475D01*
X85725745Y-46498403D01*
X85664921Y-46481201D01*
X85613073Y-46453662D01*
X85568722Y-46415571D01*
X85534864Y-46369285D01*
X85508857Y-46309179D01*
X85491691Y-46231936D01*
X85485375Y-46133470D01*
X85485375Y-46122296D01*
X85658970Y-46122296D01*
X85663898Y-46178414D01*
X85677090Y-46219900D01*
X85697103Y-46250224D01*
X85723909Y-46271733D01*
X85758891Y-46285324D01*
X85804600Y-46290274D01*
X85855080Y-46283837D01*
X85892484Y-46266183D01*
X85920127Y-46237762D01*
X85939034Y-46201053D01*
X85951308Y-46154509D01*
X85955786Y-46095674D01*
X85955786Y-46025698D01*
X85658970Y-46025698D01*
X85658970Y-46122296D01*
X85485375Y-46122296D01*
X85485375Y-45814306D01*
X86485000Y-45814306D01*
X86485000Y-46025698D01*
G37*
G36*
X85706598Y-47102748D02*
G01*
X85708002Y-47139140D01*
X85712215Y-47172785D01*
X85908220Y-47157397D01*
X85903335Y-47128638D01*
X85901198Y-47095787D01*
X85905944Y-47043568D01*
X85920127Y-46993571D01*
X85944838Y-46949242D01*
X85981004Y-46914498D01*
X86010504Y-46898528D01*
X86048076Y-46888175D01*
X86095799Y-46884395D01*
X86485000Y-46884395D01*
X86485000Y-46675750D01*
X85720580Y-46675750D01*
X85720580Y-46833959D01*
X85849419Y-46864794D01*
X85849419Y-46874564D01*
X85795216Y-46914085D01*
X85748607Y-46966949D01*
X85725400Y-47007867D01*
X85711398Y-47052772D01*
X85706598Y-47102748D01*
G37*
G36*
X86185247Y-47242025D02*
G01*
X86256669Y-47258223D01*
X86317693Y-47283854D01*
X86372839Y-47320062D01*
X86417524Y-47363514D01*
X86452821Y-47414768D01*
X86478136Y-47471893D01*
X86493639Y-47534741D01*
X86498982Y-47604484D01*
X86491915Y-47689531D01*
X86471871Y-47761812D01*
X86439776Y-47823649D01*
X86395423Y-47876753D01*
X86340990Y-47918868D01*
X86275450Y-47949997D01*
X86196557Y-47969808D01*
X86101416Y-47976893D01*
X86017544Y-47971123D01*
X85946612Y-47954883D01*
X85886482Y-47929266D01*
X85832187Y-47893213D01*
X85787967Y-47850004D01*
X85752821Y-47799084D01*
X85727535Y-47742369D01*
X85711982Y-47679330D01*
X85706598Y-47608697D01*
X85706828Y-47605888D01*
X85874576Y-47605888D01*
X85881501Y-47658842D01*
X85900526Y-47698037D01*
X85931301Y-47726972D01*
X85971041Y-47746118D01*
X86026223Y-47759155D01*
X86101416Y-47764096D01*
X86176590Y-47759185D01*
X86232318Y-47746170D01*
X86272936Y-47726972D01*
X86297901Y-47706056D01*
X86315763Y-47679956D01*
X86326981Y-47647606D01*
X86331004Y-47607293D01*
X86326953Y-47566180D01*
X86315691Y-47533367D01*
X86297823Y-47507065D01*
X86272936Y-47486148D01*
X86232323Y-47466983D01*
X86176595Y-47453988D01*
X86101416Y-47449084D01*
X86026218Y-47454018D01*
X85971036Y-47467035D01*
X85931301Y-47486148D01*
X85900451Y-47515043D01*
X85881462Y-47553841D01*
X85874576Y-47605888D01*
X85706828Y-47605888D01*
X85713621Y-47522788D01*
X85733482Y-47450151D01*
X85765175Y-47388382D01*
X85808813Y-47335695D01*
X85862529Y-47293967D01*
X85927549Y-47263062D01*
X86006186Y-47243350D01*
X86101416Y-47236288D01*
X86185247Y-47242025D01*
G37*
G36*
X85523171Y-48140658D02*
G01*
X85485556Y-48144939D01*
X85459838Y-48156204D01*
X85442693Y-48173509D01*
X85426699Y-48209136D01*
X85421017Y-48254048D01*
X85426635Y-48297837D01*
X85442693Y-48333854D01*
X85459904Y-48351590D01*
X85485633Y-48363082D01*
X85523171Y-48367437D01*
X85559810Y-48363136D01*
X85585437Y-48351683D01*
X85603039Y-48333854D01*
X85619607Y-48297792D01*
X85625387Y-48254048D01*
X85619542Y-48209184D01*
X85603039Y-48173509D01*
X85585502Y-48156112D01*
X85559885Y-48144885D01*
X85523171Y-48140658D01*
G37*
G36*
X86821017Y-48087474D02*
G01*
X86816071Y-48013957D01*
X86804225Y-47950271D01*
X86640399Y-47950271D01*
X86649497Y-47997837D01*
X86652978Y-48048273D01*
X86646866Y-48087546D01*
X86629164Y-48119592D01*
X86610889Y-48134593D01*
X86581642Y-48144948D01*
X86536779Y-48149023D01*
X85720580Y-48149023D01*
X85720580Y-48357668D01*
X86567615Y-48357668D01*
X86635234Y-48350846D01*
X86694987Y-48331045D01*
X86730349Y-48309902D01*
X86760779Y-48281500D01*
X86786700Y-48244950D01*
X86804851Y-48203851D01*
X86816696Y-48152172D01*
X86821017Y-48087474D01*
G37*
G36*
X86194960Y-48535957D02*
G01*
X86266936Y-48553174D01*
X86326852Y-48580173D01*
X86380145Y-48618293D01*
X86422979Y-48664233D01*
X86456301Y-48718781D01*
X86479548Y-48778979D01*
X86493969Y-48846244D01*
X86498982Y-48921808D01*
X86495362Y-49006733D01*
X86485671Y-49072261D01*
X86468683Y-49133142D01*
X86444394Y-49190597D01*
X86283377Y-49190597D01*
X86310593Y-49126106D01*
X86328928Y-49065972D01*
X86339748Y-49003824D01*
X86343583Y-48931577D01*
X86337480Y-48874860D01*
X86320466Y-48829772D01*
X86293208Y-48793702D01*
X86256757Y-48766524D01*
X86211357Y-48748814D01*
X86154600Y-48741190D01*
X86154600Y-49234011D01*
X86053789Y-49234011D01*
X85970871Y-49227521D01*
X85902022Y-49209333D01*
X85844681Y-49180636D01*
X85796906Y-49141565D01*
X85758408Y-49092872D01*
X85730381Y-49036016D01*
X85712807Y-48969413D01*
X85706709Y-48892376D01*
X85854975Y-48892376D01*
X85860595Y-48939657D01*
X85875987Y-48975068D01*
X85900526Y-49001553D01*
X85932512Y-49020705D01*
X85970527Y-49033012D01*
X86015992Y-49038006D01*
X86015992Y-48745403D01*
X85962398Y-48754607D01*
X85922855Y-48770565D01*
X85894176Y-48792237D01*
X85872519Y-48820896D01*
X85859490Y-48853845D01*
X85854975Y-48892376D01*
X85706709Y-48892376D01*
X85706598Y-48890972D01*
X85711853Y-48820277D01*
X85726969Y-48757727D01*
X85751416Y-48701989D01*
X85785799Y-48652238D01*
X85829946Y-48610180D01*
X85885078Y-48575288D01*
X85946027Y-48551015D01*
X86019617Y-48535405D01*
X86108377Y-48529798D01*
X86194960Y-48535957D01*
G37*
G36*
X86498982Y-49713277D02*
G01*
X86492355Y-49628251D01*
X86473775Y-49557552D01*
X86444448Y-49498583D01*
X86404521Y-49449372D01*
X86365933Y-49418191D01*
X86318630Y-49392777D01*
X86261051Y-49373404D01*
X86191250Y-49360842D01*
X86106973Y-49356316D01*
X86014515Y-49362257D01*
X85939507Y-49378644D01*
X85878850Y-49403882D01*
X85824521Y-49440282D01*
X85781507Y-49484164D01*
X85748607Y-49536200D01*
X85725720Y-49594043D01*
X85711530Y-49658727D01*
X85706598Y-49731473D01*
X85710718Y-49807173D01*
X85721985Y-49867943D01*
X85739307Y-49923868D01*
X85758377Y-49969487D01*
X85919394Y-49907877D01*
X85887215Y-49816164D01*
X85877691Y-49773354D01*
X85874576Y-49731473D01*
X85880683Y-49682971D01*
X85897808Y-49644831D01*
X85925859Y-49614526D01*
X85966962Y-49591060D01*
X86025094Y-49575152D01*
X86105629Y-49569112D01*
X86181341Y-49574787D01*
X86236119Y-49589731D01*
X86275012Y-49611794D01*
X86305077Y-49643673D01*
X86323210Y-49682801D01*
X86329600Y-49731473D01*
X86324996Y-49794993D01*
X86312137Y-49847671D01*
X86291459Y-49897035D01*
X86263777Y-49945674D01*
X86441585Y-49945674D01*
X86468146Y-49896595D01*
X86485671Y-49845595D01*
X86495305Y-49789633D01*
X86498982Y-49713277D01*
G37*
G36*
X86332409Y-50443563D02*
G01*
X86325448Y-50510729D01*
X86308595Y-50575148D01*
X86463995Y-50575148D01*
X86476567Y-50539359D01*
X86488480Y-50491862D01*
X86496258Y-50440896D01*
X86498982Y-50383357D01*
X86493167Y-50317165D01*
X86476634Y-50260808D01*
X86458275Y-50227719D01*
X86432679Y-50199419D01*
X86398904Y-50175445D01*
X86360643Y-50158983D01*
X86310527Y-50148010D01*
X86245580Y-50143938D01*
X85877384Y-50143938D01*
X85877384Y-50044531D01*
X85789213Y-50044531D01*
X85719176Y-50159325D01*
X85558220Y-50219531D01*
X85558220Y-50352582D01*
X85720580Y-50352582D01*
X85720580Y-50566722D01*
X85877384Y-50566722D01*
X85877384Y-50352582D01*
X86245580Y-50352582D01*
X86273415Y-50355689D01*
X86294601Y-50364215D01*
X86310732Y-50377739D01*
X86326707Y-50405960D01*
X86332409Y-50443563D01*
G37*
G36*
X86207784Y-51697872D02*
G01*
X86272437Y-51691566D01*
X86328248Y-51673464D01*
X86377013Y-51643884D01*
X86419909Y-51601945D01*
X86452686Y-51552480D01*
X86477356Y-51492155D01*
X86493257Y-51418777D01*
X86498982Y-51329676D01*
X86491968Y-51225590D01*
X86471679Y-51131850D01*
X86438777Y-51046904D01*
X86241428Y-51046904D01*
X86298093Y-51194548D01*
X86317610Y-51271282D01*
X86323982Y-51346467D01*
X86319888Y-51398110D01*
X86309295Y-51433800D01*
X86293879Y-51457781D01*
X86272014Y-51476073D01*
X86246942Y-51486945D01*
X86217615Y-51490693D01*
X86182538Y-51484191D01*
X86153196Y-51464803D01*
X86128371Y-51435797D01*
X86103492Y-51395499D01*
X86053789Y-51296092D01*
X86013916Y-51220499D01*
X85988268Y-51181133D01*
X85956519Y-51142769D01*
X85918920Y-51109297D01*
X85873232Y-51081891D01*
X85821026Y-51064383D01*
X85755629Y-51058078D01*
X85689834Y-51064209D01*
X85634248Y-51081624D01*
X85586862Y-51109717D01*
X85546313Y-51149058D01*
X85514882Y-51196143D01*
X85491535Y-51251974D01*
X85476682Y-51318213D01*
X85471392Y-51396904D01*
X85476021Y-51474019D01*
X85489588Y-51545953D01*
X85511175Y-51616888D01*
X85541428Y-51693659D01*
X85706598Y-51625087D01*
X85680981Y-51557832D01*
X85663183Y-51501867D01*
X85651654Y-51446657D01*
X85647796Y-51389882D01*
X85651327Y-51350664D01*
X85660946Y-51320524D01*
X85675823Y-51297436D01*
X85696299Y-51279584D01*
X85720194Y-51268944D01*
X85748607Y-51265257D01*
X85781517Y-51270527D01*
X85809044Y-51285977D01*
X85832627Y-51312884D01*
X85864112Y-51366841D01*
X85908220Y-51454301D01*
X85946544Y-51527634D01*
X85983813Y-51585154D01*
X86027037Y-51633407D01*
X86076198Y-51668440D01*
X86112785Y-51684252D01*
X86156188Y-51694295D01*
X86207784Y-51697872D01*
G37*
G36*
X85720580Y-51753315D02*
G01*
X85720580Y-51981499D01*
X86150387Y-52125724D01*
X86214134Y-52142516D01*
X86283377Y-52150942D01*
X86283377Y-52155094D01*
X86214134Y-52167001D01*
X86150387Y-52184526D01*
X85720580Y-52325942D01*
X85720580Y-52549913D01*
X86583002Y-52226535D01*
X86658324Y-52191656D01*
X86716938Y-52149373D01*
X86761482Y-52099773D01*
X86794366Y-52041813D01*
X86814212Y-51978172D01*
X86821017Y-51907310D01*
X86817475Y-51846432D01*
X86809781Y-51800942D01*
X86644612Y-51800942D01*
X86650169Y-51838006D01*
X86652978Y-51883496D01*
X86648217Y-51925691D01*
X86634807Y-51959851D01*
X86613044Y-51987788D01*
X86569493Y-52021025D01*
X86517178Y-52044513D01*
X86479382Y-52057092D01*
X85720580Y-51753315D01*
G37*
G36*
X85706598Y-53556132D02*
G01*
X85711393Y-53621485D01*
X85724683Y-53674642D01*
X85745360Y-53717853D01*
X85773093Y-53752870D01*
X85807990Y-53779970D01*
X85853406Y-53800692D01*
X85911886Y-53814343D01*
X85986622Y-53819365D01*
X86485000Y-53819365D01*
X86485000Y-53610721D01*
X86038401Y-53610721D01*
X85971207Y-53604663D01*
X85926040Y-53589065D01*
X85896709Y-53566227D01*
X85879347Y-53536022D01*
X85873171Y-53495927D01*
X85877267Y-53455659D01*
X85888639Y-53423741D01*
X85906703Y-53398334D01*
X85931973Y-53378324D01*
X85972816Y-53360186D01*
X86027997Y-53347936D01*
X86101416Y-53343336D01*
X86485000Y-53343336D01*
X86485000Y-53134752D01*
X86038401Y-53134752D01*
X85971207Y-53128695D01*
X85926040Y-53113096D01*
X85896709Y-53090259D01*
X85879347Y-53060053D01*
X85873171Y-53019958D01*
X85877714Y-52977864D01*
X85890261Y-52945161D01*
X85910205Y-52919679D01*
X85938323Y-52900218D01*
X85983104Y-52883291D01*
X86043989Y-52871729D01*
X86125230Y-52867368D01*
X86485000Y-52867368D01*
X86485000Y-52658723D01*
X85720580Y-52658723D01*
X85720580Y-52818336D01*
X85818583Y-52846363D01*
X85818583Y-52857537D01*
X85782693Y-52883985D01*
X85754475Y-52915743D01*
X85733220Y-52953402D01*
X85713237Y-53015641D01*
X85706598Y-53080164D01*
X85709916Y-53135652D01*
X85719246Y-53182816D01*
X85733892Y-53222924D01*
X85755506Y-53259115D01*
X85783517Y-53288773D01*
X85818583Y-53312561D01*
X85818583Y-53330757D01*
X85782792Y-53357273D01*
X85754557Y-53389472D01*
X85733220Y-53428027D01*
X85713204Y-53491461D01*
X85706598Y-53556132D01*
G37*
G36*
X86821017Y-54241966D02*
G01*
X86513026Y-54241966D01*
X86459221Y-54239240D01*
X86400980Y-54230731D01*
X86400980Y-54241966D01*
X86436150Y-54276467D01*
X86468879Y-54321712D01*
X86484791Y-54355741D01*
X86495183Y-54398893D01*
X86498982Y-54453358D01*
X86492520Y-54515412D01*
X86473719Y-54570371D01*
X86442494Y-54619819D01*
X86397500Y-54664751D01*
X86345295Y-54698691D01*
X86280420Y-54724494D01*
X86200202Y-54741278D01*
X86101416Y-54747366D01*
X86002367Y-54741438D01*
X85922362Y-54725144D01*
X85858077Y-54700202D01*
X85806737Y-54667559D01*
X85762489Y-54624055D01*
X85731673Y-54575580D01*
X85713034Y-54521089D01*
X85706598Y-54458915D01*
X85710742Y-54404752D01*
X85714131Y-54391748D01*
X85873171Y-54391748D01*
X85878806Y-54433337D01*
X85894786Y-54466503D01*
X85921440Y-54493341D01*
X85961251Y-54514492D01*
X86018459Y-54529015D01*
X86098607Y-54534569D01*
X86173001Y-54530047D01*
X86228858Y-54518017D01*
X86270127Y-54500253D01*
X86303263Y-54473145D01*
X86322755Y-54438724D01*
X86329600Y-54394557D01*
X86325351Y-54351991D01*
X86313702Y-54319185D01*
X86295438Y-54293913D01*
X86270127Y-54274817D01*
X86228980Y-54257809D01*
X86173537Y-54246291D01*
X86100012Y-54241966D01*
X86077602Y-54241966D01*
X86008793Y-54248062D01*
X85958911Y-54260516D01*
X85923607Y-54277626D01*
X85896600Y-54303484D01*
X85879515Y-54340219D01*
X85873171Y-54391748D01*
X85714131Y-54391748D01*
X85722253Y-54360578D01*
X85740242Y-54324520D01*
X85777493Y-54277452D01*
X85819987Y-54241966D01*
X85819987Y-54232136D01*
X85720580Y-54202765D01*
X85720580Y-54033322D01*
X86821017Y-54033322D01*
X86821017Y-54241966D01*
G37*
G36*
X85638026Y-55128079D02*
G01*
X85745799Y-55124538D01*
X85818583Y-55118249D01*
X85818583Y-55129484D01*
X85782391Y-55156599D01*
X85754219Y-55187736D01*
X85733220Y-55223273D01*
X85713419Y-55283026D01*
X85706598Y-55350646D01*
X85711185Y-55412679D01*
X85724176Y-55465643D01*
X85744848Y-55511062D01*
X85773093Y-55550131D01*
X85808589Y-55581069D01*
X85854281Y-55604345D01*
X85912577Y-55619507D01*
X85986622Y-55625052D01*
X86485000Y-55625052D01*
X86485000Y-55416469D01*
X86038401Y-55416469D01*
X85972094Y-55410162D01*
X85927069Y-55393806D01*
X85897405Y-55369556D01*
X85879577Y-55336995D01*
X85873171Y-55293249D01*
X85877806Y-55247348D01*
X85890532Y-55211893D01*
X85910532Y-55184502D01*
X85938323Y-55163739D01*
X85983301Y-55145305D01*
X86044187Y-55132788D01*
X86125230Y-55128079D01*
X86485000Y-55128079D01*
X86485000Y-54919435D01*
X85421017Y-54919435D01*
X85421017Y-55128079D01*
X85638026Y-55128079D01*
G37*
G36*
X86185247Y-55798340D02*
G01*
X86256669Y-55814538D01*
X86317693Y-55840169D01*
X86372839Y-55876377D01*
X86417524Y-55919830D01*
X86452821Y-55971084D01*
X86478136Y-56028208D01*
X86493639Y-56091056D01*
X86498982Y-56160799D01*
X86491915Y-56245846D01*
X86471871Y-56318127D01*
X86439776Y-56379965D01*
X86395423Y-56433069D01*
X86340990Y-56475183D01*
X86275450Y-56506312D01*
X86196557Y-56526124D01*
X86101416Y-56533208D01*
X86017544Y-56527438D01*
X85946612Y-56511199D01*
X85886482Y-56485581D01*
X85832187Y-56449529D01*
X85787967Y-56406320D01*
X85752821Y-56355400D01*
X85727535Y-56298684D01*
X85711982Y-56235646D01*
X85706598Y-56165012D01*
X85706828Y-56162204D01*
X85874576Y-56162204D01*
X85881501Y-56215157D01*
X85900526Y-56254352D01*
X85931301Y-56283287D01*
X85971041Y-56302433D01*
X86026223Y-56315471D01*
X86101416Y-56320412D01*
X86176590Y-56315501D01*
X86232318Y-56302486D01*
X86272936Y-56283287D01*
X86297901Y-56262371D01*
X86315763Y-56236271D01*
X86326981Y-56203921D01*
X86331004Y-56163608D01*
X86326953Y-56122495D01*
X86315691Y-56089682D01*
X86297823Y-56063380D01*
X86272936Y-56042464D01*
X86232323Y-56023298D01*
X86176595Y-56010304D01*
X86101416Y-56005400D01*
X86026218Y-56010334D01*
X85971036Y-56023351D01*
X85931301Y-56042464D01*
X85900451Y-56071359D01*
X85881462Y-56110156D01*
X85874576Y-56162204D01*
X85706828Y-56162204D01*
X85713621Y-56079103D01*
X85733482Y-56006467D01*
X85765175Y-55944698D01*
X85808813Y-55892010D01*
X85862529Y-55850282D01*
X85927549Y-55819378D01*
X86006186Y-55799666D01*
X86101416Y-55792603D01*
X86185247Y-55798340D01*
G37*
G36*
X85706598Y-57139358D02*
G01*
X85711175Y-57200642D01*
X85724148Y-57253025D01*
X85744815Y-57298009D01*
X85773093Y-57336767D01*
X85808537Y-57367369D01*
X85854206Y-57390423D01*
X85912517Y-57405455D01*
X85986622Y-57410956D01*
X86485000Y-57410956D01*
X86485000Y-57202373D01*
X86038401Y-57202373D01*
X85983816Y-57198486D01*
X85943623Y-57188191D01*
X85914509Y-57172942D01*
X85892177Y-57150397D01*
X85878252Y-57120013D01*
X85873171Y-57079152D01*
X85877846Y-57032475D01*
X85890628Y-56996734D01*
X85910626Y-56969410D01*
X85938323Y-56948971D01*
X85983253Y-56930898D01*
X86044138Y-56918609D01*
X86125230Y-56913983D01*
X86485000Y-56913983D01*
X86485000Y-56705339D01*
X85720580Y-56705339D01*
X85720580Y-56864951D01*
X85818583Y-56892978D01*
X85818583Y-56904152D01*
X85782840Y-56931564D01*
X85754588Y-56964691D01*
X85733220Y-57004231D01*
X85713306Y-57069618D01*
X85706598Y-57139358D01*
G37*
G36*
X85720580Y-57515492D02*
G01*
X85720580Y-57743676D01*
X86150387Y-57887901D01*
X86214134Y-57904693D01*
X86283377Y-57913119D01*
X86283377Y-57917272D01*
X86214134Y-57929178D01*
X86150387Y-57946703D01*
X85720580Y-58088119D01*
X85720580Y-58312090D01*
X86583002Y-57988713D01*
X86658324Y-57953833D01*
X86716938Y-57911550D01*
X86761482Y-57861951D01*
X86794366Y-57803990D01*
X86814212Y-57740349D01*
X86821017Y-57669487D01*
X86817475Y-57608610D01*
X86809781Y-57563119D01*
X86644612Y-57563119D01*
X86650169Y-57600183D01*
X86652978Y-57645674D01*
X86648217Y-57687868D01*
X86634807Y-57722028D01*
X86613044Y-57749965D01*
X86569493Y-57783203D01*
X86517178Y-57806691D01*
X86479382Y-57819269D01*
X85720580Y-57515492D01*
G37*
G36*
X88165000Y-46548072D02*
G01*
X87926985Y-46620918D01*
X87926985Y-46984901D01*
X88165000Y-47057685D01*
X88165000Y-47285869D01*
X87161222Y-46931717D01*
X87161222Y-46802879D01*
X87316622Y-46802879D01*
X87382384Y-46821075D01*
X87456634Y-46843484D01*
X87516779Y-46861680D01*
X87749176Y-46934465D01*
X87749176Y-46674102D01*
X87516779Y-46745482D01*
X87464328Y-46761602D01*
X87385926Y-46784011D01*
X87316622Y-46802879D01*
X87161222Y-46802879D01*
X87161222Y-46672697D01*
X88165000Y-46319889D01*
X88165000Y-46548072D01*
G37*
G36*
X87386598Y-47828332D02*
G01*
X87391175Y-47889617D01*
X87404148Y-47941999D01*
X87424815Y-47986983D01*
X87453093Y-48025742D01*
X87488537Y-48056343D01*
X87534206Y-48079397D01*
X87592517Y-48094429D01*
X87666622Y-48099930D01*
X88165000Y-48099930D01*
X88165000Y-47891347D01*
X87718401Y-47891347D01*
X87663816Y-47887460D01*
X87623623Y-47877165D01*
X87594509Y-47861916D01*
X87572177Y-47839372D01*
X87558252Y-47808988D01*
X87553171Y-47768126D01*
X87557846Y-47721449D01*
X87570628Y-47685709D01*
X87590626Y-47658384D01*
X87618323Y-47637945D01*
X87663253Y-47619873D01*
X87724138Y-47607584D01*
X87805230Y-47602957D01*
X88165000Y-47602957D01*
X88165000Y-47394313D01*
X87400580Y-47394313D01*
X87400580Y-47553925D01*
X87498583Y-47581952D01*
X87498583Y-47593126D01*
X87462840Y-47620538D01*
X87434588Y-47653665D01*
X87413220Y-47693205D01*
X87393306Y-47758592D01*
X87386598Y-47828332D01*
G37*
G36*
X87203171Y-48305278D02*
G01*
X87165556Y-48309558D01*
X87139838Y-48320824D01*
X87122693Y-48338128D01*
X87106699Y-48373756D01*
X87101017Y-48418667D01*
X87106635Y-48462457D01*
X87122693Y-48498474D01*
X87139904Y-48516210D01*
X87165633Y-48527701D01*
X87203171Y-48532057D01*
X87239810Y-48527755D01*
X87265437Y-48516303D01*
X87283039Y-48498474D01*
X87299607Y-48462412D01*
X87305387Y-48418667D01*
X87299542Y-48373804D01*
X87283039Y-48338128D01*
X87265502Y-48320731D01*
X87239885Y-48309505D01*
X87203171Y-48305278D01*
G37*
G36*
X88501017Y-48252094D02*
G01*
X88496071Y-48178577D01*
X88484225Y-48114890D01*
X88320399Y-48114890D01*
X88329497Y-48162457D01*
X88332978Y-48212893D01*
X88326866Y-48252166D01*
X88309164Y-48284212D01*
X88290889Y-48299213D01*
X88261642Y-48309568D01*
X88216779Y-48313643D01*
X87400580Y-48313643D01*
X87400580Y-48522287D01*
X88247615Y-48522287D01*
X88315234Y-48515466D01*
X88374987Y-48495665D01*
X88410349Y-48474521D01*
X88440779Y-48446119D01*
X88466700Y-48409569D01*
X88484851Y-48368471D01*
X88496696Y-48316791D01*
X88501017Y-48252094D01*
G37*
G36*
X87998385Y-48695050D02*
G01*
X88047892Y-48708442D01*
X88087681Y-48729282D01*
X88119509Y-48757371D01*
X88152092Y-48805171D01*
X88172012Y-48860929D01*
X88178982Y-48926815D01*
X88175360Y-48990074D01*
X88165602Y-49039078D01*
X88151017Y-49076596D01*
X88116014Y-49128142D01*
X88061379Y-49180216D01*
X88061379Y-49185773D01*
X88165000Y-49226378D01*
X88165000Y-49372008D01*
X87655387Y-49372008D01*
X87587340Y-49366200D01*
X87532309Y-49350060D01*
X87487707Y-49324699D01*
X87451688Y-49290065D01*
X87424274Y-49247920D01*
X87403513Y-49195979D01*
X87390058Y-49132217D01*
X87385193Y-49054187D01*
X87389799Y-48974059D01*
X87403389Y-48898055D01*
X87425416Y-48825644D01*
X87453825Y-48761584D01*
X87595181Y-48830216D01*
X87555308Y-48936584D01*
X87543225Y-48990474D01*
X87539188Y-49045822D01*
X87542649Y-49082151D01*
X87552200Y-49110757D01*
X87567215Y-49133322D01*
X87587995Y-49150024D01*
X87616529Y-49160818D01*
X87655387Y-49164829D01*
X87688970Y-49164829D01*
X87810786Y-49164829D01*
X87873801Y-49164829D01*
X87920224Y-49159299D01*
X87957049Y-49143796D01*
X87986519Y-49118606D01*
X88008466Y-49085872D01*
X88021774Y-49048505D01*
X88026392Y-49005216D01*
X88020980Y-48963387D01*
X88006120Y-48932371D01*
X87990488Y-48917448D01*
X87968588Y-48907937D01*
X87938220Y-48904405D01*
X87903590Y-48908910D01*
X87874638Y-48921879D01*
X87849987Y-48943606D01*
X87832858Y-48972082D01*
X87820025Y-49016697D01*
X87813595Y-49083618D01*
X87810786Y-49164829D01*
X87688970Y-49164829D01*
X87693183Y-49031778D01*
X87700298Y-48943909D01*
X87714119Y-48873860D01*
X87733302Y-48818620D01*
X87756931Y-48775567D01*
X87789291Y-48738793D01*
X87828930Y-48712512D01*
X87877327Y-48696071D01*
X87936816Y-48690204D01*
X87998385Y-48695050D01*
G37*
G36*
X87386598Y-50019679D02*
G01*
X87391175Y-50080963D01*
X87404148Y-50133346D01*
X87424815Y-50178330D01*
X87453093Y-50217088D01*
X87488537Y-50247690D01*
X87534206Y-50270744D01*
X87592517Y-50285776D01*
X87666622Y-50291277D01*
X88165000Y-50291277D01*
X88165000Y-50082694D01*
X87718401Y-50082694D01*
X87663816Y-50078807D01*
X87623623Y-50068512D01*
X87594509Y-50053263D01*
X87572177Y-50030718D01*
X87558252Y-50000334D01*
X87553171Y-49959473D01*
X87557846Y-49912796D01*
X87570628Y-49877055D01*
X87590626Y-49849731D01*
X87618323Y-49829292D01*
X87663253Y-49811219D01*
X87724138Y-49798930D01*
X87805230Y-49794304D01*
X88165000Y-49794304D01*
X88165000Y-49585660D01*
X87400580Y-49585660D01*
X87400580Y-49745272D01*
X87498583Y-49773299D01*
X87498583Y-49784473D01*
X87462840Y-49811885D01*
X87434588Y-49845012D01*
X87413220Y-49884552D01*
X87393306Y-49949939D01*
X87386598Y-50019679D01*
G37*
G36*
X87603607Y-51264646D02*
G01*
X87603607Y-51660869D01*
X88121585Y-51660869D01*
X88145299Y-51581269D01*
X88163595Y-51497715D01*
X88174904Y-51410107D01*
X88178982Y-51305251D01*
X88173050Y-51214785D01*
X88156230Y-51136854D01*
X88129540Y-51069533D01*
X88093357Y-51011238D01*
X88047397Y-50960808D01*
X87993707Y-50919837D01*
X87930247Y-50886822D01*
X87855454Y-50861990D01*
X87767390Y-50846111D01*
X87663813Y-50840457D01*
X87560741Y-50847685D01*
X87470907Y-50868311D01*
X87392215Y-50901335D01*
X87337947Y-50935336D01*
X87290553Y-50975902D01*
X87249469Y-51023397D01*
X87214406Y-51078472D01*
X87187828Y-51137126D01*
X87168121Y-51203293D01*
X87155731Y-51278057D01*
X87151392Y-51362648D01*
X87155602Y-51441871D01*
X87168183Y-51519452D01*
X87188164Y-51594138D01*
X87213002Y-51659465D01*
X87382384Y-51589428D01*
X87361072Y-51541160D01*
X87343183Y-51484465D01*
X87331697Y-51424692D01*
X87327796Y-51361244D01*
X87332721Y-51300851D01*
X87346870Y-51247858D01*
X87369806Y-51200960D01*
X87401369Y-51159390D01*
X87440509Y-51124515D01*
X87488142Y-51095935D01*
X87540222Y-51075871D01*
X87599746Y-51063288D01*
X87668026Y-51058871D01*
X87762644Y-51065856D01*
X87841622Y-51085433D01*
X87889315Y-51107148D01*
X87928347Y-51135102D01*
X87959897Y-51169452D01*
X87982844Y-51209774D01*
X87997372Y-51258974D01*
X88002578Y-51319234D01*
X87998426Y-51395560D01*
X87988595Y-51453629D01*
X87780012Y-51453629D01*
X87780012Y-51264646D01*
X87603607Y-51264646D01*
G37*
G36*
X87865247Y-51841118D02*
G01*
X87936669Y-51857316D01*
X87997693Y-51882947D01*
X88052839Y-51919154D01*
X88097524Y-51962607D01*
X88132821Y-52013861D01*
X88158136Y-52070986D01*
X88173639Y-52133834D01*
X88178982Y-52203577D01*
X88171915Y-52288623D01*
X88151871Y-52360904D01*
X88119776Y-52422742D01*
X88075423Y-52475846D01*
X88020990Y-52517960D01*
X87955450Y-52549089D01*
X87876557Y-52568901D01*
X87781416Y-52575986D01*
X87697544Y-52570216D01*
X87626612Y-52553976D01*
X87566482Y-52528358D01*
X87512187Y-52492306D01*
X87467967Y-52449097D01*
X87432821Y-52398177D01*
X87407535Y-52341462D01*
X87391982Y-52278423D01*
X87386598Y-52207790D01*
X87386828Y-52204981D01*
X87554576Y-52204981D01*
X87561501Y-52257935D01*
X87580526Y-52297130D01*
X87611301Y-52326064D01*
X87651041Y-52345210D01*
X87706223Y-52358248D01*
X87781416Y-52363189D01*
X87856590Y-52358278D01*
X87912318Y-52345263D01*
X87952936Y-52326064D01*
X87977901Y-52305149D01*
X87995763Y-52279049D01*
X88006981Y-52246699D01*
X88011004Y-52206385D01*
X88006953Y-52165273D01*
X87995691Y-52132460D01*
X87977823Y-52106158D01*
X87952936Y-52085241D01*
X87912323Y-52066075D01*
X87856595Y-52053081D01*
X87781416Y-52048177D01*
X87706218Y-52053111D01*
X87651036Y-52066128D01*
X87611301Y-52085241D01*
X87580451Y-52114136D01*
X87561462Y-52152934D01*
X87554576Y-52204981D01*
X87386828Y-52204981D01*
X87393621Y-52121881D01*
X87413482Y-52049244D01*
X87445175Y-51987475D01*
X87488813Y-51934787D01*
X87542529Y-51893059D01*
X87607549Y-51862155D01*
X87686186Y-51842443D01*
X87781416Y-51835380D01*
X87865247Y-51841118D01*
G37*
G36*
X87883225Y-52707925D02*
G01*
X87963215Y-52724344D01*
X88027518Y-52749492D01*
X88078904Y-52782432D01*
X88123221Y-52826263D01*
X88154014Y-52874755D01*
X88172587Y-52928914D01*
X88178982Y-52990344D01*
X88174925Y-53044603D01*
X88163672Y-53088774D01*
X88146132Y-53124738D01*
X88109155Y-53171677D01*
X88065593Y-53207354D01*
X88065593Y-53215719D01*
X88165000Y-53256324D01*
X88165000Y-53415937D01*
X87101017Y-53415937D01*
X87101017Y-53207354D01*
X87345992Y-53207354D01*
X87433492Y-53212910D01*
X87498583Y-53222741D01*
X87498583Y-53215719D01*
X87455323Y-53179810D01*
X87418838Y-53131699D01*
X87401587Y-53094888D01*
X87393051Y-53060319D01*
X87555980Y-53060319D01*
X87560274Y-53106035D01*
X87571956Y-53140884D01*
X87590053Y-53167344D01*
X87614781Y-53187020D01*
X87655590Y-53204757D01*
X87711181Y-53216799D01*
X87785629Y-53221337D01*
X87807978Y-53221337D01*
X87875625Y-53215863D01*
X87925379Y-53203160D01*
X87961301Y-53184944D01*
X87988497Y-53157657D01*
X88005901Y-53118493D01*
X88012409Y-53063128D01*
X88005919Y-53018501D01*
X87987291Y-52982345D01*
X87955744Y-52952547D01*
X87915854Y-52932229D01*
X87861057Y-52918516D01*
X87786973Y-52913346D01*
X87712960Y-52918455D01*
X87657119Y-52932122D01*
X87615514Y-52952547D01*
X87582008Y-52982480D01*
X87562627Y-53017772D01*
X87555980Y-53060319D01*
X87393051Y-53060319D01*
X87390557Y-53050217D01*
X87386598Y-52995961D01*
X87393101Y-52932339D01*
X87411912Y-52876687D01*
X87442949Y-52827302D01*
X87487409Y-52783104D01*
X87539176Y-52749885D01*
X87603950Y-52724528D01*
X87684517Y-52707974D01*
X87784225Y-52701954D01*
X87883225Y-52707925D01*
G37*
G36*
X87998385Y-53588699D02*
G01*
X88047892Y-53602091D01*
X88087681Y-53622932D01*
X88119509Y-53651021D01*
X88152092Y-53698821D01*
X88172012Y-53754579D01*
X88178982Y-53820464D01*
X88175360Y-53883723D01*
X88165602Y-53932728D01*
X88151017Y-53970246D01*
X88116014Y-54021792D01*
X88061379Y-54073866D01*
X88061379Y-54079423D01*
X88165000Y-54120028D01*
X88165000Y-54265658D01*
X87655387Y-54265658D01*
X87587340Y-54259849D01*
X87532309Y-54243709D01*
X87487707Y-54218349D01*
X87451688Y-54183714D01*
X87424274Y-54141570D01*
X87403513Y-54089629D01*
X87390058Y-54025866D01*
X87385193Y-53947837D01*
X87389799Y-53867709D01*
X87403389Y-53791705D01*
X87425416Y-53719294D01*
X87453825Y-53655234D01*
X87595181Y-53723866D01*
X87555308Y-53830234D01*
X87543225Y-53884123D01*
X87539188Y-53939472D01*
X87542649Y-53975801D01*
X87552200Y-54004407D01*
X87567215Y-54026972D01*
X87587995Y-54043673D01*
X87616529Y-54054468D01*
X87655387Y-54058479D01*
X87688970Y-54058479D01*
X87810786Y-54058479D01*
X87873801Y-54058479D01*
X87920224Y-54052948D01*
X87957049Y-54037445D01*
X87986519Y-54012256D01*
X88008466Y-53979522D01*
X88021774Y-53942155D01*
X88026392Y-53898866D01*
X88020980Y-53857037D01*
X88006120Y-53826021D01*
X87990488Y-53811098D01*
X87968588Y-53801587D01*
X87938220Y-53798055D01*
X87903590Y-53802560D01*
X87874638Y-53815529D01*
X87849987Y-53837256D01*
X87832858Y-53865731D01*
X87820025Y-53910347D01*
X87813595Y-53977268D01*
X87810786Y-54058479D01*
X87688970Y-54058479D01*
X87693183Y-53925428D01*
X87700298Y-53837559D01*
X87714119Y-53767510D01*
X87733302Y-53712269D01*
X87756931Y-53669217D01*
X87789291Y-53632443D01*
X87828930Y-53606161D01*
X87877327Y-53589721D01*
X87936816Y-53583854D01*
X87998385Y-53588699D01*
G37*
G36*
X88165000Y-54661331D02*
G01*
X87400580Y-54370133D01*
X87400580Y-54588547D01*
X87836004Y-54735520D01*
X87917215Y-54755853D01*
X87992808Y-54764951D01*
X87992808Y-54770508D01*
X87916991Y-54780092D01*
X87836004Y-54801343D01*
X87400580Y-54948317D01*
X87400580Y-55166731D01*
X88165000Y-54875532D01*
X88165000Y-54661331D01*
G37*
G36*
X87998385Y-55230011D02*
G01*
X88047892Y-55243403D01*
X88087681Y-55264244D01*
X88119509Y-55292333D01*
X88152092Y-55340133D01*
X88172012Y-55395891D01*
X88178982Y-55461776D01*
X88175360Y-55525035D01*
X88165602Y-55574040D01*
X88151017Y-55611558D01*
X88116014Y-55663104D01*
X88061379Y-55715178D01*
X88061379Y-55720735D01*
X88165000Y-55761340D01*
X88165000Y-55906970D01*
X87655387Y-55906970D01*
X87587340Y-55901161D01*
X87532309Y-55885021D01*
X87487707Y-55859661D01*
X87451688Y-55825026D01*
X87424274Y-55782882D01*
X87403513Y-55730941D01*
X87390058Y-55667178D01*
X87385193Y-55589149D01*
X87389799Y-55509021D01*
X87403389Y-55433017D01*
X87425416Y-55360606D01*
X87453825Y-55296546D01*
X87595181Y-55365178D01*
X87555308Y-55471546D01*
X87543225Y-55525435D01*
X87539188Y-55580783D01*
X87542649Y-55617113D01*
X87552200Y-55645719D01*
X87567215Y-55668283D01*
X87587995Y-55684985D01*
X87616529Y-55695780D01*
X87655387Y-55699791D01*
X87688970Y-55699791D01*
X87810786Y-55699791D01*
X87873801Y-55699791D01*
X87920224Y-55694260D01*
X87957049Y-55678757D01*
X87986519Y-55653568D01*
X88008466Y-55620833D01*
X88021774Y-55583466D01*
X88026392Y-55540178D01*
X88020980Y-55498349D01*
X88006120Y-55467333D01*
X87990488Y-55452410D01*
X87968588Y-55442899D01*
X87938220Y-55439367D01*
X87903590Y-55443872D01*
X87874638Y-55456841D01*
X87849987Y-55478568D01*
X87832858Y-55507043D01*
X87820025Y-55551659D01*
X87813595Y-55618580D01*
X87810786Y-55699791D01*
X87688970Y-55699791D01*
X87693183Y-55566740D01*
X87700298Y-55478870D01*
X87714119Y-55408822D01*
X87733302Y-55353581D01*
X87756931Y-55310529D01*
X87789291Y-55273755D01*
X87828930Y-55247473D01*
X87877327Y-55231033D01*
X87936816Y-55225166D01*
X87998385Y-55230011D01*
G37*
G36*
X87386598Y-56547619D02*
G01*
X87388002Y-56584011D01*
X87392215Y-56617655D01*
X87588220Y-56602268D01*
X87583335Y-56573509D01*
X87581198Y-56540658D01*
X87585944Y-56488439D01*
X87600127Y-56438442D01*
X87624838Y-56394113D01*
X87661004Y-56359369D01*
X87690504Y-56343399D01*
X87728076Y-56333046D01*
X87775799Y-56329266D01*
X88165000Y-56329266D01*
X88165000Y-56120621D01*
X87400580Y-56120621D01*
X87400580Y-56278830D01*
X87529419Y-56309665D01*
X87529419Y-56319435D01*
X87475216Y-56358956D01*
X87428607Y-56411820D01*
X87405400Y-56452738D01*
X87391398Y-56497643D01*
X87386598Y-56547619D01*
G37*
G36*
X88012409Y-57077687D02*
G01*
X88005448Y-57144854D01*
X87988595Y-57209273D01*
X88143995Y-57209273D01*
X88156567Y-57173483D01*
X88168480Y-57125986D01*
X88176258Y-57075020D01*
X88178982Y-57017481D01*
X88173167Y-56951290D01*
X88156634Y-56894932D01*
X88138275Y-56861843D01*
X88112679Y-56833543D01*
X88078904Y-56809569D01*
X88040643Y-56793107D01*
X87990527Y-56782134D01*
X87925580Y-56778062D01*
X87557384Y-56778062D01*
X87557384Y-56678655D01*
X87469213Y-56678655D01*
X87399176Y-56793449D01*
X87238220Y-56853655D01*
X87238220Y-56986706D01*
X87400580Y-56986706D01*
X87400580Y-57200846D01*
X87557384Y-57200846D01*
X87557384Y-56986706D01*
X87925580Y-56986706D01*
X87953415Y-56989813D01*
X87974601Y-56998339D01*
X87990732Y-57011863D01*
X88006707Y-57040085D01*
X88012409Y-57077687D01*
G37*
G36*
X87101017Y-57467376D02*
G01*
X87106635Y-57511166D01*
X87122693Y-57547183D01*
X87139904Y-57564919D01*
X87165633Y-57576410D01*
X87203171Y-57580766D01*
X87239810Y-57576464D01*
X87265437Y-57565012D01*
X87283039Y-57547183D01*
X87299607Y-57511121D01*
X87305387Y-57467376D01*
X87299542Y-57422513D01*
X87283039Y-57386837D01*
X87265502Y-57369440D01*
X87239885Y-57358214D01*
X87203171Y-57353987D01*
X87165556Y-57358267D01*
X87139838Y-57369533D01*
X87122693Y-57386837D01*
X87106699Y-57422465D01*
X87101017Y-57467376D01*
G37*
G36*
X87400580Y-57570996D02*
G01*
X88165000Y-57570996D01*
X88165000Y-57362352D01*
X87400580Y-57362352D01*
X87400580Y-57570996D01*
G37*
G36*
X88845375Y-52055138D02*
G01*
X89845000Y-51714969D01*
X89845000Y-51483976D01*
X88845375Y-51145151D01*
X88845375Y-51359351D01*
X89440411Y-51546930D01*
X89497137Y-51563050D01*
X89583904Y-51584727D01*
X89660230Y-51600175D01*
X89583904Y-51614829D01*
X89497137Y-51636506D01*
X89440411Y-51651954D01*
X88845375Y-51840937D01*
X88845375Y-52055138D01*
G37*
G36*
X89845000Y-52632895D02*
G01*
X89845000Y-52421503D01*
X89266816Y-52421503D01*
X89171622Y-52423579D01*
X89068002Y-52427120D01*
X89098105Y-52397017D01*
X89136573Y-52354336D01*
X89229019Y-52239481D01*
X89101585Y-52137326D01*
X88845375Y-52459299D01*
X88845375Y-52632895D01*
X89845000Y-52632895D01*
G37*
D11*
X93250000Y-27500000D02*
X108250000Y-27500000D01*
X108250000Y-32500000D01*
X93250000Y-32500000D01*
X93250000Y-27500000D01*
X93250000Y-22500000D02*
X108250000Y-22500000D01*
X108250000Y-27500000D01*
X93250000Y-27500000D01*
X93250000Y-22500000D01*
D12*
X73642857Y-64359580D02*
X73690476Y-64407200D01*
X73690476Y-64407200D02*
X73833333Y-64454819D01*
X73833333Y-64454819D02*
X73928571Y-64454819D01*
X73928571Y-64454819D02*
X74071428Y-64407200D01*
X74071428Y-64407200D02*
X74166666Y-64311961D01*
X74166666Y-64311961D02*
X74214285Y-64216723D01*
X74214285Y-64216723D02*
X74261904Y-64026247D01*
X74261904Y-64026247D02*
X74261904Y-63883390D01*
X74261904Y-63883390D02*
X74214285Y-63692914D01*
X74214285Y-63692914D02*
X74166666Y-63597676D01*
X74166666Y-63597676D02*
X74071428Y-63502438D01*
X74071428Y-63502438D02*
X73928571Y-63454819D01*
X73928571Y-63454819D02*
X73833333Y-63454819D01*
X73833333Y-63454819D02*
X73690476Y-63502438D01*
X73690476Y-63502438D02*
X73642857Y-63550057D01*
X73309523Y-63454819D02*
X72690476Y-63454819D01*
X72690476Y-63454819D02*
X73023809Y-63835771D01*
X73023809Y-63835771D02*
X72880952Y-63835771D01*
X72880952Y-63835771D02*
X72785714Y-63883390D01*
X72785714Y-63883390D02*
X72738095Y-63931009D01*
X72738095Y-63931009D02*
X72690476Y-64026247D01*
X72690476Y-64026247D02*
X72690476Y-64264342D01*
X72690476Y-64264342D02*
X72738095Y-64359580D01*
X72738095Y-64359580D02*
X72785714Y-64407200D01*
X72785714Y-64407200D02*
X72880952Y-64454819D01*
X72880952Y-64454819D02*
X73166666Y-64454819D01*
X73166666Y-64454819D02*
X73261904Y-64407200D01*
X73261904Y-64407200D02*
X73309523Y-64359580D01*
X71738095Y-64454819D02*
X72309523Y-64454819D01*
X72023809Y-64454819D02*
X72023809Y-63454819D01*
X72023809Y-63454819D02*
X72119047Y-63597676D01*
X72119047Y-63597676D02*
X72214285Y-63692914D01*
X72214285Y-63692914D02*
X72309523Y-63740533D01*
X77642857Y-63789580D02*
X77690476Y-63837200D01*
X77690476Y-63837200D02*
X77833333Y-63884819D01*
X77833333Y-63884819D02*
X77928571Y-63884819D01*
X77928571Y-63884819D02*
X78071428Y-63837200D01*
X78071428Y-63837200D02*
X78166666Y-63741961D01*
X78166666Y-63741961D02*
X78214285Y-63646723D01*
X78214285Y-63646723D02*
X78261904Y-63456247D01*
X78261904Y-63456247D02*
X78261904Y-63313390D01*
X78261904Y-63313390D02*
X78214285Y-63122914D01*
X78214285Y-63122914D02*
X78166666Y-63027676D01*
X78166666Y-63027676D02*
X78071428Y-62932438D01*
X78071428Y-62932438D02*
X77928571Y-62884819D01*
X77928571Y-62884819D02*
X77833333Y-62884819D01*
X77833333Y-62884819D02*
X77690476Y-62932438D01*
X77690476Y-62932438D02*
X77642857Y-62980057D01*
X77309523Y-62884819D02*
X76690476Y-62884819D01*
X76690476Y-62884819D02*
X77023809Y-63265771D01*
X77023809Y-63265771D02*
X76880952Y-63265771D01*
X76880952Y-63265771D02*
X76785714Y-63313390D01*
X76785714Y-63313390D02*
X76738095Y-63361009D01*
X76738095Y-63361009D02*
X76690476Y-63456247D01*
X76690476Y-63456247D02*
X76690476Y-63694342D01*
X76690476Y-63694342D02*
X76738095Y-63789580D01*
X76738095Y-63789580D02*
X76785714Y-63837200D01*
X76785714Y-63837200D02*
X76880952Y-63884819D01*
X76880952Y-63884819D02*
X77166666Y-63884819D01*
X77166666Y-63884819D02*
X77261904Y-63837200D01*
X77261904Y-63837200D02*
X77309523Y-63789580D01*
X76309523Y-62980057D02*
X76261904Y-62932438D01*
X76261904Y-62932438D02*
X76166666Y-62884819D01*
X76166666Y-62884819D02*
X75928571Y-62884819D01*
X75928571Y-62884819D02*
X75833333Y-62932438D01*
X75833333Y-62932438D02*
X75785714Y-62980057D01*
X75785714Y-62980057D02*
X75738095Y-63075295D01*
X75738095Y-63075295D02*
X75738095Y-63170533D01*
X75738095Y-63170533D02*
X75785714Y-63313390D01*
X75785714Y-63313390D02*
X76357142Y-63884819D01*
X76357142Y-63884819D02*
X75738095Y-63884819D01*
X103531904Y-33414819D02*
X103531904Y-34224342D01*
X103531904Y-34224342D02*
X103484285Y-34319580D01*
X103484285Y-34319580D02*
X103436666Y-34367200D01*
X103436666Y-34367200D02*
X103341428Y-34414819D01*
X103341428Y-34414819D02*
X103150952Y-34414819D01*
X103150952Y-34414819D02*
X103055714Y-34367200D01*
X103055714Y-34367200D02*
X103008095Y-34319580D01*
X103008095Y-34319580D02*
X102960476Y-34224342D01*
X102960476Y-34224342D02*
X102960476Y-33414819D01*
X102055714Y-33748152D02*
X102055714Y-34414819D01*
X102293809Y-33367200D02*
X102531904Y-34081485D01*
X102531904Y-34081485D02*
X101912857Y-34081485D01*
X83809523Y-70084819D02*
X83809523Y-70799104D01*
X83809523Y-70799104D02*
X83857142Y-70941961D01*
X83857142Y-70941961D02*
X83952380Y-71037200D01*
X83952380Y-71037200D02*
X84095237Y-71084819D01*
X84095237Y-71084819D02*
X84190475Y-71084819D01*
X82809523Y-71084819D02*
X83380951Y-71084819D01*
X83095237Y-71084819D02*
X83095237Y-70084819D01*
X83095237Y-70084819D02*
X83190475Y-70227676D01*
X83190475Y-70227676D02*
X83285713Y-70322914D01*
X83285713Y-70322914D02*
X83380951Y-70370533D01*
X81857142Y-71084819D02*
X82428570Y-71084819D01*
X82142856Y-71084819D02*
X82142856Y-70084819D01*
X82142856Y-70084819D02*
X82238094Y-70227676D01*
X82238094Y-70227676D02*
X82333332Y-70322914D01*
X82333332Y-70322914D02*
X82428570Y-70370533D01*
X87809523Y-61574819D02*
X87809523Y-62289104D01*
X87809523Y-62289104D02*
X87857142Y-62431961D01*
X87857142Y-62431961D02*
X87952380Y-62527200D01*
X87952380Y-62527200D02*
X88095237Y-62574819D01*
X88095237Y-62574819D02*
X88190475Y-62574819D01*
X86809523Y-62574819D02*
X87380951Y-62574819D01*
X87095237Y-62574819D02*
X87095237Y-61574819D01*
X87095237Y-61574819D02*
X87190475Y-61717676D01*
X87190475Y-61717676D02*
X87285713Y-61812914D01*
X87285713Y-61812914D02*
X87380951Y-61860533D01*
X86190475Y-61574819D02*
X86095237Y-61574819D01*
X86095237Y-61574819D02*
X85999999Y-61622438D01*
X85999999Y-61622438D02*
X85952380Y-61670057D01*
X85952380Y-61670057D02*
X85904761Y-61765295D01*
X85904761Y-61765295D02*
X85857142Y-61955771D01*
X85857142Y-61955771D02*
X85857142Y-62193866D01*
X85857142Y-62193866D02*
X85904761Y-62384342D01*
X85904761Y-62384342D02*
X85952380Y-62479580D01*
X85952380Y-62479580D02*
X85999999Y-62527200D01*
X85999999Y-62527200D02*
X86095237Y-62574819D01*
X86095237Y-62574819D02*
X86190475Y-62574819D01*
X86190475Y-62574819D02*
X86285713Y-62527200D01*
X86285713Y-62527200D02*
X86333332Y-62479580D01*
X86333332Y-62479580D02*
X86380951Y-62384342D01*
X86380951Y-62384342D02*
X86428570Y-62193866D01*
X86428570Y-62193866D02*
X86428570Y-61955771D01*
X86428570Y-61955771D02*
X86380951Y-61765295D01*
X86380951Y-61765295D02*
X86333332Y-61670057D01*
X86333332Y-61670057D02*
X86285713Y-61622438D01*
X86285713Y-61622438D02*
X86190475Y-61574819D01*
X74642857Y-53609580D02*
X74690476Y-53657200D01*
X74690476Y-53657200D02*
X74833333Y-53704819D01*
X74833333Y-53704819D02*
X74928571Y-53704819D01*
X74928571Y-53704819D02*
X75071428Y-53657200D01*
X75071428Y-53657200D02*
X75166666Y-53561961D01*
X75166666Y-53561961D02*
X75214285Y-53466723D01*
X75214285Y-53466723D02*
X75261904Y-53276247D01*
X75261904Y-53276247D02*
X75261904Y-53133390D01*
X75261904Y-53133390D02*
X75214285Y-52942914D01*
X75214285Y-52942914D02*
X75166666Y-52847676D01*
X75166666Y-52847676D02*
X75071428Y-52752438D01*
X75071428Y-52752438D02*
X74928571Y-52704819D01*
X74928571Y-52704819D02*
X74833333Y-52704819D01*
X74833333Y-52704819D02*
X74690476Y-52752438D01*
X74690476Y-52752438D02*
X74642857Y-52800057D01*
X74309523Y-52704819D02*
X73690476Y-52704819D01*
X73690476Y-52704819D02*
X74023809Y-53085771D01*
X74023809Y-53085771D02*
X73880952Y-53085771D01*
X73880952Y-53085771D02*
X73785714Y-53133390D01*
X73785714Y-53133390D02*
X73738095Y-53181009D01*
X73738095Y-53181009D02*
X73690476Y-53276247D01*
X73690476Y-53276247D02*
X73690476Y-53514342D01*
X73690476Y-53514342D02*
X73738095Y-53609580D01*
X73738095Y-53609580D02*
X73785714Y-53657200D01*
X73785714Y-53657200D02*
X73880952Y-53704819D01*
X73880952Y-53704819D02*
X74166666Y-53704819D01*
X74166666Y-53704819D02*
X74261904Y-53657200D01*
X74261904Y-53657200D02*
X74309523Y-53609580D01*
X73119047Y-53133390D02*
X73214285Y-53085771D01*
X73214285Y-53085771D02*
X73261904Y-53038152D01*
X73261904Y-53038152D02*
X73309523Y-52942914D01*
X73309523Y-52942914D02*
X73309523Y-52895295D01*
X73309523Y-52895295D02*
X73261904Y-52800057D01*
X73261904Y-52800057D02*
X73214285Y-52752438D01*
X73214285Y-52752438D02*
X73119047Y-52704819D01*
X73119047Y-52704819D02*
X72928571Y-52704819D01*
X72928571Y-52704819D02*
X72833333Y-52752438D01*
X72833333Y-52752438D02*
X72785714Y-52800057D01*
X72785714Y-52800057D02*
X72738095Y-52895295D01*
X72738095Y-52895295D02*
X72738095Y-52942914D01*
X72738095Y-52942914D02*
X72785714Y-53038152D01*
X72785714Y-53038152D02*
X72833333Y-53085771D01*
X72833333Y-53085771D02*
X72928571Y-53133390D01*
X72928571Y-53133390D02*
X73119047Y-53133390D01*
X73119047Y-53133390D02*
X73214285Y-53181009D01*
X73214285Y-53181009D02*
X73261904Y-53228628D01*
X73261904Y-53228628D02*
X73309523Y-53323866D01*
X73309523Y-53323866D02*
X73309523Y-53514342D01*
X73309523Y-53514342D02*
X73261904Y-53609580D01*
X73261904Y-53609580D02*
X73214285Y-53657200D01*
X73214285Y-53657200D02*
X73119047Y-53704819D01*
X73119047Y-53704819D02*
X72928571Y-53704819D01*
X72928571Y-53704819D02*
X72833333Y-53657200D01*
X72833333Y-53657200D02*
X72785714Y-53609580D01*
X72785714Y-53609580D02*
X72738095Y-53514342D01*
X72738095Y-53514342D02*
X72738095Y-53323866D01*
X72738095Y-53323866D02*
X72785714Y-53228628D01*
X72785714Y-53228628D02*
X72833333Y-53181009D01*
X72833333Y-53181009D02*
X72928571Y-53133390D01*
X76166666Y-76954819D02*
X76499999Y-76478628D01*
X76738094Y-76954819D02*
X76738094Y-75954819D01*
X76738094Y-75954819D02*
X76357142Y-75954819D01*
X76357142Y-75954819D02*
X76261904Y-76002438D01*
X76261904Y-76002438D02*
X76214285Y-76050057D01*
X76214285Y-76050057D02*
X76166666Y-76145295D01*
X76166666Y-76145295D02*
X76166666Y-76288152D01*
X76166666Y-76288152D02*
X76214285Y-76383390D01*
X76214285Y-76383390D02*
X76261904Y-76431009D01*
X76261904Y-76431009D02*
X76357142Y-76478628D01*
X76357142Y-76478628D02*
X76738094Y-76478628D01*
X75309523Y-75954819D02*
X75499999Y-75954819D01*
X75499999Y-75954819D02*
X75595237Y-76002438D01*
X75595237Y-76002438D02*
X75642856Y-76050057D01*
X75642856Y-76050057D02*
X75738094Y-76192914D01*
X75738094Y-76192914D02*
X75785713Y-76383390D01*
X75785713Y-76383390D02*
X75785713Y-76764342D01*
X75785713Y-76764342D02*
X75738094Y-76859580D01*
X75738094Y-76859580D02*
X75690475Y-76907200D01*
X75690475Y-76907200D02*
X75595237Y-76954819D01*
X75595237Y-76954819D02*
X75404761Y-76954819D01*
X75404761Y-76954819D02*
X75309523Y-76907200D01*
X75309523Y-76907200D02*
X75261904Y-76859580D01*
X75261904Y-76859580D02*
X75214285Y-76764342D01*
X75214285Y-76764342D02*
X75214285Y-76526247D01*
X75214285Y-76526247D02*
X75261904Y-76431009D01*
X75261904Y-76431009D02*
X75309523Y-76383390D01*
X75309523Y-76383390D02*
X75404761Y-76335771D01*
X75404761Y-76335771D02*
X75595237Y-76335771D01*
X75595237Y-76335771D02*
X75690475Y-76383390D01*
X75690475Y-76383390D02*
X75738094Y-76431009D01*
X75738094Y-76431009D02*
X75785713Y-76526247D01*
X81166666Y-24954819D02*
X81499999Y-24478628D01*
X81738094Y-24954819D02*
X81738094Y-23954819D01*
X81738094Y-23954819D02*
X81357142Y-23954819D01*
X81357142Y-23954819D02*
X81261904Y-24002438D01*
X81261904Y-24002438D02*
X81214285Y-24050057D01*
X81214285Y-24050057D02*
X81166666Y-24145295D01*
X81166666Y-24145295D02*
X81166666Y-24288152D01*
X81166666Y-24288152D02*
X81214285Y-24383390D01*
X81214285Y-24383390D02*
X81261904Y-24431009D01*
X81261904Y-24431009D02*
X81357142Y-24478628D01*
X81357142Y-24478628D02*
X81738094Y-24478628D01*
X80214285Y-24954819D02*
X80785713Y-24954819D01*
X80499999Y-24954819D02*
X80499999Y-23954819D01*
X80499999Y-23954819D02*
X80595237Y-24097676D01*
X80595237Y-24097676D02*
X80690475Y-24192914D01*
X80690475Y-24192914D02*
X80785713Y-24240533D01*
X74642857Y-43859580D02*
X74690476Y-43907200D01*
X74690476Y-43907200D02*
X74833333Y-43954819D01*
X74833333Y-43954819D02*
X74928571Y-43954819D01*
X74928571Y-43954819D02*
X75071428Y-43907200D01*
X75071428Y-43907200D02*
X75166666Y-43811961D01*
X75166666Y-43811961D02*
X75214285Y-43716723D01*
X75214285Y-43716723D02*
X75261904Y-43526247D01*
X75261904Y-43526247D02*
X75261904Y-43383390D01*
X75261904Y-43383390D02*
X75214285Y-43192914D01*
X75214285Y-43192914D02*
X75166666Y-43097676D01*
X75166666Y-43097676D02*
X75071428Y-43002438D01*
X75071428Y-43002438D02*
X74928571Y-42954819D01*
X74928571Y-42954819D02*
X74833333Y-42954819D01*
X74833333Y-42954819D02*
X74690476Y-43002438D01*
X74690476Y-43002438D02*
X74642857Y-43050057D01*
X74309523Y-42954819D02*
X73690476Y-42954819D01*
X73690476Y-42954819D02*
X74023809Y-43335771D01*
X74023809Y-43335771D02*
X73880952Y-43335771D01*
X73880952Y-43335771D02*
X73785714Y-43383390D01*
X73785714Y-43383390D02*
X73738095Y-43431009D01*
X73738095Y-43431009D02*
X73690476Y-43526247D01*
X73690476Y-43526247D02*
X73690476Y-43764342D01*
X73690476Y-43764342D02*
X73738095Y-43859580D01*
X73738095Y-43859580D02*
X73785714Y-43907200D01*
X73785714Y-43907200D02*
X73880952Y-43954819D01*
X73880952Y-43954819D02*
X74166666Y-43954819D01*
X74166666Y-43954819D02*
X74261904Y-43907200D01*
X74261904Y-43907200D02*
X74309523Y-43859580D01*
X72833333Y-42954819D02*
X73023809Y-42954819D01*
X73023809Y-42954819D02*
X73119047Y-43002438D01*
X73119047Y-43002438D02*
X73166666Y-43050057D01*
X73166666Y-43050057D02*
X73261904Y-43192914D01*
X73261904Y-43192914D02*
X73309523Y-43383390D01*
X73309523Y-43383390D02*
X73309523Y-43764342D01*
X73309523Y-43764342D02*
X73261904Y-43859580D01*
X73261904Y-43859580D02*
X73214285Y-43907200D01*
X73214285Y-43907200D02*
X73119047Y-43954819D01*
X73119047Y-43954819D02*
X72928571Y-43954819D01*
X72928571Y-43954819D02*
X72833333Y-43907200D01*
X72833333Y-43907200D02*
X72785714Y-43859580D01*
X72785714Y-43859580D02*
X72738095Y-43764342D01*
X72738095Y-43764342D02*
X72738095Y-43526247D01*
X72738095Y-43526247D02*
X72785714Y-43431009D01*
X72785714Y-43431009D02*
X72833333Y-43383390D01*
X72833333Y-43383390D02*
X72928571Y-43335771D01*
X72928571Y-43335771D02*
X73119047Y-43335771D01*
X73119047Y-43335771D02*
X73214285Y-43383390D01*
X73214285Y-43383390D02*
X73261904Y-43431009D01*
X73261904Y-43431009D02*
X73309523Y-43526247D01*
X91142857Y-73359580D02*
X91190476Y-73407200D01*
X91190476Y-73407200D02*
X91333333Y-73454819D01*
X91333333Y-73454819D02*
X91428571Y-73454819D01*
X91428571Y-73454819D02*
X91571428Y-73407200D01*
X91571428Y-73407200D02*
X91666666Y-73311961D01*
X91666666Y-73311961D02*
X91714285Y-73216723D01*
X91714285Y-73216723D02*
X91761904Y-73026247D01*
X91761904Y-73026247D02*
X91761904Y-72883390D01*
X91761904Y-72883390D02*
X91714285Y-72692914D01*
X91714285Y-72692914D02*
X91666666Y-72597676D01*
X91666666Y-72597676D02*
X91571428Y-72502438D01*
X91571428Y-72502438D02*
X91428571Y-72454819D01*
X91428571Y-72454819D02*
X91333333Y-72454819D01*
X91333333Y-72454819D02*
X91190476Y-72502438D01*
X91190476Y-72502438D02*
X91142857Y-72550057D01*
X90190476Y-73454819D02*
X90761904Y-73454819D01*
X90476190Y-73454819D02*
X90476190Y-72454819D01*
X90476190Y-72454819D02*
X90571428Y-72597676D01*
X90571428Y-72597676D02*
X90666666Y-72692914D01*
X90666666Y-72692914D02*
X90761904Y-72740533D01*
X89333333Y-72788152D02*
X89333333Y-73454819D01*
X89571428Y-72407200D02*
X89809523Y-73121485D01*
X89809523Y-73121485D02*
X89190476Y-73121485D01*
X87642857Y-29609580D02*
X87690476Y-29657200D01*
X87690476Y-29657200D02*
X87833333Y-29704819D01*
X87833333Y-29704819D02*
X87928571Y-29704819D01*
X87928571Y-29704819D02*
X88071428Y-29657200D01*
X88071428Y-29657200D02*
X88166666Y-29561961D01*
X88166666Y-29561961D02*
X88214285Y-29466723D01*
X88214285Y-29466723D02*
X88261904Y-29276247D01*
X88261904Y-29276247D02*
X88261904Y-29133390D01*
X88261904Y-29133390D02*
X88214285Y-28942914D01*
X88214285Y-28942914D02*
X88166666Y-28847676D01*
X88166666Y-28847676D02*
X88071428Y-28752438D01*
X88071428Y-28752438D02*
X87928571Y-28704819D01*
X87928571Y-28704819D02*
X87833333Y-28704819D01*
X87833333Y-28704819D02*
X87690476Y-28752438D01*
X87690476Y-28752438D02*
X87642857Y-28800057D01*
X86690476Y-29704819D02*
X87261904Y-29704819D01*
X86976190Y-29704819D02*
X86976190Y-28704819D01*
X86976190Y-28704819D02*
X87071428Y-28847676D01*
X87071428Y-28847676D02*
X87166666Y-28942914D01*
X87166666Y-28942914D02*
X87261904Y-28990533D01*
X85738095Y-29704819D02*
X86309523Y-29704819D01*
X86023809Y-29704819D02*
X86023809Y-28704819D01*
X86023809Y-28704819D02*
X86119047Y-28847676D01*
X86119047Y-28847676D02*
X86214285Y-28942914D01*
X86214285Y-28942914D02*
X86309523Y-28990533D01*
X82642857Y-43609580D02*
X82690476Y-43657200D01*
X82690476Y-43657200D02*
X82833333Y-43704819D01*
X82833333Y-43704819D02*
X82928571Y-43704819D01*
X82928571Y-43704819D02*
X83071428Y-43657200D01*
X83071428Y-43657200D02*
X83166666Y-43561961D01*
X83166666Y-43561961D02*
X83214285Y-43466723D01*
X83214285Y-43466723D02*
X83261904Y-43276247D01*
X83261904Y-43276247D02*
X83261904Y-43133390D01*
X83261904Y-43133390D02*
X83214285Y-42942914D01*
X83214285Y-42942914D02*
X83166666Y-42847676D01*
X83166666Y-42847676D02*
X83071428Y-42752438D01*
X83071428Y-42752438D02*
X82928571Y-42704819D01*
X82928571Y-42704819D02*
X82833333Y-42704819D01*
X82833333Y-42704819D02*
X82690476Y-42752438D01*
X82690476Y-42752438D02*
X82642857Y-42800057D01*
X82309523Y-42704819D02*
X81690476Y-42704819D01*
X81690476Y-42704819D02*
X82023809Y-43085771D01*
X82023809Y-43085771D02*
X81880952Y-43085771D01*
X81880952Y-43085771D02*
X81785714Y-43133390D01*
X81785714Y-43133390D02*
X81738095Y-43181009D01*
X81738095Y-43181009D02*
X81690476Y-43276247D01*
X81690476Y-43276247D02*
X81690476Y-43514342D01*
X81690476Y-43514342D02*
X81738095Y-43609580D01*
X81738095Y-43609580D02*
X81785714Y-43657200D01*
X81785714Y-43657200D02*
X81880952Y-43704819D01*
X81880952Y-43704819D02*
X82166666Y-43704819D01*
X82166666Y-43704819D02*
X82261904Y-43657200D01*
X82261904Y-43657200D02*
X82309523Y-43609580D01*
X81357142Y-42704819D02*
X80690476Y-42704819D01*
X80690476Y-42704819D02*
X81119047Y-43704819D01*
X76166666Y-24859580D02*
X76214285Y-24907200D01*
X76214285Y-24907200D02*
X76357142Y-24954819D01*
X76357142Y-24954819D02*
X76452380Y-24954819D01*
X76452380Y-24954819D02*
X76595237Y-24907200D01*
X76595237Y-24907200D02*
X76690475Y-24811961D01*
X76690475Y-24811961D02*
X76738094Y-24716723D01*
X76738094Y-24716723D02*
X76785713Y-24526247D01*
X76785713Y-24526247D02*
X76785713Y-24383390D01*
X76785713Y-24383390D02*
X76738094Y-24192914D01*
X76738094Y-24192914D02*
X76690475Y-24097676D01*
X76690475Y-24097676D02*
X76595237Y-24002438D01*
X76595237Y-24002438D02*
X76452380Y-23954819D01*
X76452380Y-23954819D02*
X76357142Y-23954819D01*
X76357142Y-23954819D02*
X76214285Y-24002438D01*
X76214285Y-24002438D02*
X76166666Y-24050057D01*
X75309523Y-23954819D02*
X75499999Y-23954819D01*
X75499999Y-23954819D02*
X75595237Y-24002438D01*
X75595237Y-24002438D02*
X75642856Y-24050057D01*
X75642856Y-24050057D02*
X75738094Y-24192914D01*
X75738094Y-24192914D02*
X75785713Y-24383390D01*
X75785713Y-24383390D02*
X75785713Y-24764342D01*
X75785713Y-24764342D02*
X75738094Y-24859580D01*
X75738094Y-24859580D02*
X75690475Y-24907200D01*
X75690475Y-24907200D02*
X75595237Y-24954819D01*
X75595237Y-24954819D02*
X75404761Y-24954819D01*
X75404761Y-24954819D02*
X75309523Y-24907200D01*
X75309523Y-24907200D02*
X75261904Y-24859580D01*
X75261904Y-24859580D02*
X75214285Y-24764342D01*
X75214285Y-24764342D02*
X75214285Y-24526247D01*
X75214285Y-24526247D02*
X75261904Y-24431009D01*
X75261904Y-24431009D02*
X75309523Y-24383390D01*
X75309523Y-24383390D02*
X75404761Y-24335771D01*
X75404761Y-24335771D02*
X75595237Y-24335771D01*
X75595237Y-24335771D02*
X75690475Y-24383390D01*
X75690475Y-24383390D02*
X75738094Y-24431009D01*
X75738094Y-24431009D02*
X75785713Y-24526247D01*
X96166666Y-34704819D02*
X96499999Y-34228628D01*
X96738094Y-34704819D02*
X96738094Y-33704819D01*
X96738094Y-33704819D02*
X96357142Y-33704819D01*
X96357142Y-33704819D02*
X96261904Y-33752438D01*
X96261904Y-33752438D02*
X96214285Y-33800057D01*
X96214285Y-33800057D02*
X96166666Y-33895295D01*
X96166666Y-33895295D02*
X96166666Y-34038152D01*
X96166666Y-34038152D02*
X96214285Y-34133390D01*
X96214285Y-34133390D02*
X96261904Y-34181009D01*
X96261904Y-34181009D02*
X96357142Y-34228628D01*
X96357142Y-34228628D02*
X96738094Y-34228628D01*
X95309523Y-34038152D02*
X95309523Y-34704819D01*
X95547618Y-33657200D02*
X95785713Y-34371485D01*
X95785713Y-34371485D02*
X95166666Y-34371485D01*
X87642857Y-36209580D02*
X87690476Y-36257200D01*
X87690476Y-36257200D02*
X87833333Y-36304819D01*
X87833333Y-36304819D02*
X87928571Y-36304819D01*
X87928571Y-36304819D02*
X88071428Y-36257200D01*
X88071428Y-36257200D02*
X88166666Y-36161961D01*
X88166666Y-36161961D02*
X88214285Y-36066723D01*
X88214285Y-36066723D02*
X88261904Y-35876247D01*
X88261904Y-35876247D02*
X88261904Y-35733390D01*
X88261904Y-35733390D02*
X88214285Y-35542914D01*
X88214285Y-35542914D02*
X88166666Y-35447676D01*
X88166666Y-35447676D02*
X88071428Y-35352438D01*
X88071428Y-35352438D02*
X87928571Y-35304819D01*
X87928571Y-35304819D02*
X87833333Y-35304819D01*
X87833333Y-35304819D02*
X87690476Y-35352438D01*
X87690476Y-35352438D02*
X87642857Y-35400057D01*
X86690476Y-36304819D02*
X87261904Y-36304819D01*
X86976190Y-36304819D02*
X86976190Y-35304819D01*
X86976190Y-35304819D02*
X87071428Y-35447676D01*
X87071428Y-35447676D02*
X87166666Y-35542914D01*
X87166666Y-35542914D02*
X87261904Y-35590533D01*
X86071428Y-35304819D02*
X85976190Y-35304819D01*
X85976190Y-35304819D02*
X85880952Y-35352438D01*
X85880952Y-35352438D02*
X85833333Y-35400057D01*
X85833333Y-35400057D02*
X85785714Y-35495295D01*
X85785714Y-35495295D02*
X85738095Y-35685771D01*
X85738095Y-35685771D02*
X85738095Y-35923866D01*
X85738095Y-35923866D02*
X85785714Y-36114342D01*
X85785714Y-36114342D02*
X85833333Y-36209580D01*
X85833333Y-36209580D02*
X85880952Y-36257200D01*
X85880952Y-36257200D02*
X85976190Y-36304819D01*
X85976190Y-36304819D02*
X86071428Y-36304819D01*
X86071428Y-36304819D02*
X86166666Y-36257200D01*
X86166666Y-36257200D02*
X86214285Y-36209580D01*
X86214285Y-36209580D02*
X86261904Y-36114342D01*
X86261904Y-36114342D02*
X86309523Y-35923866D01*
X86309523Y-35923866D02*
X86309523Y-35685771D01*
X86309523Y-35685771D02*
X86261904Y-35495295D01*
X86261904Y-35495295D02*
X86214285Y-35400057D01*
X86214285Y-35400057D02*
X86166666Y-35352438D01*
X86166666Y-35352438D02*
X86071428Y-35304819D01*
X71929580Y-75219642D02*
X71977200Y-75172023D01*
X71977200Y-75172023D02*
X72024819Y-75029166D01*
X72024819Y-75029166D02*
X72024819Y-74933928D01*
X72024819Y-74933928D02*
X71977200Y-74791071D01*
X71977200Y-74791071D02*
X71881961Y-74695833D01*
X71881961Y-74695833D02*
X71786723Y-74648214D01*
X71786723Y-74648214D02*
X71596247Y-74600595D01*
X71596247Y-74600595D02*
X71453390Y-74600595D01*
X71453390Y-74600595D02*
X71262914Y-74648214D01*
X71262914Y-74648214D02*
X71167676Y-74695833D01*
X71167676Y-74695833D02*
X71072438Y-74791071D01*
X71072438Y-74791071D02*
X71024819Y-74933928D01*
X71024819Y-74933928D02*
X71024819Y-75029166D01*
X71024819Y-75029166D02*
X71072438Y-75172023D01*
X71072438Y-75172023D02*
X71120057Y-75219642D01*
X71120057Y-75600595D02*
X71072438Y-75648214D01*
X71072438Y-75648214D02*
X71024819Y-75743452D01*
X71024819Y-75743452D02*
X71024819Y-75981547D01*
X71024819Y-75981547D02*
X71072438Y-76076785D01*
X71072438Y-76076785D02*
X71120057Y-76124404D01*
X71120057Y-76124404D02*
X71215295Y-76172023D01*
X71215295Y-76172023D02*
X71310533Y-76172023D01*
X71310533Y-76172023D02*
X71453390Y-76124404D01*
X71453390Y-76124404D02*
X72024819Y-75552976D01*
X72024819Y-75552976D02*
X72024819Y-76172023D01*
X72024819Y-77124404D02*
X72024819Y-76552976D01*
X72024819Y-76838690D02*
X71024819Y-76838690D01*
X71024819Y-76838690D02*
X71167676Y-76743452D01*
X71167676Y-76743452D02*
X71262914Y-76648214D01*
X71262914Y-76648214D02*
X71310533Y-76552976D01*
X86030358Y-79539580D02*
X86077977Y-79587200D01*
X86077977Y-79587200D02*
X86220834Y-79634819D01*
X86220834Y-79634819D02*
X86316072Y-79634819D01*
X86316072Y-79634819D02*
X86458929Y-79587200D01*
X86458929Y-79587200D02*
X86554167Y-79491961D01*
X86554167Y-79491961D02*
X86601786Y-79396723D01*
X86601786Y-79396723D02*
X86649405Y-79206247D01*
X86649405Y-79206247D02*
X86649405Y-79063390D01*
X86649405Y-79063390D02*
X86601786Y-78872914D01*
X86601786Y-78872914D02*
X86554167Y-78777676D01*
X86554167Y-78777676D02*
X86458929Y-78682438D01*
X86458929Y-78682438D02*
X86316072Y-78634819D01*
X86316072Y-78634819D02*
X86220834Y-78634819D01*
X86220834Y-78634819D02*
X86077977Y-78682438D01*
X86077977Y-78682438D02*
X86030358Y-78730057D01*
X85649405Y-78730057D02*
X85601786Y-78682438D01*
X85601786Y-78682438D02*
X85506548Y-78634819D01*
X85506548Y-78634819D02*
X85268453Y-78634819D01*
X85268453Y-78634819D02*
X85173215Y-78682438D01*
X85173215Y-78682438D02*
X85125596Y-78730057D01*
X85125596Y-78730057D02*
X85077977Y-78825295D01*
X85077977Y-78825295D02*
X85077977Y-78920533D01*
X85077977Y-78920533D02*
X85125596Y-79063390D01*
X85125596Y-79063390D02*
X85697024Y-79634819D01*
X85697024Y-79634819D02*
X85077977Y-79634819D01*
X84173215Y-78634819D02*
X84649405Y-78634819D01*
X84649405Y-78634819D02*
X84697024Y-79111009D01*
X84697024Y-79111009D02*
X84649405Y-79063390D01*
X84649405Y-79063390D02*
X84554167Y-79015771D01*
X84554167Y-79015771D02*
X84316072Y-79015771D01*
X84316072Y-79015771D02*
X84220834Y-79063390D01*
X84220834Y-79063390D02*
X84173215Y-79111009D01*
X84173215Y-79111009D02*
X84125596Y-79206247D01*
X84125596Y-79206247D02*
X84125596Y-79444342D01*
X84125596Y-79444342D02*
X84173215Y-79539580D01*
X84173215Y-79539580D02*
X84220834Y-79587200D01*
X84220834Y-79587200D02*
X84316072Y-79634819D01*
X84316072Y-79634819D02*
X84554167Y-79634819D01*
X84554167Y-79634819D02*
X84649405Y-79587200D01*
X84649405Y-79587200D02*
X84697024Y-79539580D01*
X87167858Y-73609580D02*
X87215477Y-73657200D01*
X87215477Y-73657200D02*
X87358334Y-73704819D01*
X87358334Y-73704819D02*
X87453572Y-73704819D01*
X87453572Y-73704819D02*
X87596429Y-73657200D01*
X87596429Y-73657200D02*
X87691667Y-73561961D01*
X87691667Y-73561961D02*
X87739286Y-73466723D01*
X87739286Y-73466723D02*
X87786905Y-73276247D01*
X87786905Y-73276247D02*
X87786905Y-73133390D01*
X87786905Y-73133390D02*
X87739286Y-72942914D01*
X87739286Y-72942914D02*
X87691667Y-72847676D01*
X87691667Y-72847676D02*
X87596429Y-72752438D01*
X87596429Y-72752438D02*
X87453572Y-72704819D01*
X87453572Y-72704819D02*
X87358334Y-72704819D01*
X87358334Y-72704819D02*
X87215477Y-72752438D01*
X87215477Y-72752438D02*
X87167858Y-72800057D01*
X86215477Y-73704819D02*
X86786905Y-73704819D01*
X86501191Y-73704819D02*
X86501191Y-72704819D01*
X86501191Y-72704819D02*
X86596429Y-72847676D01*
X86596429Y-72847676D02*
X86691667Y-72942914D01*
X86691667Y-72942914D02*
X86786905Y-72990533D01*
X85310715Y-72704819D02*
X85786905Y-72704819D01*
X85786905Y-72704819D02*
X85834524Y-73181009D01*
X85834524Y-73181009D02*
X85786905Y-73133390D01*
X85786905Y-73133390D02*
X85691667Y-73085771D01*
X85691667Y-73085771D02*
X85453572Y-73085771D01*
X85453572Y-73085771D02*
X85358334Y-73133390D01*
X85358334Y-73133390D02*
X85310715Y-73181009D01*
X85310715Y-73181009D02*
X85263096Y-73276247D01*
X85263096Y-73276247D02*
X85263096Y-73514342D01*
X85263096Y-73514342D02*
X85310715Y-73609580D01*
X85310715Y-73609580D02*
X85358334Y-73657200D01*
X85358334Y-73657200D02*
X85453572Y-73704819D01*
X85453572Y-73704819D02*
X85691667Y-73704819D01*
X85691667Y-73704819D02*
X85786905Y-73657200D01*
X85786905Y-73657200D02*
X85834524Y-73609580D01*
X75859580Y-71357142D02*
X75907200Y-71309523D01*
X75907200Y-71309523D02*
X75954819Y-71166666D01*
X75954819Y-71166666D02*
X75954819Y-71071428D01*
X75954819Y-71071428D02*
X75907200Y-70928571D01*
X75907200Y-70928571D02*
X75811961Y-70833333D01*
X75811961Y-70833333D02*
X75716723Y-70785714D01*
X75716723Y-70785714D02*
X75526247Y-70738095D01*
X75526247Y-70738095D02*
X75383390Y-70738095D01*
X75383390Y-70738095D02*
X75192914Y-70785714D01*
X75192914Y-70785714D02*
X75097676Y-70833333D01*
X75097676Y-70833333D02*
X75002438Y-70928571D01*
X75002438Y-70928571D02*
X74954819Y-71071428D01*
X74954819Y-71071428D02*
X74954819Y-71166666D01*
X74954819Y-71166666D02*
X75002438Y-71309523D01*
X75002438Y-71309523D02*
X75050057Y-71357142D01*
X75050057Y-71738095D02*
X75002438Y-71785714D01*
X75002438Y-71785714D02*
X74954819Y-71880952D01*
X74954819Y-71880952D02*
X74954819Y-72119047D01*
X74954819Y-72119047D02*
X75002438Y-72214285D01*
X75002438Y-72214285D02*
X75050057Y-72261904D01*
X75050057Y-72261904D02*
X75145295Y-72309523D01*
X75145295Y-72309523D02*
X75240533Y-72309523D01*
X75240533Y-72309523D02*
X75383390Y-72261904D01*
X75383390Y-72261904D02*
X75954819Y-71690476D01*
X75954819Y-71690476D02*
X75954819Y-72309523D01*
X74954819Y-72642857D02*
X74954819Y-73309523D01*
X74954819Y-73309523D02*
X75954819Y-72880952D01*
X78609580Y-28833333D02*
X78657200Y-28785714D01*
X78657200Y-28785714D02*
X78704819Y-28642857D01*
X78704819Y-28642857D02*
X78704819Y-28547619D01*
X78704819Y-28547619D02*
X78657200Y-28404762D01*
X78657200Y-28404762D02*
X78561961Y-28309524D01*
X78561961Y-28309524D02*
X78466723Y-28261905D01*
X78466723Y-28261905D02*
X78276247Y-28214286D01*
X78276247Y-28214286D02*
X78133390Y-28214286D01*
X78133390Y-28214286D02*
X77942914Y-28261905D01*
X77942914Y-28261905D02*
X77847676Y-28309524D01*
X77847676Y-28309524D02*
X77752438Y-28404762D01*
X77752438Y-28404762D02*
X77704819Y-28547619D01*
X77704819Y-28547619D02*
X77704819Y-28642857D01*
X77704819Y-28642857D02*
X77752438Y-28785714D01*
X77752438Y-28785714D02*
X77800057Y-28833333D01*
X77704819Y-29738095D02*
X77704819Y-29261905D01*
X77704819Y-29261905D02*
X78181009Y-29214286D01*
X78181009Y-29214286D02*
X78133390Y-29261905D01*
X78133390Y-29261905D02*
X78085771Y-29357143D01*
X78085771Y-29357143D02*
X78085771Y-29595238D01*
X78085771Y-29595238D02*
X78133390Y-29690476D01*
X78133390Y-29690476D02*
X78181009Y-29738095D01*
X78181009Y-29738095D02*
X78276247Y-29785714D01*
X78276247Y-29785714D02*
X78514342Y-29785714D01*
X78514342Y-29785714D02*
X78609580Y-29738095D01*
X78609580Y-29738095D02*
X78657200Y-29690476D01*
X78657200Y-29690476D02*
X78704819Y-29595238D01*
X78704819Y-29595238D02*
X78704819Y-29357143D01*
X78704819Y-29357143D02*
X78657200Y-29261905D01*
X78657200Y-29261905D02*
X78609580Y-29214286D01*
X79809523Y-34954819D02*
X79809523Y-35669104D01*
X79809523Y-35669104D02*
X79857142Y-35811961D01*
X79857142Y-35811961D02*
X79952380Y-35907200D01*
X79952380Y-35907200D02*
X80095237Y-35954819D01*
X80095237Y-35954819D02*
X80190475Y-35954819D01*
X78809523Y-35954819D02*
X79380951Y-35954819D01*
X79095237Y-35954819D02*
X79095237Y-34954819D01*
X79095237Y-34954819D02*
X79190475Y-35097676D01*
X79190475Y-35097676D02*
X79285713Y-35192914D01*
X79285713Y-35192914D02*
X79380951Y-35240533D01*
X77904761Y-34954819D02*
X78380951Y-34954819D01*
X78380951Y-34954819D02*
X78428570Y-35431009D01*
X78428570Y-35431009D02*
X78380951Y-35383390D01*
X78380951Y-35383390D02*
X78285713Y-35335771D01*
X78285713Y-35335771D02*
X78047618Y-35335771D01*
X78047618Y-35335771D02*
X77952380Y-35383390D01*
X77952380Y-35383390D02*
X77904761Y-35431009D01*
X77904761Y-35431009D02*
X77857142Y-35526247D01*
X77857142Y-35526247D02*
X77857142Y-35764342D01*
X77857142Y-35764342D02*
X77904761Y-35859580D01*
X77904761Y-35859580D02*
X77952380Y-35907200D01*
X77952380Y-35907200D02*
X78047618Y-35954819D01*
X78047618Y-35954819D02*
X78285713Y-35954819D01*
X78285713Y-35954819D02*
X78380951Y-35907200D01*
X78380951Y-35907200D02*
X78428570Y-35859580D01*
X78609580Y-65357142D02*
X78657200Y-65309523D01*
X78657200Y-65309523D02*
X78704819Y-65166666D01*
X78704819Y-65166666D02*
X78704819Y-65071428D01*
X78704819Y-65071428D02*
X78657200Y-64928571D01*
X78657200Y-64928571D02*
X78561961Y-64833333D01*
X78561961Y-64833333D02*
X78466723Y-64785714D01*
X78466723Y-64785714D02*
X78276247Y-64738095D01*
X78276247Y-64738095D02*
X78133390Y-64738095D01*
X78133390Y-64738095D02*
X77942914Y-64785714D01*
X77942914Y-64785714D02*
X77847676Y-64833333D01*
X77847676Y-64833333D02*
X77752438Y-64928571D01*
X77752438Y-64928571D02*
X77704819Y-65071428D01*
X77704819Y-65071428D02*
X77704819Y-65166666D01*
X77704819Y-65166666D02*
X77752438Y-65309523D01*
X77752438Y-65309523D02*
X77800057Y-65357142D01*
X77800057Y-65738095D02*
X77752438Y-65785714D01*
X77752438Y-65785714D02*
X77704819Y-65880952D01*
X77704819Y-65880952D02*
X77704819Y-66119047D01*
X77704819Y-66119047D02*
X77752438Y-66214285D01*
X77752438Y-66214285D02*
X77800057Y-66261904D01*
X77800057Y-66261904D02*
X77895295Y-66309523D01*
X77895295Y-66309523D02*
X77990533Y-66309523D01*
X77990533Y-66309523D02*
X78133390Y-66261904D01*
X78133390Y-66261904D02*
X78704819Y-65690476D01*
X78704819Y-65690476D02*
X78704819Y-66309523D01*
X78133390Y-66880952D02*
X78085771Y-66785714D01*
X78085771Y-66785714D02*
X78038152Y-66738095D01*
X78038152Y-66738095D02*
X77942914Y-66690476D01*
X77942914Y-66690476D02*
X77895295Y-66690476D01*
X77895295Y-66690476D02*
X77800057Y-66738095D01*
X77800057Y-66738095D02*
X77752438Y-66785714D01*
X77752438Y-66785714D02*
X77704819Y-66880952D01*
X77704819Y-66880952D02*
X77704819Y-67071428D01*
X77704819Y-67071428D02*
X77752438Y-67166666D01*
X77752438Y-67166666D02*
X77800057Y-67214285D01*
X77800057Y-67214285D02*
X77895295Y-67261904D01*
X77895295Y-67261904D02*
X77942914Y-67261904D01*
X77942914Y-67261904D02*
X78038152Y-67214285D01*
X78038152Y-67214285D02*
X78085771Y-67166666D01*
X78085771Y-67166666D02*
X78133390Y-67071428D01*
X78133390Y-67071428D02*
X78133390Y-66880952D01*
X78133390Y-66880952D02*
X78181009Y-66785714D01*
X78181009Y-66785714D02*
X78228628Y-66738095D01*
X78228628Y-66738095D02*
X78323866Y-66690476D01*
X78323866Y-66690476D02*
X78514342Y-66690476D01*
X78514342Y-66690476D02*
X78609580Y-66738095D01*
X78609580Y-66738095D02*
X78657200Y-66785714D01*
X78657200Y-66785714D02*
X78704819Y-66880952D01*
X78704819Y-66880952D02*
X78704819Y-67071428D01*
X78704819Y-67071428D02*
X78657200Y-67166666D01*
X78657200Y-67166666D02*
X78609580Y-67214285D01*
X78609580Y-67214285D02*
X78514342Y-67261904D01*
X78514342Y-67261904D02*
X78323866Y-67261904D01*
X78323866Y-67261904D02*
X78228628Y-67214285D01*
X78228628Y-67214285D02*
X78181009Y-67166666D01*
X78181009Y-67166666D02*
X78133390Y-67071428D01*
X86167858Y-82539580D02*
X86215477Y-82587200D01*
X86215477Y-82587200D02*
X86358334Y-82634819D01*
X86358334Y-82634819D02*
X86453572Y-82634819D01*
X86453572Y-82634819D02*
X86596429Y-82587200D01*
X86596429Y-82587200D02*
X86691667Y-82491961D01*
X86691667Y-82491961D02*
X86739286Y-82396723D01*
X86739286Y-82396723D02*
X86786905Y-82206247D01*
X86786905Y-82206247D02*
X86786905Y-82063390D01*
X86786905Y-82063390D02*
X86739286Y-81872914D01*
X86739286Y-81872914D02*
X86691667Y-81777676D01*
X86691667Y-81777676D02*
X86596429Y-81682438D01*
X86596429Y-81682438D02*
X86453572Y-81634819D01*
X86453572Y-81634819D02*
X86358334Y-81634819D01*
X86358334Y-81634819D02*
X86215477Y-81682438D01*
X86215477Y-81682438D02*
X86167858Y-81730057D01*
X85786905Y-81730057D02*
X85739286Y-81682438D01*
X85739286Y-81682438D02*
X85644048Y-81634819D01*
X85644048Y-81634819D02*
X85405953Y-81634819D01*
X85405953Y-81634819D02*
X85310715Y-81682438D01*
X85310715Y-81682438D02*
X85263096Y-81730057D01*
X85263096Y-81730057D02*
X85215477Y-81825295D01*
X85215477Y-81825295D02*
X85215477Y-81920533D01*
X85215477Y-81920533D02*
X85263096Y-82063390D01*
X85263096Y-82063390D02*
X85834524Y-82634819D01*
X85834524Y-82634819D02*
X85215477Y-82634819D01*
X84358334Y-81968152D02*
X84358334Y-82634819D01*
X84596429Y-81587200D02*
X84834524Y-82301485D01*
X84834524Y-82301485D02*
X84215477Y-82301485D01*
X86454581Y-70107142D02*
X86502201Y-70059523D01*
X86502201Y-70059523D02*
X86549820Y-69916666D01*
X86549820Y-69916666D02*
X86549820Y-69821428D01*
X86549820Y-69821428D02*
X86502201Y-69678571D01*
X86502201Y-69678571D02*
X86406962Y-69583333D01*
X86406962Y-69583333D02*
X86311724Y-69535714D01*
X86311724Y-69535714D02*
X86121248Y-69488095D01*
X86121248Y-69488095D02*
X85978391Y-69488095D01*
X85978391Y-69488095D02*
X85787915Y-69535714D01*
X85787915Y-69535714D02*
X85692677Y-69583333D01*
X85692677Y-69583333D02*
X85597439Y-69678571D01*
X85597439Y-69678571D02*
X85549820Y-69821428D01*
X85549820Y-69821428D02*
X85549820Y-69916666D01*
X85549820Y-69916666D02*
X85597439Y-70059523D01*
X85597439Y-70059523D02*
X85645058Y-70107142D01*
X86549820Y-71059523D02*
X86549820Y-70488095D01*
X86549820Y-70773809D02*
X85549820Y-70773809D01*
X85549820Y-70773809D02*
X85692677Y-70678571D01*
X85692677Y-70678571D02*
X85787915Y-70583333D01*
X85787915Y-70583333D02*
X85835534Y-70488095D01*
X85549820Y-71392857D02*
X85549820Y-72059523D01*
X85549820Y-72059523D02*
X86549820Y-71630952D01*
X90609580Y-78069642D02*
X90657200Y-78022023D01*
X90657200Y-78022023D02*
X90704819Y-77879166D01*
X90704819Y-77879166D02*
X90704819Y-77783928D01*
X90704819Y-77783928D02*
X90657200Y-77641071D01*
X90657200Y-77641071D02*
X90561961Y-77545833D01*
X90561961Y-77545833D02*
X90466723Y-77498214D01*
X90466723Y-77498214D02*
X90276247Y-77450595D01*
X90276247Y-77450595D02*
X90133390Y-77450595D01*
X90133390Y-77450595D02*
X89942914Y-77498214D01*
X89942914Y-77498214D02*
X89847676Y-77545833D01*
X89847676Y-77545833D02*
X89752438Y-77641071D01*
X89752438Y-77641071D02*
X89704819Y-77783928D01*
X89704819Y-77783928D02*
X89704819Y-77879166D01*
X89704819Y-77879166D02*
X89752438Y-78022023D01*
X89752438Y-78022023D02*
X89800057Y-78069642D01*
X89800057Y-78450595D02*
X89752438Y-78498214D01*
X89752438Y-78498214D02*
X89704819Y-78593452D01*
X89704819Y-78593452D02*
X89704819Y-78831547D01*
X89704819Y-78831547D02*
X89752438Y-78926785D01*
X89752438Y-78926785D02*
X89800057Y-78974404D01*
X89800057Y-78974404D02*
X89895295Y-79022023D01*
X89895295Y-79022023D02*
X89990533Y-79022023D01*
X89990533Y-79022023D02*
X90133390Y-78974404D01*
X90133390Y-78974404D02*
X90704819Y-78402976D01*
X90704819Y-78402976D02*
X90704819Y-79022023D01*
X89704819Y-79879166D02*
X89704819Y-79688690D01*
X89704819Y-79688690D02*
X89752438Y-79593452D01*
X89752438Y-79593452D02*
X89800057Y-79545833D01*
X89800057Y-79545833D02*
X89942914Y-79450595D01*
X89942914Y-79450595D02*
X90133390Y-79402976D01*
X90133390Y-79402976D02*
X90514342Y-79402976D01*
X90514342Y-79402976D02*
X90609580Y-79450595D01*
X90609580Y-79450595D02*
X90657200Y-79498214D01*
X90657200Y-79498214D02*
X90704819Y-79593452D01*
X90704819Y-79593452D02*
X90704819Y-79783928D01*
X90704819Y-79783928D02*
X90657200Y-79879166D01*
X90657200Y-79879166D02*
X90609580Y-79926785D01*
X90609580Y-79926785D02*
X90514342Y-79974404D01*
X90514342Y-79974404D02*
X90276247Y-79974404D01*
X90276247Y-79974404D02*
X90181009Y-79926785D01*
X90181009Y-79926785D02*
X90133390Y-79879166D01*
X90133390Y-79879166D02*
X90085771Y-79783928D01*
X90085771Y-79783928D02*
X90085771Y-79593452D01*
X90085771Y-79593452D02*
X90133390Y-79498214D01*
X90133390Y-79498214D02*
X90181009Y-79450595D01*
X90181009Y-79450595D02*
X90276247Y-79402976D01*
X93738094Y-34204819D02*
X93738094Y-33204819D01*
X93738094Y-33204819D02*
X93499999Y-33204819D01*
X93499999Y-33204819D02*
X93357142Y-33252438D01*
X93357142Y-33252438D02*
X93261904Y-33347676D01*
X93261904Y-33347676D02*
X93214285Y-33442914D01*
X93214285Y-33442914D02*
X93166666Y-33633390D01*
X93166666Y-33633390D02*
X93166666Y-33776247D01*
X93166666Y-33776247D02*
X93214285Y-33966723D01*
X93214285Y-33966723D02*
X93261904Y-34061961D01*
X93261904Y-34061961D02*
X93357142Y-34157200D01*
X93357142Y-34157200D02*
X93499999Y-34204819D01*
X93499999Y-34204819D02*
X93738094Y-34204819D01*
X92214285Y-34204819D02*
X92785713Y-34204819D01*
X92499999Y-34204819D02*
X92499999Y-33204819D01*
X92499999Y-33204819D02*
X92595237Y-33347676D01*
X92595237Y-33347676D02*
X92690475Y-33442914D01*
X92690475Y-33442914D02*
X92785713Y-33490533D01*
X81809523Y-73954819D02*
X81809523Y-74669104D01*
X81809523Y-74669104D02*
X81857142Y-74811961D01*
X81857142Y-74811961D02*
X81952380Y-74907200D01*
X81952380Y-74907200D02*
X82095237Y-74954819D01*
X82095237Y-74954819D02*
X82190475Y-74954819D01*
X80809523Y-74954819D02*
X81380951Y-74954819D01*
X81095237Y-74954819D02*
X81095237Y-73954819D01*
X81095237Y-73954819D02*
X81190475Y-74097676D01*
X81190475Y-74097676D02*
X81285713Y-74192914D01*
X81285713Y-74192914D02*
X81380951Y-74240533D01*
X80428570Y-74050057D02*
X80380951Y-74002438D01*
X80380951Y-74002438D02*
X80285713Y-73954819D01*
X80285713Y-73954819D02*
X80047618Y-73954819D01*
X80047618Y-73954819D02*
X79952380Y-74002438D01*
X79952380Y-74002438D02*
X79904761Y-74050057D01*
X79904761Y-74050057D02*
X79857142Y-74145295D01*
X79857142Y-74145295D02*
X79857142Y-74240533D01*
X79857142Y-74240533D02*
X79904761Y-74383390D01*
X79904761Y-74383390D02*
X80476189Y-74954819D01*
X80476189Y-74954819D02*
X79857142Y-74954819D01*
X83166666Y-30104819D02*
X83499999Y-29628628D01*
X83738094Y-30104819D02*
X83738094Y-29104819D01*
X83738094Y-29104819D02*
X83357142Y-29104819D01*
X83357142Y-29104819D02*
X83261904Y-29152438D01*
X83261904Y-29152438D02*
X83214285Y-29200057D01*
X83214285Y-29200057D02*
X83166666Y-29295295D01*
X83166666Y-29295295D02*
X83166666Y-29438152D01*
X83166666Y-29438152D02*
X83214285Y-29533390D01*
X83214285Y-29533390D02*
X83261904Y-29581009D01*
X83261904Y-29581009D02*
X83357142Y-29628628D01*
X83357142Y-29628628D02*
X83738094Y-29628628D01*
X82833332Y-29104819D02*
X82214285Y-29104819D01*
X82214285Y-29104819D02*
X82547618Y-29485771D01*
X82547618Y-29485771D02*
X82404761Y-29485771D01*
X82404761Y-29485771D02*
X82309523Y-29533390D01*
X82309523Y-29533390D02*
X82261904Y-29581009D01*
X82261904Y-29581009D02*
X82214285Y-29676247D01*
X82214285Y-29676247D02*
X82214285Y-29914342D01*
X82214285Y-29914342D02*
X82261904Y-30009580D01*
X82261904Y-30009580D02*
X82309523Y-30057200D01*
X82309523Y-30057200D02*
X82404761Y-30104819D01*
X82404761Y-30104819D02*
X82690475Y-30104819D01*
X82690475Y-30104819D02*
X82785713Y-30057200D01*
X82785713Y-30057200D02*
X82833332Y-30009580D01*
X76166666Y-35109580D02*
X76214285Y-35157200D01*
X76214285Y-35157200D02*
X76357142Y-35204819D01*
X76357142Y-35204819D02*
X76452380Y-35204819D01*
X76452380Y-35204819D02*
X76595237Y-35157200D01*
X76595237Y-35157200D02*
X76690475Y-35061961D01*
X76690475Y-35061961D02*
X76738094Y-34966723D01*
X76738094Y-34966723D02*
X76785713Y-34776247D01*
X76785713Y-34776247D02*
X76785713Y-34633390D01*
X76785713Y-34633390D02*
X76738094Y-34442914D01*
X76738094Y-34442914D02*
X76690475Y-34347676D01*
X76690475Y-34347676D02*
X76595237Y-34252438D01*
X76595237Y-34252438D02*
X76452380Y-34204819D01*
X76452380Y-34204819D02*
X76357142Y-34204819D01*
X76357142Y-34204819D02*
X76214285Y-34252438D01*
X76214285Y-34252438D02*
X76166666Y-34300057D01*
X75833332Y-34204819D02*
X75166666Y-34204819D01*
X75166666Y-34204819D02*
X75595237Y-35204819D01*
X82642857Y-53609580D02*
X82690476Y-53657200D01*
X82690476Y-53657200D02*
X82833333Y-53704819D01*
X82833333Y-53704819D02*
X82928571Y-53704819D01*
X82928571Y-53704819D02*
X83071428Y-53657200D01*
X83071428Y-53657200D02*
X83166666Y-53561961D01*
X83166666Y-53561961D02*
X83214285Y-53466723D01*
X83214285Y-53466723D02*
X83261904Y-53276247D01*
X83261904Y-53276247D02*
X83261904Y-53133390D01*
X83261904Y-53133390D02*
X83214285Y-52942914D01*
X83214285Y-52942914D02*
X83166666Y-52847676D01*
X83166666Y-52847676D02*
X83071428Y-52752438D01*
X83071428Y-52752438D02*
X82928571Y-52704819D01*
X82928571Y-52704819D02*
X82833333Y-52704819D01*
X82833333Y-52704819D02*
X82690476Y-52752438D01*
X82690476Y-52752438D02*
X82642857Y-52800057D01*
X82309523Y-52704819D02*
X81690476Y-52704819D01*
X81690476Y-52704819D02*
X82023809Y-53085771D01*
X82023809Y-53085771D02*
X81880952Y-53085771D01*
X81880952Y-53085771D02*
X81785714Y-53133390D01*
X81785714Y-53133390D02*
X81738095Y-53181009D01*
X81738095Y-53181009D02*
X81690476Y-53276247D01*
X81690476Y-53276247D02*
X81690476Y-53514342D01*
X81690476Y-53514342D02*
X81738095Y-53609580D01*
X81738095Y-53609580D02*
X81785714Y-53657200D01*
X81785714Y-53657200D02*
X81880952Y-53704819D01*
X81880952Y-53704819D02*
X82166666Y-53704819D01*
X82166666Y-53704819D02*
X82261904Y-53657200D01*
X82261904Y-53657200D02*
X82309523Y-53609580D01*
X80785714Y-52704819D02*
X81261904Y-52704819D01*
X81261904Y-52704819D02*
X81309523Y-53181009D01*
X81309523Y-53181009D02*
X81261904Y-53133390D01*
X81261904Y-53133390D02*
X81166666Y-53085771D01*
X81166666Y-53085771D02*
X80928571Y-53085771D01*
X80928571Y-53085771D02*
X80833333Y-53133390D01*
X80833333Y-53133390D02*
X80785714Y-53181009D01*
X80785714Y-53181009D02*
X80738095Y-53276247D01*
X80738095Y-53276247D02*
X80738095Y-53514342D01*
X80738095Y-53514342D02*
X80785714Y-53609580D01*
X80785714Y-53609580D02*
X80833333Y-53657200D01*
X80833333Y-53657200D02*
X80928571Y-53704819D01*
X80928571Y-53704819D02*
X81166666Y-53704819D01*
X81166666Y-53704819D02*
X81261904Y-53657200D01*
X81261904Y-53657200D02*
X81309523Y-53609580D01*
X81642857Y-63789580D02*
X81690476Y-63837200D01*
X81690476Y-63837200D02*
X81833333Y-63884819D01*
X81833333Y-63884819D02*
X81928571Y-63884819D01*
X81928571Y-63884819D02*
X82071428Y-63837200D01*
X82071428Y-63837200D02*
X82166666Y-63741961D01*
X82166666Y-63741961D02*
X82214285Y-63646723D01*
X82214285Y-63646723D02*
X82261904Y-63456247D01*
X82261904Y-63456247D02*
X82261904Y-63313390D01*
X82261904Y-63313390D02*
X82214285Y-63122914D01*
X82214285Y-63122914D02*
X82166666Y-63027676D01*
X82166666Y-63027676D02*
X82071428Y-62932438D01*
X82071428Y-62932438D02*
X81928571Y-62884819D01*
X81928571Y-62884819D02*
X81833333Y-62884819D01*
X81833333Y-62884819D02*
X81690476Y-62932438D01*
X81690476Y-62932438D02*
X81642857Y-62980057D01*
X81309523Y-62884819D02*
X80690476Y-62884819D01*
X80690476Y-62884819D02*
X81023809Y-63265771D01*
X81023809Y-63265771D02*
X80880952Y-63265771D01*
X80880952Y-63265771D02*
X80785714Y-63313390D01*
X80785714Y-63313390D02*
X80738095Y-63361009D01*
X80738095Y-63361009D02*
X80690476Y-63456247D01*
X80690476Y-63456247D02*
X80690476Y-63694342D01*
X80690476Y-63694342D02*
X80738095Y-63789580D01*
X80738095Y-63789580D02*
X80785714Y-63837200D01*
X80785714Y-63837200D02*
X80880952Y-63884819D01*
X80880952Y-63884819D02*
X81166666Y-63884819D01*
X81166666Y-63884819D02*
X81261904Y-63837200D01*
X81261904Y-63837200D02*
X81309523Y-63789580D01*
X80071428Y-62884819D02*
X79976190Y-62884819D01*
X79976190Y-62884819D02*
X79880952Y-62932438D01*
X79880952Y-62932438D02*
X79833333Y-62980057D01*
X79833333Y-62980057D02*
X79785714Y-63075295D01*
X79785714Y-63075295D02*
X79738095Y-63265771D01*
X79738095Y-63265771D02*
X79738095Y-63503866D01*
X79738095Y-63503866D02*
X79785714Y-63694342D01*
X79785714Y-63694342D02*
X79833333Y-63789580D01*
X79833333Y-63789580D02*
X79880952Y-63837200D01*
X79880952Y-63837200D02*
X79976190Y-63884819D01*
X79976190Y-63884819D02*
X80071428Y-63884819D01*
X80071428Y-63884819D02*
X80166666Y-63837200D01*
X80166666Y-63837200D02*
X80214285Y-63789580D01*
X80214285Y-63789580D02*
X80261904Y-63694342D01*
X80261904Y-63694342D02*
X80309523Y-63503866D01*
X80309523Y-63503866D02*
X80309523Y-63265771D01*
X80309523Y-63265771D02*
X80261904Y-63075295D01*
X80261904Y-63075295D02*
X80214285Y-62980057D01*
X80214285Y-62980057D02*
X80166666Y-62932438D01*
X80166666Y-62932438D02*
X80071428Y-62884819D01*
D13*
%TO.C,C31*%
X73146267Y-62510000D02*
X72853733Y-62510000D01*
X73146267Y-61490000D02*
X72853733Y-61490000D01*
%TO.C,C32*%
X76853733Y-62510000D02*
X77146267Y-62510000D01*
X76853733Y-61490000D02*
X77146267Y-61490000D01*
%TO.C,J11*%
X81620000Y-66870000D02*
X84380000Y-66870000D01*
X81620000Y-66980000D02*
X81620000Y-66870000D01*
X81620000Y-66980000D02*
X84380000Y-66980000D01*
X81620000Y-68250000D02*
X81620000Y-69630000D01*
X81620000Y-69630000D02*
X83000000Y-69630000D01*
X84380000Y-66980000D02*
X84380000Y-66870000D01*
%TO.C,J10*%
X85620000Y-65770000D02*
X85620000Y-65880000D01*
X88380000Y-63120000D02*
X87000000Y-63120000D01*
X88380000Y-64500000D02*
X88380000Y-63120000D01*
X88380000Y-65770000D02*
X85620000Y-65770000D01*
X88380000Y-65770000D02*
X88380000Y-65880000D01*
X88380000Y-65880000D02*
X85620000Y-65880000D01*
%TO.C,C38*%
X73265000Y-55701248D02*
X73265000Y-56223752D01*
X74735000Y-55701248D02*
X74735000Y-56223752D01*
%TO.C,R6*%
X76342224Y-74477500D02*
X75832776Y-74477500D01*
X76342224Y-75522500D02*
X75832776Y-75522500D01*
%TO.C,R1*%
X80745276Y-25477500D02*
X81254724Y-25477500D01*
X80745276Y-26522500D02*
X81254724Y-26522500D01*
%TO.C,C36*%
X73265000Y-46298752D02*
X73265000Y-45776248D01*
X74735000Y-46298752D02*
X74735000Y-45776248D01*
%TO.C,C14*%
X90748753Y-74015000D02*
X90226249Y-74015000D01*
X90748753Y-75485000D02*
X90226249Y-75485000D01*
%TO.C,C11*%
X87298752Y-30265000D02*
X86776248Y-30265000D01*
X87298752Y-31735000D02*
X86776248Y-31735000D01*
%TO.C,C37*%
X81265000Y-45738748D02*
X81265000Y-46261252D01*
X82735000Y-45738748D02*
X82735000Y-46261252D01*
%TO.C,C6*%
X75265000Y-27298752D02*
X75265000Y-26776248D01*
X76735000Y-27298752D02*
X76735000Y-26776248D01*
%TO.C,R4*%
X95265000Y-36772936D02*
X95265000Y-37227064D01*
X96735000Y-36772936D02*
X96735000Y-37227064D01*
%TO.C,C10*%
X86288748Y-33090000D02*
X87711252Y-33090000D01*
X86288748Y-34910000D02*
X87711252Y-34910000D01*
%TO.C,C21*%
X72490000Y-75716233D02*
X72490000Y-76008767D01*
X73510000Y-75716233D02*
X73510000Y-76008767D01*
%TO.C,C25*%
X85241234Y-77240000D02*
X85533768Y-77240000D01*
X85241234Y-78260000D02*
X85533768Y-78260000D01*
%TO.C,C15*%
X86263749Y-74015000D02*
X86786253Y-74015000D01*
X86263749Y-75485000D02*
X86786253Y-75485000D01*
%TO.C,C27*%
X73490000Y-72146267D02*
X73490000Y-71853733D01*
X74510000Y-72146267D02*
X74510000Y-71853733D01*
%TO.C,C5*%
X79265000Y-28776248D02*
X79265000Y-29298752D01*
X80735000Y-28776248D02*
X80735000Y-29298752D01*
%TO.C,J15*%
X77620000Y-34270000D02*
X77620000Y-34380000D01*
X80380000Y-31620000D02*
X79000000Y-31620000D01*
X80380000Y-33000000D02*
X80380000Y-31620000D01*
X80380000Y-34270000D02*
X77620000Y-34270000D01*
X80380000Y-34270000D02*
X80380000Y-34380000D01*
X80380000Y-34380000D02*
X77620000Y-34380000D01*
%TO.C,C28*%
X79265000Y-66223752D02*
X79265000Y-65701248D01*
X80735000Y-66223752D02*
X80735000Y-65701248D01*
%TO.C,C24*%
X85378734Y-80240000D02*
X85671268Y-80240000D01*
X85378734Y-81260000D02*
X85671268Y-81260000D01*
%TO.C,C17*%
X87015001Y-70603733D02*
X87015001Y-70896267D01*
X88035001Y-70603733D02*
X88035001Y-70896267D01*
%TO.C,C26*%
X87790001Y-78451248D02*
X87790001Y-78973752D01*
X89260001Y-78451248D02*
X89260001Y-78973752D01*
%TO.C,D1*%
X91730000Y-38540000D02*
X91730000Y-39810000D01*
X91730000Y-39810000D02*
X93000000Y-39810000D01*
%TO.C,J12*%
X79620000Y-75620000D02*
X82380000Y-75620000D01*
X79620000Y-75730000D02*
X79620000Y-75620000D01*
X79620000Y-75730000D02*
X82380000Y-75730000D01*
X79620000Y-77000000D02*
X79620000Y-78380000D01*
X79620000Y-78380000D02*
X81000000Y-78380000D01*
X82380000Y-75730000D02*
X82380000Y-75620000D01*
%TO.C,R3*%
X82772936Y-27265000D02*
X83227064Y-27265000D01*
X82772936Y-28735000D02*
X83227064Y-28735000D01*
%TO.C,C7*%
X75090000Y-30726248D02*
X75090000Y-32148752D01*
X76910000Y-30726248D02*
X76910000Y-32148752D01*
%TO.C,C35*%
X81265000Y-56186252D02*
X81265000Y-55663748D01*
X82735000Y-56186252D02*
X82735000Y-55663748D01*
%TO.C,C30*%
X80853733Y-62510000D02*
X81146267Y-62510000D01*
X80853733Y-61490000D02*
X81146267Y-61490000D01*
%TD*%
M02*
