%TF.GenerationSoftware,KiCad,Pcbnew,9.0.7*%
%TF.CreationDate,2026-07-30T15:48:48-05:00*%
%TF.ProjectId,Project_Satellite,50726f6a-6563-4745-9f53-6174656c6c69,rev?*%
%TF.SameCoordinates,Original*%
%TF.FileFunction,Paste,Bot*%
%TF.FilePolarity,Positive*%
%FSLAX46Y46*%
G04 Gerber Fmt 4.6, Leading zero omitted, Abs format (unit mm)*
G04 Created by KiCad (PCBNEW 9.0.7) date 2026-07-30 15:48:48*
%MOMM*%
%LPD*%
G01*
G04 APERTURE LIST*
G04 Aperture macros list*
%AMRoundRect*
0 Rectangle with rounded corners*
0 $1 Rounding radius*
0 $2 $3 $4 $5 $6 $7 $8 $9 X,Y pos of 4 corners*
0 Add a 4 corners polygon primitive as box body*
4,1,4,$2,$3,$4,$5,$6,$7,$8,$9,$2,$3,0*
0 Add four circle primitives for the rounded corners*
1,1,$1+$1,$2,$3*
1,1,$1+$1,$4,$5*
1,1,$1+$1,$6,$7*
1,1,$1+$1,$8,$9*
0 Add four rect primitives between the rounded corners*
20,1,$1+$1,$2,$3,$4,$5,0*
20,1,$1+$1,$4,$5,$6,$7,0*
20,1,$1+$1,$6,$7,$8,$9,0*
20,1,$1+$1,$8,$9,$2,$3,0*%
G04 Aperture macros list end*
%ADD10RoundRect,0.237500X0.300000X0.237500X-0.300000X0.237500X-0.300000X-0.237500X0.300000X-0.237500X0*%
%ADD11RoundRect,0.237500X-0.300000X-0.237500X0.300000X-0.237500X0.300000X0.237500X-0.300000X0.237500X0*%
%ADD12RoundRect,0.250000X-0.475000X0.337500X-0.475000X-0.337500X0.475000X-0.337500X0.475000X0.337500X0*%
%ADD13RoundRect,0.237500X0.250000X0.237500X-0.250000X0.237500X-0.250000X-0.237500X0.250000X-0.237500X0*%
%ADD14RoundRect,0.237500X-0.250000X-0.237500X0.250000X-0.237500X0.250000X0.237500X-0.250000X0.237500X0*%
%ADD15RoundRect,0.250000X0.475000X-0.337500X0.475000X0.337500X-0.475000X0.337500X-0.475000X-0.337500X0*%
%ADD16RoundRect,0.250000X0.337500X0.475000X-0.337500X0.475000X-0.337500X-0.475000X0.337500X-0.475000X0*%
%ADD17RoundRect,0.250000X-0.450000X0.350000X-0.450000X-0.350000X0.450000X-0.350000X0.450000X0.350000X0*%
%ADD18RoundRect,0.250000X-0.412500X-0.650000X0.412500X-0.650000X0.412500X0.650000X-0.412500X0.650000X0*%
%ADD19RoundRect,0.237500X-0.237500X0.300000X-0.237500X-0.300000X0.237500X-0.300000X0.237500X0.300000X0*%
%ADD20RoundRect,0.250000X-0.337500X-0.475000X0.337500X-0.475000X0.337500X0.475000X-0.337500X0.475000X0*%
%ADD21RoundRect,0.237500X0.237500X-0.300000X0.237500X0.300000X-0.237500X0.300000X-0.237500X-0.300000X0*%
%ADD22RoundRect,0.250000X-0.350000X-0.450000X0.350000X-0.450000X0.350000X0.450000X-0.350000X0.450000X0*%
%ADD23RoundRect,0.250000X-0.650000X0.412500X-0.650000X-0.412500X0.650000X-0.412500X0.650000X0.412500X0*%
G04 APERTURE END LIST*
D10*
%TO.C,C31*%
X73862500Y-62000000D03*
X72137500Y-62000000D03*
%TD*%
D11*
%TO.C,C32*%
X77862500Y-62000000D03*
X76137500Y-62000000D03*
%TD*%
D12*
%TO.C,C38*%
X74000000Y-54925000D03*
X74000000Y-57000000D03*
%TD*%
D13*
%TO.C,R6*%
X77000000Y-75000000D03*
X75175000Y-75000000D03*
%TD*%
D14*
%TO.C,R1*%
X80087500Y-26000000D03*
X81912500Y-26000000D03*
%TD*%
D15*
%TO.C,C36*%
X74000000Y-47075000D03*
X74000000Y-45000000D03*
%TD*%
D16*
%TO.C,C14*%
X91525001Y-74750000D03*
X89450001Y-74750000D03*
%TD*%
%TO.C,C11*%
X88075000Y-31000000D03*
X86000000Y-31000000D03*
%TD*%
D12*
%TO.C,C37*%
X82000000Y-44962500D03*
X82000000Y-47037500D03*
%TD*%
D15*
%TO.C,C6*%
X76000000Y-28075000D03*
X76000000Y-26000000D03*
%TD*%
D17*
%TO.C,R4*%
X96000000Y-36000000D03*
X96000000Y-38000000D03*
%TD*%
D18*
%TO.C,C10*%
X85437500Y-34000000D03*
X88562500Y-34000000D03*
%TD*%
D19*
%TO.C,C21*%
X73000000Y-75000000D03*
X73000000Y-76725000D03*
%TD*%
D11*
%TO.C,C25*%
X84525001Y-77750000D03*
X86250001Y-77750000D03*
%TD*%
D20*
%TO.C,C15*%
X85487501Y-74750000D03*
X87562501Y-74750000D03*
%TD*%
D21*
%TO.C,C27*%
X74000000Y-72862500D03*
X74000000Y-71137500D03*
%TD*%
D12*
%TO.C,C5*%
X80000000Y-28000000D03*
X80000000Y-30075000D03*
%TD*%
D15*
%TO.C,C28*%
X80000000Y-67000000D03*
X80000000Y-64925000D03*
%TD*%
D11*
%TO.C,C24*%
X84662501Y-80750000D03*
X86387501Y-80750000D03*
%TD*%
D19*
%TO.C,C17*%
X87525001Y-69887500D03*
X87525001Y-71612500D03*
%TD*%
D12*
%TO.C,C26*%
X88525001Y-77675000D03*
X88525001Y-79750000D03*
%TD*%
D22*
%TO.C,R3*%
X82000000Y-28000000D03*
X84000000Y-28000000D03*
%TD*%
D23*
%TO.C,C7*%
X76000000Y-29875000D03*
X76000000Y-33000000D03*
%TD*%
D15*
%TO.C,C35*%
X82000000Y-56962500D03*
X82000000Y-54887500D03*
%TD*%
D11*
%TO.C,C30*%
X80137500Y-62000000D03*
X81862500Y-62000000D03*
%TD*%
M02*
